<?xml version="1.0" standalone="no"?>
<!DOCTYPE svg PUBLIC "-//W3C//DTD SVG 20010904//EN"
 "http://www.w3.org/TR/2001/REC-SVG-20010904/DTD/svg10.dtd">
<svg version="1.0" xmlns="http://www.w3.org/2000/svg"
 width="1280.000000pt" height="1280.000000pt" viewBox="0 0 1280.000000 1280.000000"
 preserveAspectRatio="xMidYMid meet">
<metadata>
Created by potrace 1.15, written by Peter Selinger 2001-2017
</metadata>
<g transform="translate(0.000000,1280.000000) scale(0.100000,-0.100000)"
fill="#000000" stroke="none">
<path d="M1742 12063 c-17 -42 -6 -120 21 -162 25 -37 25 -41 9 -41 -17 0 -52
-28 -52 -42 0 -3 12 -8 28 -11 15 -3 54 -29 87 -56 32 -28 67 -51 77 -51 15 0
14 -5 -8 -37 l-25 -38 31 -6 c17 -4 41 -16 53 -27 35 -32 90 -62 115 -62 25 0
25 0 13 -33 -10 -24 -9 -25 67 -29 244 -14 359 -196 418 -658 16 -133 19 -472
4 -635 -14 -161 -51 -446 -61 -472 -5 -13 -15 -23 -24 -23 -27 0 -193 -76
-272 -126 -156 -97 -334 -302 -413 -478 -62 -140 -104 -340 -99 -482 2 -43 -3
-68 -14 -85 -10 -13 -17 -29 -17 -36 0 -19 -4 -17 -42 21 -20 20 -52 39 -79
46 -24 6 -63 22 -86 35 l-42 23 -12 -35 c-15 -47 -6 -118 20 -154 26 -36 26
-39 -2 -39 -23 0 -47 -17 -47 -32 0 -4 7 -8 15 -8 9 0 44 -26 79 -59 35 -32
73 -62 85 -66 l22 -7 -27 -31 -26 -31 26 -7 c14 -4 47 -26 72 -48 26 -23 64
-46 86 -53 35 -10 37 -13 23 -28 -22 -24 -19 -30 15 -30 42 0 130 -20 165 -38
52 -26 107 -75 136 -121 28 -44 28 -45 9 -58 -27 -19 -50 -66 -50 -103 0 -27
-6 -33 -44 -50 -113 -48 -211 -73 -288 -73 -77 -1 -79 -2 -78 -34 1 -8 -41
-19 -117 -29 -47 -7 -51 -13 -28 -48 15 -22 14 -24 -14 -36 -16 -6 -53 -39
-81 -71 -35 -41 -62 -62 -83 -66 l-30 -6 27 -24 c15 -12 34 -23 43 -23 11 0 5
-12 -20 -39 -19 -21 -42 -63 -52 -92 -10 -30 -26 -68 -36 -85 l-19 -32 31 -11
c51 -18 101 -13 148 14 48 28 55 30 46 15 -7 -12 20 -60 34 -60 5 0 12 11 15
24 3 13 29 48 57 77 28 29 55 64 60 77 8 21 10 22 25 8 8 -9 24 -21 35 -26 16
-9 19 -7 19 9 0 10 18 41 40 67 22 27 47 68 56 91 14 37 18 40 31 28 24 -25
30 -17 36 51 4 37 17 90 31 119 28 63 94 138 136 155 27 11 31 10 54 -16 14
-16 26 -32 26 -36 0 -4 -16 -100 -35 -215 -82 -490 -123 -912 -132 -1353 -17
-898 119 -1588 437 -2222 395 -788 1076 -1416 1926 -1778 120 -51 122 -52 128
-88 21 -132 168 -193 280 -117 l36 24 57 -20 c112 -39 361 -98 501 -119 454
-66 876 -44 1335 72 475 118 928 328 1578 731 101 63 279 172 394 244 627 388
977 552 1357 637 111 25 119 25 185 12 172 -37 333 -128 436 -248 l43 -50 19
28 c10 16 19 44 19 62 0 17 1 32 2 32 1 0 28 -16 60 -35 73 -44 134 -62 244
-71 103 -8 156 -27 180 -66 l17 -29 13 30 c6 16 17 53 23 82 l12 52 83 -78
c136 -128 224 -278 278 -475 28 -99 25 -357 -4 -465 -28 -103 -96 -243 -157
-324 -125 -165 -345 -281 -531 -281 -214 1 -408 107 -463 255 -43 114 -18 242
56 291 102 68 241 13 259 -101 15 -104 -45 -190 -151 -216 -25 -6 -21 -7 23
-8 164 -3 270 186 191 340 -85 168 -328 195 -460 52 -64 -70 -83 -122 -84
-228 0 -77 4 -98 27 -147 15 -32 23 -58 19 -58 -16 0 -93 92 -112 133 -24 55
-25 151 -1 215 27 69 109 186 199 282 l78 83 -3 159 c-3 146 -2 161 18 196 40
70 58 77 205 77 118 0 136 -2 193 -26 34 -15 62 -25 62 -22 0 9 -107 51 -158
62 -218 46 -483 -53 -626 -235 -87 -111 -146 -281 -146 -424 0 -289 185 -564
467 -692 209 -95 487 -97 695 -5 317 141 528 488 528 870 0 247 -71 459 -220
655 l-70 92 78 0 c92 0 169 -20 211 -56 l30 -25 10 36 c13 46 -2 96 -39 133
l-29 29 65 6 c131 10 258 98 320 219 30 59 30 68 -1 68 -38 0 -141 42 -239 98
-49 28 -112 56 -141 63 -53 12 -143 9 -179 -7 -19 -7 -18 -6 2 24 29 40 52
106 52 148 l0 33 -46 -20 c-65 -29 -134 -33 -255 -15 -120 18 -198 10 -256
-24 -44 -26 -46 -25 -40 8 6 29 -8 107 -22 131 -8 12 -15 8 -36 -17 -15 -18
-67 -52 -121 -78 -55 -27 -105 -60 -118 -76 l-23 -30 -16 26 c-10 14 -31 33
-49 42 -28 14 -32 15 -40 1 -56 -101 -166 -189 -343 -276 -117 -58 -160 -73
-265 -96 -318 -68 -669 -220 -1095 -473 -88 -53 -308 -190 -490 -305 -663
-421 -1031 -624 -1365 -751 -366 -139 -761 -222 -1095 -231 -157 -4 -158 -2
-10 16 414 51 827 234 1093 484 262 247 418 529 494 892 19 92 23 139 22 308
0 178 -3 213 -26 321 -80 369 -268 668 -554 882 -168 126 -352 213 -566 267
-515 131 -977 26 -1297 -294 -177 -178 -298 -406 -356 -671 -26 -117 -31 -365
-11 -486 43 -250 138 -438 306 -604 191 -189 429 -319 677 -369 113 -23 321
-28 430 -11 219 36 431 139 578 281 64 62 106 79 196 79 104 0 176 41 151 86
-7 12 4 30 46 75 31 33 64 59 74 59 20 0 25 16 7 22 -16 5 34 112 62 133 13 9
20 19 14 21 -6 2 -9 38 -6 89 l3 86 -53 -6 c-30 -4 -67 -11 -82 -15 -15 -5
-34 -7 -41 -4 -9 3 -17 -3 -21 -16 -9 -29 -115 -97 -125 -80 -4 7 -9 1 -13
-17 -3 -15 -24 -50 -46 -77 -23 -26 -41 -52 -41 -57 0 -5 -13 -6 -28 -3 -23 5
-32 1 -46 -21 -20 -31 -22 -62 -12 -160 12 -101 -2 -143 -67 -200 -116 -103
-276 -183 -455 -227 -72 -18 -116 -22 -257 -22 -187 0 -256 12 -426 74 -302
109 -589 373 -689 631 -67 175 -74 214 -75 439 0 194 2 211 28 315 16 61 32
114 37 118 4 5 9 -21 12 -56 9 -113 70 -219 161 -281 139 -94 301 -82 409 31
54 55 78 115 78 194 0 200 -201 319 -369 217 -31 -20 -71 -71 -71 -92 0 -6 12
2 28 16 41 38 65 48 122 48 153 0 232 -165 131 -273 -38 -41 -73 -57 -128 -57
-61 1 -121 28 -172 79 -94 94 -121 219 -81 376 27 107 57 154 169 266 110 109
207 177 330 229 213 92 423 118 673 85 642 -84 1092 -466 1247 -1057 32 -126
44 -257 38 -427 -9 -241 -51 -409 -158 -626 -250 -509 -749 -831 -1423 -920
-281 -36 -760 -4 -971 67 -36 12 -40 16 -37 44 7 74 -59 163 -138 184 -61 17
-141 -11 -178 -62 -13 -17 -18 -16 -101 27 -114 59 -284 170 -393 257 -138
109 -429 431 -536 591 -226 338 -394 799 -464 1272 -31 209 -31 617 0 841 25
188 51 245 156 350 84 84 150 114 250 114 109 0 190 -41 226 -115 36 -75 21
-146 -43 -202 -44 -39 -95 -50 -150 -33 -79 23 -148 127 -131 197 5 23 4 26
-6 16 -19 -17 -25 -114 -10 -158 16 -50 75 -114 125 -136 50 -23 149 -25 199
-4 99 42 166 145 166 256 0 87 -22 148 -76 208 -86 96 -235 135 -366 97 -81
-23 -173 -89 -222 -157 -22 -32 -44 -58 -47 -58 -15 -2 89 374 168 603 103
300 285 732 440 1041 204 406 331 773 390 1122 26 156 26 523 -1 643 -69 317
-199 536 -419 701 -238 179 -606 277 -906 240 -51 -7 -95 -10 -97 -8 -2 2 3
61 11 133 42 367 44 706 5 959 -30 190 -89 395 -151 518 -62 122 -91 209 -97
297 -6 75 -9 85 -27 88 -15 2 -25 18 -38 60 -9 31 -17 65 -17 75 0 23 -19 22
-46 -4 l-22 -20 -6 24 c-3 13 -40 55 -81 92 -41 37 -75 73 -75 81 0 28 -22 13
-37 -25 l-15 -40 -24 28 c-25 30 -47 41 -136 65 -31 9 -60 21 -63 26 -10 15
-25 12 -33 -7z m1327 -2433 c444 -91 738 -367 846 -793 81 -323 38 -748 -124
-1204 -71 -199 -115 -301 -281 -643 -161 -332 -264 -567 -358 -815 -64 -171
-162 -467 -162 -491 0 -8 -4 -14 -9 -14 -5 0 -7 26 -4 58 3 31 0 104 -6 162
-22 199 -83 396 -195 620 -60 121 -184 330 -196 330 -3 0 -11 -38 -18 -84 -7
-45 -41 -186 -76 -312 -167 -595 -190 -735 -191 -1149 0 -359 20 -522 105
-850 74 -285 164 -527 295 -793 229 -466 551 -883 940 -1220 175 -151 153
-149 -54 6 -502 375 -882 834 -1141 1375 -365 763 -484 1675 -369 2837 22 227
57 498 93 722 l24 147 41 39 c36 34 41 44 41 83 0 26 -8 57 -20 77 -22 35 -24
50 -12 70 7 9 25 7 88 -10 64 -17 107 -21 229 -22 143 0 154 1 238 31 122 43
189 85 282 178 117 116 197 282 194 400 -1 35 -3 33 -10 -20 -12 -78 -24 -116
-65 -195 -84 -163 -225 -280 -410 -342 -59 -20 -89 -23 -214 -23 -109 0 -163
5 -218 19 -40 10 -75 22 -78 27 -8 13 83 67 140 84 27 8 74 15 104 15 53 0 54
1 48 25 -5 21 -2 25 33 35 21 5 58 26 82 45 26 21 55 35 72 35 34 0 34 10 2
48 l-25 30 24 6 c14 3 53 29 87 56 35 28 73 50 86 50 12 0 23 3 23 7 0 14 -34
43 -52 43 -23 0 -23 6 2 37 27 35 42 96 34 138 -7 40 -19 51 -37 37 -7 -6 -44
-20 -84 -30 -74 -21 -117 -44 -132 -71 -8 -12 -13 -7 -26 27 -10 23 -20 42
-24 42 -3 0 -12 -13 -19 -29 -7 -16 -37 -48 -67 -70 -30 -23 -63 -54 -72 -69
-9 -15 -18 -29 -19 -31 -2 -2 -15 6 -30 18 l-28 22 -14 -48 c-7 -26 -16 -63
-19 -80 -4 -27 -10 -33 -30 -33 -21 0 -24 4 -20 23 26 104 178 902 218 1137
27 162 53 298 57 302 32 32 322 31 481 -2z m-571 -72 c-27 -143 -139 -702
-142 -705 -2 -2 -19 10 -37 26 -93 85 -246 79 -327 -13 -36 -42 -44 -71 -9
-38 30 28 89 52 129 52 49 -1 112 -33 144 -75 36 -48 39 -124 5 -179 -64 -103
-200 -109 -308 -12 -124 112 -145 310 -54 502 87 185 286 368 501 460 106 46
109 46 98 -18z"/>
<path d="M3261 8484 c0 -11 3 -14 6 -6 3 7 2 16 -1 19 -3 4 -6 -2 -5 -13z"/>
<path d="M3375 6166 c-43 -19 -66 -49 -72 -95 -7 -51 11 -95 50 -123 34 -24
99 -29 135 -9 59 31 81 134 41 185 -41 52 -97 67 -154 42z"/>
<path d="M7870 6114 c-108 -17 -157 -31 -240 -71 -80 -39 -108 -59 -181 -132
-69 -69 -94 -103 -127 -171 -139 -284 -120 -620 78 -1436 79 -324 116 -491
135 -608 79 -492 -1 -908 -246 -1276 -74 -112 -278 -321 -384 -395 -89 -62
-103 -76 -40 -40 402 227 683 617 775 1077 74 369 46 688 -126 1417 -125 532
-149 683 -142 913 6 171 30 269 88 361 66 105 195 206 313 247 78 27 242 39
287 20 41 -17 114 -99 143 -163 52 -109 58 -202 27 -397 -40 -250 -28 -293
131 -489 36 -45 79 -106 94 -136 15 -30 29 -55 30 -55 11 0 200 361 225 427
44 122 57 237 37 341 -25 128 -75 222 -166 312 -89 88 -156 124 -364 194 -159
54 -265 72 -347 60z"/>
<path d="M3564 5955 c-83 -43 -86 -178 -4 -220 90 -46 190 14 190 114 0 88
-105 147 -186 106z"/>
<path d="M3263 5896 c-75 -34 -95 -137 -37 -197 55 -57 139 -56 188 2 20 24
26 42 26 80 0 42 -5 55 -33 85 -38 42 -93 53 -144 30z"/>
<path d="M4799 3627 c-40 -27 -66 -89 -55 -132 4 -15 22 -43 41 -62 29 -29 40
-33 83 -33 39 0 57 6 81 25 122 103 -17 291 -150 202z"/>
<path d="M5065 3537 c-61 -61 -53 -154 17 -197 134 -81 267 103 147 204 -24
20 -41 26 -81 26 -43 0 -54 -4 -83 -33z"/>
<path d="M4882 3316 c-34 -32 -37 -38 -37 -91 0 -53 3 -59 37 -91 30 -27 46
-34 78 -34 79 0 130 49 130 125 0 76 -51 125 -130 125 -32 0 -48 -7 -78 -34z"/>
</g>
</svg>
