<?xml version="1.0" standalone="no"?>
<!DOCTYPE svg PUBLIC "-//W3C//DTD SVG 20010904//EN"
 "http://www.w3.org/TR/2001/REC-SVG-20010904/DTD/svg10.dtd">
<svg version="1.0" xmlns="http://www.w3.org/2000/svg"
 width="1280.000000pt" height="1280.000000pt" viewBox="0 0 1280.000000 1280.000000"
 preserveAspectRatio="xMidYMid meet">
<metadata>
Created by potrace 1.15, written by Peter Selinger 2001-2017
</metadata>
<g transform="translate(0.000000,1280.000000) scale(0.100000,-0.100000)"
fill="#000000" stroke="none">
<path d="M200 12490 l0 -50 6150 0 6150 0 0 -4560 0 -4560 50 0 50 0 0 4610 0
4610 -6200 0 -6200 0 0 -50z"/>
<path d="M7455 12374 c-11 -3 -40 -13 -65 -22 -42 -16 -294 -17 -3612 -22
-2646 -4 -3570 -8 -3578 -16 -7 -7 -8 -14 -2 -18 5 -3 1104 -6 2442 -6 l2432
-1 80 -26 c64 -21 90 -36 129 -74 58 -57 88 -117 89 -177 0 -69 -26 -105 -91
-125 -27 -9 -75 19 -88 51 -26 63 29 114 85 78 13 -9 24 -12 24 -6 0 12 -53
40 -75 40 -27 0 -65 -46 -65 -80 0 -93 105 -147 178 -93 71 53 87 129 45 212
-30 61 -21 64 13 4 39 -65 45 -162 15 -221 -11 -22 -25 -44 -31 -47 -7 -4 -8
-24 -4 -53 l6 -47 -30 41 c-76 104 -221 90 -279 -26 -45 -87 -17 -189 64 -240
59 -38 103 -44 167 -26 102 30 194 141 204 248 5 51 22 57 22 7 0 -50 31 -170
60 -234 31 -69 76 -125 126 -156 19 -11 44 -40 56 -63 11 -22 42 -73 69 -111
29 -42 59 -103 74 -150 36 -110 79 -186 141 -250 62 -65 140 -105 203 -105 50
0 126 32 144 61 7 11 17 19 24 19 20 0 240 -86 270 -105 l28 -18 -41 -14
c-141 -47 -202 -211 -128 -344 81 -144 244 -186 424 -110 38 17 70 28 70 25 0
-15 -154 -76 -208 -82 -52 -6 -69 -13 -116 -52 -30 -25 -55 -48 -56 -51 0 -3
37 -22 83 -43 79 -35 84 -36 118 -22 52 22 154 100 240 183 66 64 78 72 89 58
7 -8 19 -15 26 -15 15 0 18 -18 8 -45 -6 -14 -8 -13 -21 5 -16 22 -62 27 -81
8 -19 -19 -14 -63 9 -83 17 -16 25 -17 49 -8 l29 11 -6 -87 c-4 -61 -1 -111
11 -168 22 -111 33 -133 90 -182 39 -34 54 -41 74 -36 39 10 55 33 63 92 4 30
10 57 13 60 3 3 27 -17 54 -45 55 -56 129 -106 212 -142 47 -21 71 -24 165
-25 108 0 113 1 186 37 141 70 219 184 219 322 0 82 -20 139 -75 208 -87 111
-233 153 -340 98 -60 -31 -76 -59 -20 -36 54 23 104 20 163 -10 61 -30 96 -69
130 -143 61 -132 10 -256 -137 -330 -164 -84 -412 27 -507 227 -38 80 -67 231
-61 317 5 64 43 212 52 203 2 -2 -3 -26 -11 -53 -21 -66 -30 -251 -16 -307 18
-70 65 -167 69 -143 16 78 25 96 56 111 77 40 149 107 174 160 13 30 29 56 34
59 5 4 18 24 29 46 18 35 20 55 18 216 -3 154 -1 183 15 218 61 135 298 256
550 279 83 8 88 -5 8 -21 -74 -14 -172 -61 -232 -113 -168 -144 -208 -391 -95
-585 62 -104 195 -201 311 -225 30 -6 55 -12 55 -13 0 -1 -9 -26 -20 -55 -35
-93 -22 -230 34 -340 51 -101 175 -208 298 -259 83 -34 231 -43 332 -19 90 21
208 84 293 155 177 148 264 349 250 575 -9 141 -42 228 -129 340 -21 28 -21
29 -3 22 199 -77 422 -28 537 118 39 49 42 51 124 67 243 49 420 145 580 311
159 165 244 365 244 572 0 191 -82 354 -247 491 -75 62 -199 126 -283 146 -87
21 -233 16 -315 -9 -201 -62 -381 -255 -430 -463 -41 -177 7 -371 124 -497
l46 -50 -51 -7 c-60 -7 -136 -41 -183 -81 -38 -32 -91 -109 -91 -133 0 -8 13
5 28 30 76 120 214 176 331 134 103 -36 162 -122 160 -234 l-2 -66 -8 61 c-13
101 -65 180 -137 211 -46 19 -140 18 -188 -2 -48 -20 -100 -68 -125 -117 -35
-68 -18 -215 26 -232 11 -4 11 1 -1 29 -49 118 49 264 176 265 20 0 56 -10 80
-22 57 -30 80 -74 80 -153 -1 -105 -55 -190 -155 -243 -45 -24 -60 -27 -155
-27 -99 0 -109 2 -173 34 -41 19 -93 57 -129 92 -33 32 -57 52 -54 43 5 -14 4
-15 -7 -5 -24 19 -68 128 -78 193 -25 156 46 379 183 567 84 116 85 120 10 45
l-70 -71 -4 66 c-6 82 -33 146 -88 205 -115 124 -304 136 -453 28 -26 -19 -45
-37 -42 -40 3 -3 15 4 28 16 12 11 49 33 81 48 76 35 187 38 257 7 142 -63
213 -223 162 -365 -9 -26 -27 -60 -39 -75 l-23 -28 18 50 c11 28 22 80 26 116
l7 66 -53 46 c-30 26 -57 47 -61 47 -3 0 -21 -25 -38 -56 -30 -51 -31 -58 -21
-99 17 -68 13 -174 -8 -220 -29 -64 -84 -113 -137 -121 -185 -27 -352 59 -431
225 -34 70 -37 84 -41 187 -5 128 8 187 66 299 39 74 163 209 219 238 20 11 2
-12 -56 -72 -141 -143 -200 -265 -208 -431 -4 -80 -2 -105 17 -159 68 -202
261 -315 444 -262 122 36 166 169 72 218 l-31 16 33 -31 c56 -52 39 -127 -40
-172 -36 -21 -56 -25 -123 -25 -98 0 -165 29 -238 102 -131 131 -151 327 -52
528 118 242 364 411 687 472 86 17 202 18 1568 18 l1475 0 0 -1495 c0 -1681 5
-1558 -76 -1767 -153 -391 -517 -617 -811 -504 -190 73 -290 307 -196 459 24
39 77 65 113 56 57 -14 83 -93 48 -144 l-17 -25 22 19 c24 21 37 73 28 111
-10 38 -62 67 -111 61 -39 -4 -39 -4 -15 9 33 19 118 19 191 0 l58 -15 56 35
c30 20 55 40 55 46 0 15 -79 97 -101 104 -28 9 -125 -12 -186 -39 -30 -14 -76
-48 -105 -78 -28 -29 -45 -42 -38 -28 24 44 105 116 165 146 51 25 72 29 140
29 64 0 89 -5 125 -23 61 -32 106 -77 138 -137 23 -43 27 -61 26 -135 -1 -92
-19 -147 -71 -218 l-27 -37 27 25 c15 13 42 53 59 87 63 129 46 268 -48 372
-63 70 -137 104 -226 105 l-69 1 76 70 c41 39 75 74 75 78 0 4 -42 -25 -92
-64 -107 -81 -283 -172 -378 -194 -80 -18 -189 -19 -255 -1 -57 15 -150 60
-161 77 -4 8 -3 9 4 5 24 -14 11 3 -41 57 -147 153 -167 373 -47 510 47 54 80
75 146 92 52 13 64 14 111 0 200 -58 110 -364 -100 -343 -23 3 -51 8 -62 12
-17 7 -17 5 3 -13 32 -28 96 -44 146 -35 187 31 268 248 145 388 -50 56 -111
81 -198 80 -39 0 -57 3 -45 7 42 17 138 9 189 -15 60 -28 87 -56 114 -116 59
-130 -17 -302 -163 -372 l-41 -19 35 5 c116 20 230 171 230 304 l0 31 52 -50
c121 -116 308 -170 472 -136 195 40 359 164 451 339 150 286 30 660 -276 858
-196 127 -469 115 -724 -31 -91 -51 -237 -185 -299 -273 -88 -123 -154 -288
-178 -443 -11 -67 -15 -76 -47 -100 -77 -56 -101 -87 -132 -168 -49 -125 -50
-259 -3 -378 5 -13 -13 -5 -59 26 -230 158 -546 136 -786 -53 -116 -92 -217
-251 -247 -389 -59 -279 65 -520 333 -648 61 -29 71 -38 64 -52 -26 -47 74
-79 158 -50 36 13 39 22 11 42 -18 12 -15 15 44 38 l64 26 6 -42 c16 -105 117
-245 227 -316 69 -44 157 -69 244 -69 224 0 408 151 461 376 20 90 28 95 19
14 -21 -199 -101 -408 -192 -502 -20 -20 -59 -47 -87 -59 -48 -20 -60 -21
-216 -15 -213 9 -226 3 -316 -129 -83 -122 -159 -175 -255 -175 -20 0 -29 -4
-23 -9 13 -13 134 -49 209 -62 78 -13 76 -29 -3 -29 -127 0 -241 49 -340 147
-86 85 -126 169 -130 280 -4 72 -1 89 23 140 83 183 275 223 412 86 67 -67 93
-154 70 -235 -13 -50 13 -31 40 28 46 101 19 209 -75 303 -80 79 -197 121
-286 101 -124 -28 -214 -102 -273 -226 -81 -171 -43 -366 102 -523 92 -99 192
-156 330 -186 41 -9 50 -13 30 -14 -50 -1 -131 25 -211 69 l-77 42 -63 -27
c-36 -15 -67 -31 -70 -36 -3 -5 10 -38 30 -72 25 -45 44 -67 70 -80 23 -11 36
-24 36 -36 0 -25 42 -58 91 -71 32 -9 39 -15 39 -35 0 -13 12 -37 26 -54 47
-56 131 -31 150 44 4 17 11 24 21 21 8 -3 24 -6 35 -6 17 0 14 -7 -21 -46 -51
-58 -107 -142 -127 -190 -15 -35 -14 -41 12 -113 15 -42 31 -80 35 -85 10 -11
57 30 92 79 12 16 25 52 28 80 6 46 6 44 8 -26 2 -121 54 -204 164 -261 59
-30 157 -30 213 -1 50 27 113 97 121 136 11 56 29 31 98 -146 l44 -112 -23
-25 c-89 -96 -83 -207 17 -316 78 -86 177 -143 310 -179 27 -8 63 -24 80 -38
18 -13 68 -45 113 -70 46 -27 85 -57 92 -71 46 -102 189 -173 392 -194 l75 -8
-50 -8 c-181 -28 -294 -141 -283 -286 5 -63 28 -104 85 -148 31 -23 46 -27
104 -27 60 0 71 3 106 31 100 80 97 201 -7 273 l-35 24 43 -7 c35 -5 49 -2 80
18 76 51 162 52 246 2 56 -32 61 -44 8 -17 -105 54 -205 24 -242 -73 -34 -92
87 -185 164 -125 32 25 36 77 8 102 -26 24 -46 21 -22 -3 22 -22 26 -60 8 -78
-7 -7 -29 -12 -49 -12 -29 0 -43 6 -58 26 -25 32 -26 55 -6 94 22 43 53 60
110 60 95 0 201 -84 246 -196 l24 -59 5 -865 c4 -760 7 -865 20 -865 13 0 16
228 20 1975 l6 1975 23 60 c20 53 23 72 18 165 -3 75 -10 121 -26 160 l-21 55
0 2301 c0 2090 -1 2302 -16 2308 -9 3 -1047 6 -2308 6 l-2292 0 -59 21 c-59
21 -214 35 -260 23z m-1895 -91 c0 -3 -6 -14 -14 -22 -23 -26 -28 -64 -12 -86
15 -19 15 -19 16 9 0 36 26 66 56 66 23 0 64 -42 64 -66 0 -25 -51 -73 -85
-80 -46 -8 -80 5 -215 81 -63 36 -131 70 -150 76 -74 24 -50 29 143 29 108 0
197 -3 197 -7z m1690 1 c0 -4 -21 -29 -46 -56 -69 -74 -98 -145 -102 -251 l-4
-88 -87 -58 c-166 -112 -274 -161 -353 -161 -21 0 -58 -10 -81 -22 -45 -22
-136 -30 -192 -15 l-30 8 29 -20 c42 -28 119 -44 185 -38 106 9 210 63 481
251 l55 38 -38 -35 c-128 -118 -350 -246 -465 -268 -163 -31 -341 70 -371 211
-23 107 33 226 122 259 39 15 121 14 161 -3 51 -21 103 -73 122 -121 30 -79
-2 -175 -75 -230 -39 -28 -35 -33 9 -10 91 47 126 179 75 282 -54 107 -183
158 -306 122 -123 -37 -197 -204 -153 -345 25 -81 113 -170 201 -204 l62 -24
-38 -41 c-76 -83 -93 -224 -38 -318 87 -149 250 -182 371 -76 41 37 87 104 86
126 -1 4 -10 -8 -20 -28 -77 -146 -248 -182 -358 -76 -55 52 -76 103 -76 177
0 73 18 115 68 168 41 45 77 62 124 62 37 0 40 -2 46 -34 10 -52 53 -92 122
-111 119 -35 160 -96 130 -199 -42 -142 -175 -228 -357 -230 -78 -1 -88 1
-117 26 -41 34 -95 52 -135 44 -39 -7 -118 36 -216 119 -74 63 -161 162 -161
185 0 9 14 21 33 28 84 30 157 134 157 221 -1 118 -104 212 -204 187 -36 -9
-93 -61 -101 -93 -6 -24 -12 -16 -65 85 -69 130 -139 237 -204 308 -25 29 -46
54 -46 57 0 4 19 -3 43 -13 142 -65 274 54 192 174 l-24 36 794 0 c437 0 795
-3 795 -6z m270 -4 c0 -5 -11 -10 -24 -10 -38 0 -158 -66 -201 -110 -39 -40
-39 -42 -21 -56 39 -28 103 -17 218 37 91 43 117 51 166 51 68 0 125 -21 207
-75 61 -40 155 -125 155 -139 0 -4 -12 -8 -26 -8 -15 0 -44 -5 -65 -11 -32
-10 -46 -9 -96 9 -63 23 -154 46 -218 56 -22 3 -62 17 -89 31 -27 14 -62 25
-78 25 -44 0 -100 -27 -133 -64 -16 -19 -50 -41 -75 -51 -25 -9 -51 -20 -59
-23 -11 -4 -12 4 -7 44 20 136 117 244 261 290 49 16 85 17 85 4z m1535 1 c-6
-5 -46 -23 -91 -40 -145 -56 -274 -145 -362 -251 -107 -130 -171 -315 -159
-464 3 -39 3 -64 0 -56 -3 8 -15 39 -25 68 -11 30 -33 69 -49 87 -21 23 -33
51 -39 88 -5 30 -18 74 -30 97 -30 58 -103 127 -150 141 -34 10 -47 24 -96
102 -31 49 -88 122 -126 161 -37 39 -68 72 -68 73 0 2 271 3 602 3 363 0 598
-4 593 -9z m-1382 -8 c-7 -2 -19 -2 -25 0 -7 3 -2 5 12 5 14 0 19 -2 13 -5z
m2762 -178 c200 -42 400 -208 472 -391 23 -60 27 -83 27 -179 0 -125 -17 -198
-70 -313 -118 -258 -381 -455 -678 -511 l-43 -8 5 106 c4 94 2 112 -17 157
-27 62 -78 113 -151 152 -110 58 -199 204 -222 361 -21 152 38 320 157 449 57
61 119 112 138 112 3 0 -1 -14 -10 -30 -17 -35 -11 -74 15 -104 58 -64 162
-23 162 64 0 46 -26 78 -74 91 -40 11 -40 12 -16 21 44 17 143 36 190 37 25 0
77 -6 115 -14z m-2967 -61 c-7 -6 -128 -33 -128 -28 0 2 12 10 28 18 25 14
112 23 100 10z m116 -99 c0 -5 -25 -13 -54 -18 -76 -11 -78 -20 -2 -11 l62 7
0 -27 c0 -21 -4 -25 -22 -23 -18 2 -24 -6 -36 -48 -20 -72 -24 -77 -68 -92
-68 -25 -158 3 -219 66 -23 25 -27 35 -19 48 17 27 139 83 211 98 76 15 149
15 147 0z m146 -10 l45 -14 -65 5 c-36 4 -69 10 -74 15 -16 14 44 10 94 -6z
m374 -47 c18 -29 46 -75 61 -103 l29 -50 -55 51 c-30 27 -82 70 -117 95 -58
40 -61 45 -40 50 13 4 38 7 56 8 28 1 36 -5 66 -51z m-366 12 c28 -7 52 -16
52 -22 0 -5 -8 -7 -17 -4 -35 9 -103 18 -103 12 0 -3 18 -15 40 -26 46 -23 46
-24 24 -76 -21 -49 -20 -167 1 -239 60 -206 312 -367 770 -489 174 -47 345
-105 310 -106 -5 0 -53 14 -105 31 -237 75 -532 57 -756 -47 -33 -15 -71 -33
-86 -40 -16 -7 -28 -11 -28 -9 0 3 39 25 88 49 76 38 143 62 292 104 26 7 29
10 12 11 -40 2 -171 -29 -253 -59 -43 -16 -79 -27 -79 -25 0 7 64 33 170 69
l96 32 -100 2 c-55 1 -129 -3 -164 -9 -73 -11 -97 -5 -31 8 42 8 62 27 37 36
-7 2 -4 2 7 0 11 -2 76 -6 145 -8 101 -4 117 -2 85 6 -166 44 -319 111 -385
169 -32 28 -30 28 25 -7 77 -47 194 -97 304 -128 84 -23 206 -47 197 -37 -3 2
-43 17 -90 33 -305 102 -447 248 -519 531 -13 51 -31 106 -39 122 -12 22 -13
38 -6 70 15 64 16 65 35 61 10 -2 42 -9 71 -15z m456 -11 c36 -28 82 -97 94
-142 11 -39 5 -45 -28 -27 -15 8 -110 168 -110 185 0 11 18 4 44 -16z m-2729
-183 c-24 -76 -74 -139 -136 -170 -29 -14 -66 -26 -81 -26 -95 0 -188 110
-163 192 14 45 46 86 79 102 117 56 231 -55 186 -181 l-10 -28 20 25 c11 14
20 39 20 56 0 20 14 52 35 84 20 29 41 73 48 99 l12 46 3 -74 c2 -48 -3 -92
-13 -125z m101 137 c27 -63 62 -183 54 -183 -14 0 -49 83 -63 153 -8 37 -13
67 -11 67 2 0 11 -17 20 -37z m2350 -14 c45 -25 87 -60 58 -48 -21 9 -124 71
-124 75 0 9 15 3 66 -27z m-648 -136 c46 -22 68 -27 126 -26 39 1 82 3 95 5
22 3 25 -2 37 -60 15 -74 64 -166 125 -237 l44 -50 -47 42 c-70 63 -130 72
-136 20 -4 -34 33 -95 92 -151 29 -27 34 -35 16 -26 -14 7 -54 40 -89 72 -70
66 -94 78 -151 78 -74 0 -134 -81 -116 -154 3 -14 18 -38 32 -56 15 -17 25
-32 23 -33 -2 -2 -17 -11 -32 -21 -42 -26 -67 -74 -67 -128 0 -59 12 -92 53
-139 18 -20 39 -48 48 -61 14 -20 28 -24 90 -28 l74 -5 -48 -29 c-26 -15 -87
-40 -135 -55 -151 -48 -176 -68 -242 -201 -24 -47 -58 -100 -77 -117 l-34 -33
25 0 c76 0 180 64 316 195 149 143 270 247 270 232 0 -8 -261 -260 -345 -332
-264 -227 -439 -272 -566 -145 -25 25 -48 57 -52 70 -5 21 -1 19 25 -13 82
-101 219 -107 306 -13 41 45 62 97 62 151 -1 77 -64 176 -145 230 -59 39 -215
101 -328 131 -57 15 -67 22 -65 38 3 17 10 19 78 17 130 -4 250 46 333 138 68
77 90 131 95 233 4 78 1 93 -23 145 -28 62 -79 121 -133 155 l-33 20 103 62
c57 34 141 89 187 122 l84 60 35 -38 c18 -20 59 -50 90 -65z m-1585 30 c39
-77 90 -203 85 -208 -2 -2 -31 59 -64 136 -34 76 -60 139 -58 139 2 0 19 -30
37 -67z m2192 -3 c11 0 15 -13 15 -49 0 -94 53 -167 143 -197 48 -16 127 -16
168 1 13 5 20 -3 29 -31 16 -47 172 -212 209 -220 14 -4 61 -29 104 -56 42
-27 155 -90 250 -139 187 -99 334 -193 411 -264 67 -61 52 -68 -21 -9 -160
131 -362 240 -558 301 -316 98 -403 129 -485 169 -247 120 -362 253 -364 423
-1 42 3 89 7 104 l8 28 35 -30 c19 -17 41 -31 49 -31z m203 -17 c38 -38 50
-52 28 -32 -23 19 -58 50 -79 67 -21 18 -33 32 -27 32 5 0 41 -30 78 -67z
m-2408 -29 c47 -114 46 -111 28 -96 -14 11 -45 85 -63 150 -13 46 4 19 35 -54z
m299 17 c31 -22 61 -85 61 -127 0 -62 -54 -140 -122 -175 -42 -21 -48 -23 -48
-10 0 5 10 11 23 15 27 6 87 63 87 81 0 8 -8 11 -20 8 -11 -3 -44 -2 -73 1
-49 6 -56 10 -75 45 -70 124 53 243 167 162z m2038 -12 c45 -22 173 -138 173
-157 0 -17 -77 -34 -119 -27 -83 14 -141 76 -141 151 0 62 15 68 87 33z
m-2258 -224 c0 -18 -1 -17 -14 5 -8 14 -14 36 -14 50 1 24 1 24 14 -5 8 -16
14 -39 14 -50z m91 -174 c-1 -13 -3 -13 -15 3 -19 26 -19 42 0 26 8 -7 15 -20
15 -29z m279 -272 c53 -37 59 -45 47 -57 -12 -12 -22 -9 -72 26 -77 52 -174
154 -174 182 0 19 11 12 69 -43 38 -36 97 -85 130 -108z m3086 144 c-26 -96
-31 -191 -15 -273 4 -25 8 -46 7 -46 -1 -1 -42 25 -92 58 -49 32 -153 93 -230
135 -155 83 -200 115 -125 87 114 -41 286 -26 394 35 65 37 70 37 61 4z
m-3118 -229 c39 -27 53 -43 57 -68 4 -18 16 -42 27 -52 l21 -19 -18 37 c-10
21 -15 40 -12 43 8 8 209 -88 205 -98 -6 -19 -71 -47 -107 -47 -87 1 -188 83
-254 209 -20 38 -36 72 -36 76 0 4 15 -4 33 -19 17 -15 55 -42 84 -62z m653
41 c0 -2 -10 -9 -22 -15 -22 -11 -22 -10 -4 4 21 17 26 19 26 11z m-450 -49
c47 -18 93 -36 103 -39 9 -4 17 -13 17 -22 0 -19 -25 -14 -130 26 -91 35 -105
43 -96 58 10 15 12 15 106 -23z m2611 -57 c108 -44 218 -107 309 -176 39 -30
74 -51 79 -48 5 2 16 -6 24 -18 l15 -24 -71 14 c-113 22 -198 1 -259 -64 -57
-60 -59 -123 -6 -168 63 -53 147 -15 148 67 0 28 -7 42 -31 62 -17 14 -40 26
-52 27 -19 1 -18 3 8 14 45 21 85 18 143 -11 74 -37 94 -70 99 -163 6 -105 8
-114 51 -165 20 -24 45 -56 55 -70 10 -14 30 -29 44 -32 39 -10 63 24 64 90 1
62 17 35 18 -30 2 -127 -89 -267 -191 -295 -60 -16 -92 -3 -96 38 -8 78 -94
108 -154 54 -28 -25 -33 -36 -33 -73 0 -54 22 -89 77 -126 36 -23 52 -27 117
-27 89 0 158 28 235 96 25 22 46 38 46 35 0 -3 -19 -38 -42 -77 -96 -161 -313
-309 -453 -309 -56 0 -137 30 -171 64 -62 62 -51 153 25 203 35 24 95 31 106
13 3 -6 -5 -10 -19 -10 -13 0 -38 -12 -55 -26 -25 -21 -31 -33 -31 -65 0 -75
54 -117 125 -98 68 19 96 109 55 177 -27 43 -98 76 -151 69 -63 -8 -108 -43
-136 -104 -20 -44 -24 -63 -18 -99 8 -54 56 -120 110 -152 l40 -24 -33 6 c-93
16 -229 112 -258 183 -20 48 -17 74 16 136 18 35 30 72 30 95 0 37 -5 46 -77
142 -18 23 -30 46 -28 50 3 5 20 12 38 15 53 12 125 53 168 96 169 169 107
463 -118 566 -68 31 -175 35 -241 8 -101 -41 -158 -173 -118 -270 19 -45 26
-44 16 2 -31 135 106 259 247 224 142 -36 227 -141 226 -281 -1 -110 -58 -198
-155 -240 -198 -85 -431 37 -499 262 -30 96 -22 167 26 265 20 41 39 72 41 70
3 -2 -5 -21 -17 -41 -26 -44 -19 -45 29 -6 22 17 60 34 92 41 34 7 70 24 95
44 93 76 184 105 315 102 83 -2 106 -7 181 -38z m2850 3 c75 -27 131 -63 208
-136 181 -172 249 -396 184 -608 l-16 -53 -9 32 c-4 17 -20 41 -34 52 -80 63
-191 -31 -143 -121 10 -19 9 -20 -11 -15 -31 8 -85 -16 -100 -43 -7 -12 -10
-37 -8 -54 4 -32 3 -32 -24 -18 -15 7 -38 11 -50 7 -17 -4 -13 3 17 27 103 85
158 176 177 292 38 229 -118 477 -343 547 -112 35 -252 21 -375 -37 -67 -32
-66 -40 2 -15 27 11 87 25 132 32 98 15 187 2 267 -37 71 -36 158 -125 197
-203 32 -63 33 -71 33 -181 0 -102 -3 -121 -25 -165 -37 -76 -123 -157 -195
-184 -106 -40 -218 -18 -291 57 -43 44 -57 89 -52 167 5 77 38 132 102 170 85
50 158 46 225 -11 63 -54 85 -104 78 -181 -2 -35 -3 -63 0 -63 2 0 11 16 19
35 19 47 17 122 -5 171 -79 173 -278 207 -425 73 -73 -66 -101 -130 -100 -229
0 -62 4 -86 27 -132 34 -70 100 -130 176 -160 77 -31 204 -31 279 0 l53 22
-15 -22 c-9 -12 -16 -35 -16 -51 0 -34 40 -77 72 -78 15 0 6 -7 -27 -19 -66
-24 -211 -26 -286 -4 -130 39 -236 117 -286 211 -57 106 -130 153 -247 160
-39 3 -91 0 -115 -5 l-44 -10 6 41 c16 110 93 292 173 403 129 181 336 318
536 354 77 13 214 4 279 -18z m-4163 -189 c-50 -55 -112 -146 -154 -226 -24
-45 -44 -78 -44 -74 0 4 6 20 14 35 7 15 17 38 20 52 6 22 2 20 -30 -15 -20
-22 -29 -29 -20 -15 21 32 20 46 -1 29 -10 -7 38 44 107 114 69 70 127 127
129 127 3 0 -7 -12 -21 -27z m-845 -7 c45 -21 81 -46 64 -46 -8 0 -127 62
-127 66 0 7 5 5 63 -20z m61 -141 c3 -13 16 -25 30 -29 14 -3 39 -18 56 -32
35 -30 35 -55 -1 -106 -47 -65 -127 -77 -184 -27 -43 38 -45 31 -5 -15 26 -29
27 -33 10 -29 -30 8 -87 77 -101 123 -17 55 -4 87 47 123 77 54 133 51 148 -8z
m3146 30 c0 -6 -76 -45 -87 -45 -4 1 12 12 37 25 50 27 50 27 50 20z m-173
-68 c-27 -5 -71 -6 -105 0 -53 8 -50 8 48 9 90 0 98 -2 57 -9z m-2477 -197
c-37 -74 -42 -79 -60 -68 -19 12 -19 13 9 43 15 16 40 47 56 68 15 20 29 37
31 37 2 0 -14 -36 -36 -80z m84 36 c-3 -15 -8 -25 -11 -23 -2 3 -1 17 3 31 3
15 8 25 11 23 2 -3 1 -17 -3 -31z m4687 -353 c-11 -16 -36 -46 -55 -68 l-35
-40 11 32 c9 24 9 38 0 57 -11 25 -11 26 26 26 20 0 44 5 52 10 23 15 23 12 1
-17z m-151 -138 c34 11 22 -2 -37 -39 -63 -39 -85 -46 -60 -18 10 10 17 33 17
51 l0 32 30 -16 c17 -9 40 -13 50 -10z m-2033 -392 c-70 -70 -102 -141 -101
-228 0 -78 16 -119 67 -172 51 -54 111 -53 162 3 52 56 18 154 -53 154 -32 0
-42 14 -42 58 0 74 98 185 190 215 61 20 153 22 201 5 l34 -13 -57 -6 c-32 -3
-69 -14 -83 -23 l-26 -17 25 -30 c14 -16 35 -47 47 -69 13 -22 26 -40 31 -40
4 0 19 -18 33 -40 30 -47 56 -60 184 -91 105 -26 118 -40 106 -111 -8 -45 -25
-61 -25 -23 0 36 -42 75 -80 75 -44 0 -70 -16 -86 -56 -12 -29 -12 -39 0 -68
47 -114 187 -74 241 69 18 45 17 131 -1 210 -7 27 -6 29 10 16 9 -8 14 -16 12
-19 -3 -2 16 -31 43 -63 102 -127 214 -349 233 -462 19 -118 -30 -287 -111
-379 -17 -20 -31 -47 -31 -61 0 -37 -18 -78 -47 -109 -35 -37 -23 -46 24 -18
l38 22 -25 -23 c-14 -12 -50 -34 -80 -48 -47 -22 -69 -26 -145 -26 -82 0 -97
3 -158 33 -80 39 -150 107 -192 183 -24 45 -30 68 -33 140 -3 50 1 101 7 121
22 67 68 126 123 157 46 27 63 31 128 31 58 0 87 -6 125 -24 93 -43 165 -153
165 -250 0 -126 -104 -219 -225 -202 l-40 5 35 -16 c86 -38 205 13 254 109 89
174 -29 401 -236 454 -182 47 -373 -68 -420 -253 -5 -24 -12 -43 -15 -43 -11
0 -53 27 -101 67 -68 55 -98 56 -192 7 l-70 -37 -44 17 c-79 30 -178 164 -201
271 l-7 30 17 -30 c86 -156 276 -167 352 -21 23 44 21 120 -3 153 -37 49 -72
68 -125 68 -62 0 -98 -32 -106 -93 -5 -37 -2 -45 30 -77 54 -54 113 -43 154
30 19 33 23 36 23 17 0 -72 -62 -132 -138 -132 -126 0 -183 156 -119 322 59
154 172 282 312 357 60 32 63 26 12 -26z m947 -307 c65 -80 167 -238 218 -341
113 -225 204 -365 312 -482 36 -39 66 -76 66 -82 0 -6 17 -30 39 -54 35 -39
39 -48 43 -112 10 -141 81 -218 200 -218 50 0 59 -3 64 -21 3 -12 17 -35 30
-53 l24 -31 -36 -12 c-22 -8 -65 -10 -106 -8 -97 7 -179 50 -256 133 -121 129
-200 302 -312 679 -65 220 -164 414 -297 579 -35 43 -63 80 -63 83 0 13 41
-20 74 -60z m402 12 c-89 -125 -117 -277 -77 -422 10 -37 15 -64 11 -59 -5 4
-50 82 -100 173 -51 91 -114 196 -141 235 -26 38 -47 71 -45 72 2 2 27 -2 57
-8 61 -13 172 -6 239 15 68 21 76 20 56 -6z m11 -144 c-29 -42 -32 -53 -35
-135 -4 -82 -2 -94 26 -153 42 -90 100 -149 188 -192 62 -31 86 -37 161 -41
109 -7 186 11 303 69 69 34 103 60 182 139 108 107 109 83 1 -31 -148 -158
-330 -229 -513 -202 -191 28 -328 156 -361 336 -17 93 -4 166 38 215 46 54 50
52 10 -5z m1100 -1190 c-2 -2 -35 27 -74 65 -39 37 -109 92 -156 122 -72 45
-88 61 -102 95 -34 89 -143 173 -244 188 -24 4 -63 20 -87 38 -23 17 -73 40
-110 52 l-68 22 120 0 c105 0 129 3 203 29 218 74 403 272 489 520 l27 80 3
-604 c1 -332 1 -606 -1 -607z m-1298 841 c16 -49 39 -128 51 -175 26 -106 91
-297 137 -404 78 -184 204 -332 320 -376 76 -30 219 -38 281 -17 l42 15 26
-44 c14 -24 28 -44 30 -44 3 0 9 10 14 23 8 20 9 19 9 -10 1 -29 -2 -33 -26
-34 -16 0 -37 -4 -48 -8 -13 -6 -32 -2 -55 9 -19 10 -71 25 -115 35 -96 20
-223 79 -294 135 -96 76 -183 220 -241 398 -30 93 -42 112 -34 56 21 -141 95
-354 166 -470 75 -125 235 -246 366 -276 41 -10 51 -16 45 -28 -4 -8 -9 -40
-11 -70 -5 -78 27 -160 90 -226 l49 -52 -74 -103 c-41 -57 -96 -142 -123 -188
-48 -83 -48 -83 -64 -60 -33 52 -97 112 -145 137 -44 23 -62 27 -145 27 -84 0
-101 -3 -153 -28 -150 -74 -249 -252 -235 -422 4 -50 3 -56 -14 -53 -14 2 -30
36 -68 149 -73 221 -112 285 -212 349 -54 36 -68 40 -122 40 -34 -1 -72 -7
-86 -15 -36 -21 -46 -18 -24 7 10 11 56 39 102 60 136 64 169 103 212 248 27
90 57 152 102 211 19 24 47 62 62 84 30 42 30 42 2 -19 -25 -54 -18 -90 17
-94 33 -4 33 -6 6 -43 -45 -64 -32 -144 31 -191 17 -12 30 -28 30 -35 0 -7 9
-22 20 -33 24 -24 71 -26 131 -4 24 8 76 18 114 21 69 6 70 6 123 62 80 83
100 144 67 201 -23 39 -18 50 19 50 38 0 70 25 62 47 -3 8 -6 19 -6 23 0 5
-37 49 -82 98 -46 49 -98 113 -116 144 -46 78 -99 212 -117 298 -17 83 -39
122 -31 55 3 -22 8 -78 11 -125 3 -47 14 -121 25 -165 22 -95 19 -112 -6 -26
-9 34 -20 61 -24 61 -4 0 -17 -39 -29 -86 -11 -47 -28 -98 -37 -112 -9 -16
-13 -19 -9 -7 39 122 68 338 57 415 l-7 45 -28 -92 c-27 -93 -126 -302 -153
-324 -8 -7 4 20 26 60 51 89 95 199 119 294 25 97 35 177 23 177 -5 0 -12 -24
-16 -54 -14 -123 -96 -322 -183 -443 -67 -95 -71 -86 -6 14 69 105 126 235
156 352 18 71 22 114 22 251 0 168 -12 239 -60 363 -8 20 -15 43 -15 50 0 24
20 -19 49 -108z m800 -440 c49 -24 130 -107 112 -113 -23 -8 -187 92 -194 118
-7 28 21 26 82 -5z m73 -151 c67 -43 68 -45 68 -86 0 -73 -13 -75 -55 -11 -21
32 -64 84 -94 117 -52 54 -53 57 -22 41 19 -9 65 -37 103 -61z m-250 -48 c28
-6 71 -66 83 -118 6 -25 4 -27 -29 -33 -27 -6 -47 -2 -83 16 -66 34 -86 65
-91 146 l-5 67 49 -36 c27 -19 61 -38 76 -42z m131 -40 c16 -23 17 -27 4 -17
-10 8 -28 28 -40 45 -16 23 -17 27 -4 17 10 -8 28 -28 40 -45z m317 -78 c33
-40 77 -107 98 -147 32 -66 37 -84 37 -145 -1 -63 -6 -82 -48 -172 -38 -83
-47 -111 -47 -157 0 -31 4 -59 10 -62 28 -17 117 82 145 162 28 80 36 93 29
48 -13 -95 -92 -210 -178 -260 -44 -26 -131 -49 -152 -41 -17 7 29 112 61 141
61 55 76 136 38 215 -12 25 -25 63 -28 85 -13 84 -36 177 -55 224 -19 48 -19
53 -3 116 9 36 20 65 24 65 5 0 36 -33 69 -72z m-241 -32 c43 -74 39 -83 -4
-12 -19 32 -35 60 -35 62 0 13 12 -3 39 -50z m-856 -91 c-3 -9 -8 -14 -10 -11
-3 3 -2 9 2 15 9 16 15 13 8 -4z m-53 -95 c-6 -11 -13 -20 -16 -20 -2 0 0 9 6
20 6 11 13 20 16 20 2 0 0 -9 -6 -20z m977 -12 c-3 -8 -6 -5 -6 6 -1 11 2 17
5 13 3 -3 4 -12 1 -19z m50 -75 c-3 -10 -5 -4 -5 12 0 17 2 24 5 18 2 -7 2
-21 0 -30z m350 -15 c-3 -8 -6 -5 -6 6 -1 11 2 17 5 13 3 -3 4 -12 1 -19z
m-384 -108 c-3 -72 10 -65 21 13 8 53 26 64 26 15 -1 -103 -50 -254 -104 -323
-15 -20 -17 -19 -60 26 -65 67 -84 158 -48 228 14 28 27 37 72 50 32 10 56 23
56 31 1 8 2 19 3 23 0 5 9 7 19 5 14 -3 17 -14 15 -68z m144 -100 c-4 -32 -35
-96 -42 -88 -1 2 4 38 13 81 12 60 18 75 25 62 5 -10 7 -34 4 -55z m-1538
-101 c-163 -177 -203 -240 -215 -336 -4 -29 -16 -58 -29 -73 -36 -40 -47 -68
-47 -124 -1 -64 27 -121 79 -166 l38 -32 -45 25 c-68 37 -103 93 -108 173 -7
110 25 194 127 331 63 86 257 293 273 293 6 0 -27 -41 -73 -91z m-194 -17 c-6
-4 -27 -23 -48 -42 -31 -29 -39 -32 -47 -20 -7 12 2 21 43 42 54 28 68 34 52
20z m-151 -107 c10 -8 9 -14 -6 -29 -18 -19 -18 -19 -18 7 0 14 -7 32 -15 41
-13 13 -13 15 3 18 9 2 18 -3 20 -12 2 -8 9 -19 16 -25z m2126 -745 l0 -789
-36 24 c-67 45 -142 25 -175 -48 -24 -53 -24 -75 0 -136 l19 -50 -67 53 c-88
71 -217 154 -320 206 l-84 42 37 22 c51 30 76 72 76 124 0 68 -48 137 -113
161 -40 15 -111 14 -152 -3 -51 -22 -121 -92 -142 -142 -10 -24 -20 -44 -23
-44 -34 0 -188 154 -257 259 -51 75 -56 88 -54 130 2 54 -11 96 -41 128 -28
30 -38 95 -27 177 13 95 51 176 109 230 66 61 105 80 172 80 52 1 60 -2 92
-33 24 -23 43 -56 57 -100 24 -72 73 -131 108 -131 19 0 21 -6 21 -53 0 -69
-37 -124 -105 -157 -112 -54 -228 -28 -306 70 -71 89 -59 201 31 291 27 27 44
49 38 49 -23 0 -113 -105 -126 -146 -35 -118 21 -239 140 -300 81 -42 216 -24
300 40 l45 35 23 -55 c30 -74 106 -155 172 -185 138 -61 313 -6 369 116 23 50
25 152 4 202 -39 92 -124 153 -215 153 -100 0 -197 -77 -206 -162 l-5 -43 20
49 c32 78 77 117 152 131 133 25 266 -129 229 -265 -43 -159 -261 -206 -384
-84 -28 29 -81 122 -73 130 2 3 10 -9 17 -25 7 -17 18 -35 26 -42 11 -9 11 -5
4 23 -16 55 -11 139 11 188 11 25 22 68 24 97 6 74 50 173 141 311 l79 120 45
-5 c90 -10 234 44 301 113 18 19 37 34 41 34 4 0 8 -355 8 -790z m-487 558
c-5 -7 -37 -56 -71 -108 -54 -82 -129 -222 -145 -270 -2 -8 -3 -1 -1 15 6 47
88 202 154 293 34 45 64 82 66 82 3 0 1 -6 -3 -12z m-1650 -13 c-3 -9 -8 -14
-10 -11 -3 3 -2 9 2 15 9 16 15 13 8 -4z m-27 -71 c-8 -21 -15 -34 -15 -28 -1
15 20 76 25 71 2 -2 -2 -21 -10 -43z m332 -37 c11 -12 24 -32 29 -44 4 -12 24
-32 43 -46 28 -19 34 -29 32 -52 -8 -70 -70 -145 -121 -145 -40 1 -104 34
-134 69 -33 39 -36 62 -4 34 34 -31 54 -39 31 -12 -48 54 -57 105 -26 150 45
69 110 89 150 46z m920 -6 c20 -10 48 -32 62 -47 l25 -28 -40 31 c-22 16 -53
37 -70 46 -16 9 -26 16 -22 17 4 0 24 -9 45 -19z m-298 -15 c0 -2 -8 -10 -17
-17 -16 -13 -17 -12 -4 4 13 16 21 21 21 13z m-437 -93 c26 -51 28 -79 3 -33
-14 25 -25 48 -26 53 0 15 10 6 23 -20z m255 -461 c47 -123 46 -122 30 -122
-16 0 -27 20 -64 119 -27 72 -30 91 -11 91 6 0 27 -40 45 -88z m-117 31 c5
-16 25 -59 43 -98 18 -38 31 -73 29 -77 -2 -4 -20 -1 -40 7 -36 15 -36 15 -18
-5 10 -11 33 -22 51 -26 23 -4 40 -17 57 -42 13 -21 41 -57 61 -81 20 -24 35
-46 32 -48 -11 -11 -152 75 -200 122 -85 84 -108 177 -61 249 22 33 34 33 46
-1z m217 -221 c17 -27 65 -84 107 -127 41 -43 73 -80 71 -82 -9 -10 -66 23
-104 60 -54 52 -132 159 -132 181 0 31 27 16 58 -32z m632 -111 c73 -38 99
-115 60 -179 -32 -53 -98 -67 -164 -35 -29 13 -37 24 -46 65 -7 27 -10 62 -8
78 3 17 1 30 -3 30 -16 0 -67 -51 -79 -80 -7 -16 -16 -30 -21 -30 -5 0 -2 17
6 38 44 105 168 160 255 113z m-329 -181 c14 -11 18 -19 11 -20 -15 0 -72 28
-72 35 0 13 40 3 61 -15z m371 -127 c54 -26 97 -48 95 -49 -3 -4 -229 95 -237
103 -12 13 53 -12 142 -54z m-172 31 l35 -14 -39 5 c-22 2 -44 9 -50 15 -14
14 11 12 54 -6z m165 -65 c42 -17 74 -33 72 -35 -8 -8 -150 45 -166 61 -19 21
-19 21 94 -26z m573 -21 c6 -6 12 -25 12 -44 0 -37 -21 -54 -66 -54 -21 0 -25
-3 -16 -12 19 -19 70 -13 97 12 l25 23 0 -203 c0 -112 -2 -201 -4 -199 -2 2
-15 31 -29 64 -14 34 -47 99 -74 145 -89 155 -100 212 -50 257 37 34 71 37
105 11z m-497 -47 c79 -26 154 -60 137 -61 -13 0 -144 31 -170 41 -23 9 -69
49 -56 49 2 0 43 -13 89 -29z m144 -121 c29 -1 0 -16 -47 -24 -20 -4 -60 -22
-89 -41 -28 -19 -62 -35 -75 -35 -28 0 -74 -20 -74 -32 0 -5 9 -4 19 2 31 16
93 12 128 -10 96 -58 80 -199 -29 -244 -62 -26 -110 -16 -159 33 -73 73 -71
164 7 250 62 69 179 116 264 105 19 -2 44 -4 55 -4z"/>
<path d="M10275 12055 c-52 -51 -16 -145 55 -145 39 0 90 47 90 83 0 14 -12
39 -26 56 -33 40 -83 43 -119 6z"/>
<path d="M10472 12020 c-32 -30 -30 -82 4 -109 15 -12 34 -21 44 -21 10 0 29
9 44 21 35 27 37 90 4 113 -31 22 -70 20 -96 -4z"/>
<path d="M10632 11944 c-45 -31 -19 -104 37 -104 53 0 75 57 37 95 -29 29 -43
31 -74 9z"/>
<path d="M9942 11920 c-27 -11 -51 -62 -44 -95 7 -36 48 -69 87 -69 l34 0 -20
-28 c-29 -40 -36 -41 -43 -8 -8 43 -61 68 -102 49 -33 -16 -50 -55 -40 -93 8
-34 66 -62 96 -46 29 15 30 13 14 -27 -9 -20 -18 -69 -21 -109 -12 -149 59
-279 185 -341 49 -24 69 -28 142 -28 75 0 91 4 139 30 177 98 220 326 83 446
-57 51 -115 72 -182 67 -52 -4 -119 -32 -107 -45 3 -3 22 0 42 7 102 34 238
-53 252 -160 18 -135 -113 -265 -248 -247 -66 9 -129 54 -161 116 -77 147 7
348 179 429 51 24 70 27 158 27 91 -1 106 -4 167 -32 118 -55 210 -160 243
-277 22 -75 16 -203 -13 -293 -26 -81 -12 -72 23 14 37 91 45 225 20 319 -32
120 -143 252 -258 309 -83 40 -195 59 -275 47 -85 -13 -173 -46 -214 -80 -27
-23 -31 -24 -23 -7 15 34 10 85 -11 105 -23 24 -71 33 -102 20z"/>
<path d="M10740 11835 c-14 -17 -5 -51 16 -59 20 -8 54 11 54 29 0 43 -43 62
-70 30z"/>
<path d="M10831 11750 c-18 -11 -9 -44 13 -48 21 -4 37 14 29 34 -6 17 -27 24
-42 14z"/>
<path d="M10873 11644 c-7 -19 2 -28 22 -21 19 8 19 23 0 31 -9 3 -18 -1 -22
-10z"/>
<path d="M9784 11595 c-34 -52 22 -114 79 -88 32 15 43 58 22 89 -22 34 -78
34 -101 -1z"/>
<path d="M9800 11460 c-25 -25 -26 -52 -2 -73 37 -34 92 -11 92 38 0 24 -33
55 -57 55 -7 0 -22 -9 -33 -20z"/>
<path d="M9842 11338 c-27 -27 -6 -68 35 -68 28 0 43 28 32 58 -9 24 -47 30
-67 10z"/>
<path d="M9902 11248 c-25 -25 0 -64 32 -52 21 8 21 50 0 58 -20 8 -18 8 -32
-6z"/>
<path d="M9955 11180 c-8 -14 3 -30 21 -30 8 0 14 9 14 20 0 21 -24 28 -35 10z"/>
<path d="M10010 11130 c0 -5 5 -10 10 -10 6 0 10 5 10 10 0 6 -4 10 -10 10 -5
0 -10 -4 -10 -10z"/>
<path d="M8268 11043 c6 -2 18 -2 25 0 6 3 1 5 -13 5 -14 0 -19 -2 -12 -5z"/>
<path d="M11680 10825 c0 -10 7 -15 18 -13 21 4 19 22 -2 26 -10 2 -16 -3 -16
-13z"/>
<path d="M11764 10795 c-4 -9 -2 -21 4 -27 16 -16 47 -5 47 17 0 26 -42 34
-51 10z"/>
<path d="M11852 10738 c-23 -23 -7 -68 24 -68 14 0 44 27 44 40 0 13 -30 40
-44 40 -6 0 -17 -5 -24 -12z"/>
<path d="M11917 10642 c-24 -27 -21 -58 9 -81 33 -26 49 -26 74 -1 24 24 26
63 4 84 -21 22 -67 20 -87 -2z"/>
<path d="M11977 10513 c-8 -10 -19 -30 -22 -45 -6 -22 -1 -33 23 -58 37 -36
62 -38 98 -7 33 28 37 76 9 107 -23 26 -85 27 -108 3z"/>
<path d="M12022 10350 c-12 -5 -30 -26 -39 -45 -17 -35 -17 -38 2 -73 37 -69
121 -67 151 3 12 31 12 39 0 70 -20 48 -64 65 -114 45z"/>
<path d="M11180 9960 c0 -5 5 -10 10 -10 6 0 10 5 10 10 0 6 -4 10 -10 10 -5
0 -10 -4 -10 -10z"/>
<path d="M11215 9920 c-8 -14 3 -30 21 -30 8 0 14 9 14 20 0 21 -24 28 -35 10z"/>
<path d="M11264 9875 c-8 -21 2 -45 19 -45 8 0 20 7 27 15 10 12 10 18 0 30
-7 8 -19 15 -27 15 -7 0 -16 -7 -19 -15z"/>
<path d="M11340 9835 c-26 -32 13 -81 48 -59 34 22 22 74 -18 74 -10 0 -23 -7
-30 -15z"/>
<path d="M11580 9810 c-24 -24 -25 -48 -4 -78 32 -46 114 -17 114 40 0 26 -36
58 -65 58 -14 0 -34 -9 -45 -20z"/>
<path d="M11440 9801 c-23 -43 1 -81 50 -81 29 0 50 22 50 54 0 42 -80 64
-100 27z"/>
<path d="M11770 11728 c-91 -83 -304 -282 -474 -442 -170 -160 -348 -322 -395
-360 -239 -193 -530 -335 -759 -370 l-77 -12 -8 -69 c-12 -114 -45 -223 -103
-345 -107 -223 -253 -411 -524 -674 -251 -242 -455 -394 -611 -454 l-69 -27 2
-145 3 -145 28 -3 c18 -2 32 -13 42 -32 37 -72 125 -67 197 11 13 14 52 83 87
154 75 151 114 214 187 307 167 208 550 576 562 539 8 -24 53 -8 192 69 153
84 264 129 383 156 65 15 77 22 122 68 47 49 52 58 77 158 18 75 48 151 97
254 39 81 75 163 81 183 14 51 104 197 181 293 37 46 124 144 194 218 562 595
769 820 752 820 -2 0 -77 -68 -167 -152z"/>
<path d="M9780 10955 c-72 -33 -110 -87 -110 -158 0 -54 26 -91 75 -107 44
-15 97 1 119 35 18 27 22 95 6 95 -5 0 -10 -9 -10 -20 0 -26 -43 -70 -68 -70
-11 0 -31 9 -46 21 -49 38 -23 142 44 176 30 15 89 17 124 3 31 -11 34 0 6 18
-34 21 -101 24 -140 7z"/>
<path d="M7045 9995 c-25 -24 -32 -65 -19 -100 8 -20 56 -45 87 -45 36 0 77
46 77 85 0 74 -93 112 -145 60z"/>
<path d="M10990 9862 c17 -33 15 -104 -4 -141 -17 -31 -80 -71 -114 -71 -35 0
-72 38 -72 74 0 37 23 63 66 75 l29 8 -26 12 c-21 10 -32 10 -63 -3 -49 -21
-71 -70 -56 -127 30 -109 192 -103 257 9 32 54 29 131 -7 165 l-22 22 12 -23z"/>
</g>
</svg>
