<!DOCTYPE svg PUBLIC "-//W3C//DTD SVG 1.1//EN" "http://www.w3.org/Graphics/SVG/1.1/DTD/svg11.dtd">
<!-- Uploaded to: SVG Repo, www.svgrepo.com, Transformed by: SVG Repo Mixer Tools -->
<svg fill="#cfae7a" version="1.1" id="Capa_1" xmlns="http://www.w3.org/2000/svg" xmlns:xlink="http://www.w3.org/1999/xlink" width="100px" height="100px" viewBox="0 0 212.219 212.219" xml:space="preserve" transform="rotate(45)" stroke="#cfae7a" stroke-width="3.1832849999999997">
<g id="SVGRepo_bgCarrier" stroke-width="0"/>
<g id="SVGRepo_tracerCarrier" stroke-linecap="round" stroke-linejoin="round" stroke="#333" stroke-width="5.5176940000000005"> <g> <g> <path d="M16.418,154.694c12.774,1.935,20.163-7.341,28.711-18.12c1.912-2.415,3.752-4.999,5.616-7.604 c1.2-1.688,2.407-3.354,3.644-5.01c0.034-0.042,0.066-0.073,0.098-0.115c0.016-0.011,0.016-0.048,0.032-0.069 c6.734-8.996,14.401-16.964,27.118-16.964c0.035,0,0.066,0,0.098,0c6.184,0.021,11.773,2.479,15.752,6.929 c2.9,3.243,4.683,7.404,5.445,11.897c-1.189-1.065-2.616-1.931-4.311-2.521c-5.437-1.866-11.377,1.034-13.244,6.486 c-1.561,4.588,0.891,9.577,5.447,11.138c0.794,0.274,1.614,0.406,2.437,0.406c1.112,0,2.226-0.259,3.256-0.765 c1.788-0.865,3.125-2.384,3.773-4.271c0.557-1.613,0.448-3.354-0.306-4.883c-0.751-1.529-2.054-2.68-3.668-3.238 c-0.923-0.316-1.875,0.042-2.42,0.791c-0.005,0-0.016,0-0.026,0.011c-1.107,0.706-1.432,2.167-0.728,3.264 c0.604,0.949,1.769,1.282,2.792,0.918c0.037,0.068,0.129,0.079,0.166,0.143c0.242,0.495,0.282,1.055,0.103,1.582 c-0.277,0.791-0.838,1.439-1.587,1.793c-0.752,0.363-1.593,0.422-2.392,0.142c-2.318-0.785-3.555-3.316-2.761-5.647 c1.092-3.185,4.575-4.883,7.754-3.792c5.245,1.804,5.674,6.503,5.055,10.278c-1.215,3.575-3.38,6.75-6.399,9.165 c-4.184,3.365-9.439,4.884-14.757,4.324c-8.575-0.949-14.792-8.669-13.856-17.244c0.728-6.623,6.711-11.411,13.326-10.705 c1.179,0.18,2.252-0.717,2.376-1.908c0.129-1.182-0.728-2.252-1.912-2.373c-8.975-1.002-17.102,5.537-18.085,14.522 c-1.192,10.938,6.739,20.81,17.682,22.001c0.902,0.105,1.798,0.147,2.695,0.147c5.535,0,10.863-1.866,15.238-5.39 c2.215-1.771,3.984-3.929,5.432-6.265v10.441c0,1.192,0.968,2.162,2.162,2.162c1.191,0,2.162-0.98,2.162-2.162v-10.262 c1.429,2.268,3.158,4.371,5.305,6.096c4.388,3.522,9.703,5.39,15.24,5.39c0.896,0,1.793-0.053,2.695-0.143 c10.942-1.207,18.873-11.063,17.676-22.006c-0.985-8.986-9.106-15.53-18.088-14.523c-1.187,0.121-2.04,1.203-1.908,2.373 c0.121,1.192,1.213,2.1,2.367,1.909c6.629-0.738,12.599,4.093,13.326,10.705c0.944,8.575-5.278,16.306-13.848,17.239 c-5.337,0.564-10.579-0.955-14.761-4.319c-3.401-2.731-5.706-6.429-6.781-10.578c-0.274-3.476,0.611-7.288,5.21-8.876 c3.18-1.091,6.665,0.607,7.768,3.781c0.786,2.342-0.448,4.862-2.779,5.664c-0.785,0.285-1.629,0.222-2.378-0.147 c-0.754-0.354-1.313-1.002-1.582-1.793c-0.18-0.517-0.147-1.087,0.095-1.582c0.031-0.074,0.127-0.085,0.169-0.143 c1.013,0.364,2.188,0.031,2.789-0.918c0.712-1.097,0.38-2.567-0.728-3.264c-0.011-0.011-0.021-0.011-0.026-0.011 c-0.543-0.754-1.503-1.107-2.415-0.791c-1.613,0.559-2.916,1.698-3.665,3.238c-0.749,1.539-0.859,3.27-0.301,4.883 c0.648,1.888,1.978,3.406,3.766,4.271c1.033,0.506,2.146,0.765,3.264,0.765c0.817,0,1.635-0.132,2.426-0.406 c4.562-1.55,7.014-6.55,5.458-11.143c-1.872-5.427-7.814-8.332-13.252-6.466c-1.556,0.533-2.905,1.298-4.034,2.247 c0.791-4.393,2.553-8.453,5.395-11.628c3.977-4.451,9.571-6.908,15.752-6.93c0.032,0,0.063,0,0.105,0 c12.709,0,20.382,7.974,27.116,16.971c0.011,0.021,0.016,0.053,0.026,0.062c0.031,0.043,0.074,0.074,0.105,0.111 c1.234,1.655,2.447,3.327,3.644,5.01c1.862,2.61,3.702,5.205,5.616,7.604c8.549,10.779,15.916,20.071,28.704,18.125 c5.12-0.785,9.624-3.575,12.688-7.857c3.127-4.377,4.366-9.914,3.412-15.203c-1.588-8.864-10.099-14.781-18.953-13.188 c-1.187,0.211-1.956,1.339-1.745,2.51s1.334,1.946,2.505,1.74c6.544-1.165,12.772,3.196,13.942,9.703 c0.749,4.166-0.227,8.506-2.684,11.939c-2.362,3.333-5.859,5.495-9.819,6.096c-9.798,1.492-15.482-4.968-24.664-16.537 c-1.229-1.529-2.389-3.201-3.57-4.841c0.011,0,0.021,0.01,0.032,0.01c1.698,0,3.422-0.464,5.104-1.413 c4.287-2.415,5.822-7.878,3.406-12.187c-2.046-3.639-6.681-4.937-10.336-2.885c-1.513,0.849-2.604,2.23-3.068,3.913 c-0.47,1.688-0.254,3.448,0.601,4.946c0.738,1.318,1.94,2.257,3.386,2.668c1.424,0.391,2.922,0.211,4.219-0.495 c-0.121,0.073-0.195,0.194-0.332,0.274c-3.744,2.119-6.697-0.111-8.585-2.437c-7.22-9.683-15.974-18.935-30.766-18.935 c-0.037,0-0.074,0-0.11,0c-7.42,0.021-14.154,2.992-18.953,8.366c-1.229,1.366-2.272,2.869-3.186,4.462v-7.879 c4.746-0.506,9.145-2.61,12.524-6.228c3.818-4.089,5.891-9.49,5.844-15.201l-0.063-6.893c-0.006-0.722-0.38-1.397-0.981-1.787 c-0.611-0.398-1.376-0.464-2.035-0.167c-0.174,0.082-17.666,7.56-28.403,0.33c-0.989-0.664-2.333-0.406-2.998,0.583 c-0.667,0.988-0.404,2.333,0.585,2.998c9.848,6.642,23.538,3.211,29.55,1.181l0.031,3.797c0.037,4.612-1.618,8.944-4.683,12.222 c-3.026,3.246-7.066,5.049-11.367,5.081c-9.001,0.021-16.266-7.555-16.35-17.028l-0.153-18.035 c-0.01-1.102,0.515-2.191,1.551-3.251c2.911-2.964,8.931-4.838,15.726-4.886c3.817-0.026,7.53,0.733,10.172,2.088 c2.215,1.134,3.491,2.555,3.502,3.895c0.011,1.453-6.35,5.234-13.405,5.287c-5.442,0.037-9.951-1.313-10.434-2.067 c0.164-0.907,3.317-3.733,9.69-3.399c3,0.114,5.432,0.915,6.507,2.133c0.786,0.901,2.157,0.988,3.048,0.2 c0.892-0.788,0.986-2.149,0.19-3.045c-1.888-2.154-5.284-3.436-9.574-3.602c-5.033-0.216-9.605,1.205-12.258,3.771 c-1.269,1.231-1.933,2.592-1.917,3.942c0.005,0.775,0.242,1.927,1.355,3.021c2.586,2.55,8.915,3.415,13.432,3.364 c7.074-0.058,17.731-3.937,17.679-9.643c-0.021-3.034-2.099-5.779-5.849-7.701c-3.29-1.686-7.472-2.474-12.179-2.566 c-8.013,0.066-15.026,2.371-18.768,6.178c-1.843,1.88-2.808,4.061-2.787,6.312l0.15,18.043 c0.098,11.005,8.15,19.923,18.349,21.073v8.068c-0.939-1.672-2.036-3.232-3.304-4.641c-4.807-5.374-11.536-8.345-18.956-8.366 c-0.037,0-0.074,0-0.114,0c-14.778,0-23.532,9.241-30.747,18.913c-1.88,2.352-4.843,4.566-8.596,2.457 c-0.129-0.073-0.206-0.189-0.324-0.273c1.294,0.706,2.787,0.886,4.211,0.495c1.448-0.411,2.652-1.35,3.385-2.657 c0.86-1.509,1.071-3.27,0.602-4.957c-0.464-1.678-1.561-3.059-3.069-3.913c-3.649-2.046-8.287-0.755-10.333,2.884 c-2.416,4.309-0.886,9.772,3.406,12.188c1.68,0.949,3.401,1.413,5.102,1.413c0.011,0,0.021-0.011,0.035-0.011 c-1.179,1.646-2.35,3.296-3.57,4.842c-9.181,11.58-14.85,18.035-24.675,16.537c-3.958-0.602-7.44-2.764-9.816-6.096 c-2.452-3.428-3.428-7.773-2.684-11.939c1.168-6.508,7.399-10.858,13.943-9.703c1.139,0.205,2.297-0.569,2.508-1.74 c0.208-1.171-0.567-2.299-1.746-2.51c-8.873-1.593-17.366,4.334-18.953,13.188c-0.957,5.289,0.29,10.831,3.412,15.203 C6.794,151.118,11.297,153.913,16.418,154.694z M168.203,119.815c-0.316,0.163-0.664,0.211-1.002,0.11 c-0.332-0.1-0.606-0.311-0.78-0.622c-0.285-0.506-0.358-1.092-0.2-1.672c0.158-0.559,0.517-1.012,1.012-1.303 c1.582-0.886,3.576-0.321,4.456,1.24c1.019,1.793,0.639,3.934-0.69,5.379c0.475-0.665,0.569-1.572,0.143-2.331 C170.55,119.594,169.227,119.225,168.203,119.815z M41.219,122.948c-1.329-1.43-1.695-3.576-0.691-5.369 c0.881-1.571,2.879-2.136,4.456-1.239c0.501,0.28,0.868,0.744,1.021,1.292c0.156,0.564,0.084,1.166-0.206,1.672 c-0.174,0.312-0.448,0.533-0.789,0.622c-0.334,0.101-0.691,0.053-0.994-0.11c-1.047-0.591-2.36-0.222-2.943,0.817 C40.652,121.387,40.744,122.294,41.219,122.948z"/> </g> </g> </g>
<g id="SVGRepo_iconCarrier"> <g> <g> <path d="M16.418,154.694c12.774,1.935,20.163-7.341,28.711-18.12c1.912-2.415,3.752-4.999,5.616-7.604 c1.2-1.688,2.407-3.354,3.644-5.01c0.034-0.042,0.066-0.073,0.098-0.115c0.016-0.011,0.016-0.048,0.032-0.069 c6.734-8.996,14.401-16.964,27.118-16.964c0.035,0,0.066,0,0.098,0c6.184,0.021,11.773,2.479,15.752,6.929 c2.9,3.243,4.683,7.404,5.445,11.897c-1.189-1.065-2.616-1.931-4.311-2.521c-5.437-1.866-11.377,1.034-13.244,6.486 c-1.561,4.588,0.891,9.577,5.447,11.138c0.794,0.274,1.614,0.406,2.437,0.406c1.112,0,2.226-0.259,3.256-0.765 c1.788-0.865,3.125-2.384,3.773-4.271c0.557-1.613,0.448-3.354-0.306-4.883c-0.751-1.529-2.054-2.68-3.668-3.238 c-0.923-0.316-1.875,0.042-2.42,0.791c-0.005,0-0.016,0-0.026,0.011c-1.107,0.706-1.432,2.167-0.728,3.264 c0.604,0.949,1.769,1.282,2.792,0.918c0.037,0.068,0.129,0.079,0.166,0.143c0.242,0.495,0.282,1.055,0.103,1.582 c-0.277,0.791-0.838,1.439-1.587,1.793c-0.752,0.363-1.593,0.422-2.392,0.142c-2.318-0.785-3.555-3.316-2.761-5.647 c1.092-3.185,4.575-4.883,7.754-3.792c5.245,1.804,5.674,6.503,5.055,10.278c-1.215,3.575-3.38,6.75-6.399,9.165 c-4.184,3.365-9.439,4.884-14.757,4.324c-8.575-0.949-14.792-8.669-13.856-17.244c0.728-6.623,6.711-11.411,13.326-10.705 c1.179,0.18,2.252-0.717,2.376-1.908c0.129-1.182-0.728-2.252-1.912-2.373c-8.975-1.002-17.102,5.537-18.085,14.522 c-1.192,10.938,6.739,20.81,17.682,22.001c0.902,0.105,1.798,0.147,2.695,0.147c5.535,0,10.863-1.866,15.238-5.39 c2.215-1.771,3.984-3.929,5.432-6.265v10.441c0,1.192,0.968,2.162,2.162,2.162c1.191,0,2.162-0.98,2.162-2.162v-10.262 c1.429,2.268,3.158,4.371,5.305,6.096c4.388,3.522,9.703,5.39,15.24,5.39c0.896,0,1.793-0.053,2.695-0.143 c10.942-1.207,18.873-11.063,17.676-22.006c-0.985-8.986-9.106-15.53-18.088-14.523c-1.187,0.121-2.04,1.203-1.908,2.373 c0.121,1.192,1.213,2.1,2.367,1.909c6.629-0.738,12.599,4.093,13.326,10.705c0.944,8.575-5.278,16.306-13.848,17.239 c-5.337,0.564-10.579-0.955-14.761-4.319c-3.401-2.731-5.706-6.429-6.781-10.578c-0.274-3.476,0.611-7.288,5.21-8.876 c3.18-1.091,6.665,0.607,7.768,3.781c0.786,2.342-0.448,4.862-2.779,5.664c-0.785,0.285-1.629,0.222-2.378-0.147 c-0.754-0.354-1.313-1.002-1.582-1.793c-0.18-0.517-0.147-1.087,0.095-1.582c0.031-0.074,0.127-0.085,0.169-0.143 c1.013,0.364,2.188,0.031,2.789-0.918c0.712-1.097,0.38-2.567-0.728-3.264c-0.011-0.011-0.021-0.011-0.026-0.011 c-0.543-0.754-1.503-1.107-2.415-0.791c-1.613,0.559-2.916,1.698-3.665,3.238c-0.749,1.539-0.859,3.27-0.301,4.883 c0.648,1.888,1.978,3.406,3.766,4.271c1.033,0.506,2.146,0.765,3.264,0.765c0.817,0,1.635-0.132,2.426-0.406 c4.562-1.55,7.014-6.55,5.458-11.143c-1.872-5.427-7.814-8.332-13.252-6.466c-1.556,0.533-2.905,1.298-4.034,2.247 c0.791-4.393,2.553-8.453,5.395-11.628c3.977-4.451,9.571-6.908,15.752-6.93c0.032,0,0.063,0,0.105,0 c12.709,0,20.382,7.974,27.116,16.971c0.011,0.021,0.016,0.053,0.026,0.062c0.031,0.043,0.074,0.074,0.105,0.111 c1.234,1.655,2.447,3.327,3.644,5.01c1.862,2.61,3.702,5.205,5.616,7.604c8.549,10.779,15.916,20.071,28.704,18.125 c5.12-0.785,9.624-3.575,12.688-7.857c3.127-4.377,4.366-9.914,3.412-15.203c-1.588-8.864-10.099-14.781-18.953-13.188 c-1.187,0.211-1.956,1.339-1.745,2.51s1.334,1.946,2.505,1.74c6.544-1.165,12.772,3.196,13.942,9.703 c0.749,4.166-0.227,8.506-2.684,11.939c-2.362,3.333-5.859,5.495-9.819,6.096c-9.798,1.492-15.482-4.968-24.664-16.537 c-1.229-1.529-2.389-3.201-3.57-4.841c0.011,0,0.021,0.01,0.032,0.01c1.698,0,3.422-0.464,5.104-1.413 c4.287-2.415,5.822-7.878,3.406-12.187c-2.046-3.639-6.681-4.937-10.336-2.885c-1.513,0.849-2.604,2.23-3.068,3.913 c-0.47,1.688-0.254,3.448,0.601,4.946c0.738,1.318,1.94,2.257,3.386,2.668c1.424,0.391,2.922,0.211,4.219-0.495 c-0.121,0.073-0.195,0.194-0.332,0.274c-3.744,2.119-6.697-0.111-8.585-2.437c-7.22-9.683-15.974-18.935-30.766-18.935 c-0.037,0-0.074,0-0.11,0c-7.42,0.021-14.154,2.992-18.953,8.366c-1.229,1.366-2.272,2.869-3.186,4.462v-7.879 c4.746-0.506,9.145-2.61,12.524-6.228c3.818-4.089,5.891-9.49,5.844-15.201l-0.063-6.893c-0.006-0.722-0.38-1.397-0.981-1.787 c-0.611-0.398-1.376-0.464-2.035-0.167c-0.174,0.082-17.666,7.56-28.403,0.33c-0.989-0.664-2.333-0.406-2.998,0.583 c-0.667,0.988-0.404,2.333,0.585,2.998c9.848,6.642,23.538,3.211,29.55,1.181l0.031,3.797c0.037,4.612-1.618,8.944-4.683,12.222 c-3.026,3.246-7.066,5.049-11.367,5.081c-9.001,0.021-16.266-7.555-16.35-17.028l-0.153-18.035 c-0.01-1.102,0.515-2.191,1.551-3.251c2.911-2.964,8.931-4.838,15.726-4.886c3.817-0.026,7.53,0.733,10.172,2.088 c2.215,1.134,3.491,2.555,3.502,3.895c0.011,1.453-6.35,5.234-13.405,5.287c-5.442,0.037-9.951-1.313-10.434-2.067 c0.164-0.907,3.317-3.733,9.69-3.399c3,0.114,5.432,0.915,6.507,2.133c0.786,0.901,2.157,0.988,3.048,0.2 c0.892-0.788,0.986-2.149,0.19-3.045c-1.888-2.154-5.284-3.436-9.574-3.602c-5.033-0.216-9.605,1.205-12.258,3.771 c-1.269,1.231-1.933,2.592-1.917,3.942c0.005,0.775,0.242,1.927,1.355,3.021c2.586,2.55,8.915,3.415,13.432,3.364 c7.074-0.058,17.731-3.937,17.679-9.643c-0.021-3.034-2.099-5.779-5.849-7.701c-3.29-1.686-7.472-2.474-12.179-2.566 c-8.013,0.066-15.026,2.371-18.768,6.178c-1.843,1.88-2.808,4.061-2.787,6.312l0.15,18.043 c0.098,11.005,8.15,19.923,18.349,21.073v8.068c-0.939-1.672-2.036-3.232-3.304-4.641c-4.807-5.374-11.536-8.345-18.956-8.366 c-0.037,0-0.074,0-0.114,0c-14.778,0-23.532,9.241-30.747,18.913c-1.88,2.352-4.843,4.566-8.596,2.457 c-0.129-0.073-0.206-0.189-0.324-0.273c1.294,0.706,2.787,0.886,4.211,0.495c1.448-0.411,2.652-1.35,3.385-2.657 c0.86-1.509,1.071-3.27,0.602-4.957c-0.464-1.678-1.561-3.059-3.069-3.913c-3.649-2.046-8.287-0.755-10.333,2.884 c-2.416,4.309-0.886,9.772,3.406,12.188c1.68,0.949,3.401,1.413,5.102,1.413c0.011,0,0.021-0.011,0.035-0.011 c-1.179,1.646-2.35,3.296-3.57,4.842c-9.181,11.58-14.85,18.035-24.675,16.537c-3.958-0.602-7.44-2.764-9.816-6.096 c-2.452-3.428-3.428-7.773-2.684-11.939c1.168-6.508,7.399-10.858,13.943-9.703c1.139,0.205,2.297-0.569,2.508-1.74 c0.208-1.171-0.567-2.299-1.746-2.51c-8.873-1.593-17.366,4.334-18.953,13.188c-0.957,5.289,0.29,10.831,3.412,15.203 C6.794,151.118,11.297,153.913,16.418,154.694z M168.203,119.815c-0.316,0.163-0.664,0.211-1.002,0.11 c-0.332-0.1-0.606-0.311-0.78-0.622c-0.285-0.506-0.358-1.092-0.2-1.672c0.158-0.559,0.517-1.012,1.012-1.303 c1.582-0.886,3.576-0.321,4.456,1.24c1.019,1.793,0.639,3.934-0.69,5.379c0.475-0.665,0.569-1.572,0.143-2.331 C170.55,119.594,169.227,119.225,168.203,119.815z M41.219,122.948c-1.329-1.43-1.695-3.576-0.691-5.369 c0.881-1.571,2.879-2.136,4.456-1.239c0.501,0.28,0.868,0.744,1.021,1.292c0.156,0.564,0.084,1.166-0.206,1.672 c-0.174,0.312-0.448,0.533-0.789,0.622c-0.334,0.101-0.691,0.053-0.994-0.11c-1.047-0.591-2.36-0.222-2.943,0.817 C40.652,121.387,40.744,122.294,41.219,122.948z"/> </g> </g> </g>
</svg>