<svg width="3850" height="274.57" xmlns="http://www.w3.org/2000/svg">
 <defs>
  <clipPath id="clip-0">
   <path clip-rule="nonzero" d="m1644.67186,9.14844l280,0l0,225l-280,0l0,-225zm0,0" id="svg_1"/>
  </clipPath>
  <clipPath id="clip-1">
   <path clip-rule="nonzero" d="m1775.66014,115.86328c0,0 -0.45703,-0.23828 -1.36719,-0.70703c-0.89062,-0.48828 -2.30078,-1.07812 -3.91015,-2.24609c-3.32031,-2.12891 -7.96094,-5.94922 -12.08203,-12.30078c-1.09766,-1.53906 -1.95703,-3.33594 -2.95703,-5.17578c-0.45313,-0.94532 -0.85157,-1.9375 -1.29297,-2.94532c-0.46875,-0.99609 -0.8086,-2.0664 -1.16797,-3.15234c-1.44922,-4.34375 -2.55078,-9.26172 -2.74219,-14.63281c-0.23047,-5.35938 0.3125,-11.16797 2.10156,-17.0586c1.78125,-5.84375 4.64063,-11.72656 8.64063,-17.17187c3.98828,-5.44141 9.02734,-10.47656 14.89062,-14.83594c5.86719,-4.37109 12.62891,-7.9414 19.97657,-10.67578c7.36328,-2.70703 15.41015,-4.32812 23.74218,-4.80859c4.16016,-0.13282 8.39844,-0.15235 12.64063,0.32422c2.1289,0.14453 4.23828,0.53515 6.3789,0.82421c1.0586,0.1836 2.1211,0.41407 3.17969,0.6211c1.07031,0.20703 2.12891,0.42187 3.17969,0.70703c1.0625,0.26953 2.10937,0.53906 3.17187,0.80469c1.05079,0.32031 2.09766,0.64062 3.14844,0.95703l1.58203,0.48828l1.54688,0.55859c1.04297,0.375 2.08203,0.75391 3.12109,1.13282c4.10156,1.67187 8.19141,3.48828 12.12891,5.6914c3.92969,2.17578 7.8125,4.57422 11.49219,7.28906c1.8789,1.3086 3.64843,2.76954 5.44921,4.20313c0.89844,0.73047 1.75,1.50391 2.62891,2.26172c0.88281,0.7539 1.74219,1.52344 2.57031,2.33594c3.42969,3.14453 6.57032,6.6289 9.60938,10.23828c3.01172,3.64453 5.75,7.54297 8.3125,11.59375c2.48047,4.11328 4.77734,8.3789 6.71875,12.85547c1.8789,4.49609 3.60156,9.11718 4.80859,13.92578c5,19.20312 3.88281,39.72656 -1.94922,58.40234c-5.82031,18.71875 -16.05859,35.72656 -29.21093,49.55859c-3.29688,3.45313 -6.73829,6.76172 -10.37891,9.79297c-3.60938,3.08203 -7.41797,5.90235 -11.33984,8.52344c-0.98829,0.64063 -1.98047,1.28125 -2.96094,1.92188c-1,0.625 -2.01953,1.20703 -3.02735,1.80859c-2,1.23047 -4.10156,2.27734 -6.16015,3.38672c-4.17188,2.0625 -8.47266,4.01953 -12.76953,5.54687c-17.17969,6.35547 -34.88282,8.53907 -51.21094,7.91016c-16.39063,-0.58594 -31.49219,-3.96875 -44.67969,-8.63672c-13.21094,-4.69531 -24.5625,-10.6875 -33.85937,-16.91406c-4.66016,-3.09766 -8.85157,-6.22266 -12.51953,-9.29297c-3.71094,-3.02734 -6.88282,-6.02734 -9.67188,-8.73828c-2.67187,-2.73047 -4.98828,-5.14453 -6.82812,-7.29297c-1.91016,-2.10547 -3.33204,-3.93359 -4.44141,-5.31641c-4.39063,-5.57422 -8.96875,-12.39453 -13.17188,-20.15625c-4.1875,-7.75781 -8.05859,-16.42578 -11.14843,-25.57812c-3.10938,-9.14453 -5.57032,-18.73438 -7.28907,-28.28906c-1.69921,-9.5586 -2.71093,-19.07422 -3.13281,-28.12891c-0.82812,-18.125 0.67188,-34.35156 3.03125,-45.91406c2.35156,-11.57422 5.49219,-18.51563 8.39063,-18.42969c2.98828,0.08594 5.46093,7.15234 8.21093,18.13672c2.73047,10.98437 5.80079,25.91797 10.17969,41.625c2.1875,7.85547 4.6875,15.89453 7.52735,23.73047c2.85156,7.83203 6.07031,15.4375 9.5,22.5c6.85156,14.16406 14.85156,25.84375 21.43359,34.14453c0.82812,1.03125 1.85937,2.43359 3.22656,4.03125c1.3125,1.65625 2.97266,3.50781 4.83985,5.63281c1.90234,2.01953 4.05078,4.29688 6.61328,6.63281c2.51953,2.3711 5.4375,4.82422 8.71875,7.3086c6.53906,4.99609 14.69922,10.01172 24.3789,14.21093c9.67188,4.17579 20.89063,7.53125 33.13282,8.83204c12.19921,1.34375 25.42968,0.66406 38.40625,-3.08204c12.84375,-3.58203 25.51171,-10.6914 36.5,-20.64062c10.99218,-9.92188 20.13281,-22.76563 25.8125,-37.12109c0.75781,-1.77735 1.32812,-3.61719 1.98046,-5.44141c0.53907,-1.84766 1.16016,-3.6875 1.58985,-5.56641c0.51953,-1.86718 0.85937,-3.76172 1.26953,-5.65625c0.28906,-1.90234 0.66797,-3.80859 0.83984,-5.72656c0.48047,-3.83594 0.6211,-7.70312 0.51953,-11.55859c-0.05078,-3.8711 -0.51171,-7.70313 -1.14843,-11.45703c-0.64063,-3.78125 -1.72266,-7.4961 -2.92188,-11.17188c-1.26953,-3.66406 -2.84765,-7.23047 -4.58984,-10.72656c-1.83985,-3.44531 -3.82813,-6.82422 -6.08985,-10.03125c-2.28906,-3.17578 -4.67968,-6.30469 -7.35937,-9.16016c-10.57031,-11.53515 -23.94141,-20.3789 -38.17188,-24.95312c-0.8789,-0.32032 -1.77734,-0.57032 -2.66796,-0.81641c-0.90235,-0.24609 -1.78907,-0.51562 -2.69141,-0.74219c-1.80078,-0.38281 -3.58984,-0.875 -5.39844,-1.13281c-3.60156,-0.69922 -7.23047,-0.94531 -10.8125,-1.125c-7.17969,-0.13672 -14.22656,0.69922 -20.86719,2.56641c-6.62109,1.89453 -12.87109,4.57812 -18.38281,8.05859c-5.50781,3.46094 -10.34765,7.58984 -14.28906,12.16406c-3.94922,4.57032 -6.91797,9.64063 -8.9375,14.75782c-2,5.10546 -2.93359,10.35937 -3.11328,15.32421c-0.20703,4.97657 0.45312,9.66407 1.5,13.86719c0.25,1.0586 0.5,2.09766 0.87109,3.07422c0.33985,0.98047 0.64063,1.96094 1,2.89453c0.82031,1.8125 1.49219,3.60938 2.42969,5.16016c3.46094,6.39453 7.67969,10.49609 10.78906,12.84765c1.49219,1.28125 2.83985,1.97266 3.69141,2.53125c0.87109,0.53516 1.30859,0.8125 1.30859,0.8125zm0,0" id="svg_2"/>
  </clipPath>
  <clipPath id="clip-2">
   <path clip-rule="nonzero" d="m1775.66014,115.86328c0,0 -0.45703,-0.23828 -1.36719,-0.70703c-0.89062,-0.48828 -2.30078,-1.07812 -3.91015,-2.24609c-3.32031,-2.12891 -7.96094,-5.94922 -12.08203,-12.30078c-1.09766,-1.53906 -1.95703,-3.33594 -2.95703,-5.17578c-0.45313,-0.94532 -0.85157,-1.9375 -1.29297,-2.94532c-0.46875,-0.99609 -0.8086,-2.0664 -1.16797,-3.15234c-1.44922,-4.34375 -2.55078,-9.26172 -2.74219,-14.63281c-0.23047,-5.35938 0.3125,-11.16797 2.10156,-17.0586c1.78125,-5.84375 4.64063,-11.72656 8.64063,-17.17187c3.98828,-5.44141 9.02734,-10.47656 14.89062,-14.83594c5.86719,-4.37109 12.62891,-7.9414 19.97657,-10.67578c7.36328,-2.70703 15.41015,-4.32812 23.74218,-4.80859c4.16016,-0.13282 8.39844,-0.15235 12.64063,0.32422c2.1289,0.14453 4.23828,0.53515 6.3789,0.82421c1.0586,0.1836 2.1211,0.41407 3.17969,0.6211c1.07031,0.20703 2.12891,0.42187 3.17969,0.70703c1.0625,0.26953 2.10937,0.53906 3.17187,0.80469c1.05079,0.32031 2.09766,0.64062 3.14844,0.95703l1.58203,0.48828l1.54688,0.55859c1.04297,0.375 2.08203,0.75391 3.12109,1.13282c4.10156,1.67187 8.19141,3.48828 12.12891,5.6914c3.92969,2.17578 7.8125,4.57422 11.49219,7.28906c1.8789,1.3086 3.64843,2.76954 5.44921,4.20313c0.89844,0.73047 1.75,1.50391 2.62891,2.26172c0.88281,0.7539 1.74219,1.52344 2.57031,2.33594c3.42969,3.14453 6.57032,6.6289 9.60938,10.23828c3.01172,3.64453 5.75,7.54297 8.3125,11.59375c2.48047,4.11328 4.77734,8.3789 6.71875,12.85547c1.8789,4.49609 3.60156,9.11718 4.80859,13.92578c5,19.20312 3.88281,39.72656 -1.94922,58.40234c-5.82031,18.71875 -16.05859,35.72656 -29.21093,49.55859c-3.29688,3.45313 -6.73829,6.76172 -10.37891,9.79297c-3.60938,3.08203 -7.41797,5.90235 -11.33984,8.52344c-0.98829,0.64063 -1.98047,1.28125 -2.96094,1.92188c-1,0.625 -2.01953,1.20703 -3.02735,1.80859c-2,1.23047 -4.10156,2.27734 -6.16015,3.38672c-4.17188,2.0625 -8.47266,4.01953 -12.76953,5.54687c-17.17969,6.35547 -34.88282,8.53907 -51.21094,7.91016c-16.39063,-0.58594 -31.49219,-3.96875 -44.67969,-8.63672c-13.21094,-4.69531 -24.5625,-10.6875 -33.85937,-16.91406c-4.66016,-3.09766 -8.85157,-6.22266 -12.51953,-9.29297c-3.71094,-3.02734 -6.88282,-6.02734 -9.67188,-8.73828c-2.67187,-2.73047 -4.98828,-5.14453 -6.82812,-7.29297c-1.91016,-2.10547 -3.33204,-3.93359 -4.44141,-5.31641c-4.39063,-5.57422 -8.96875,-12.39453 -13.17188,-20.15625c-4.1875,-7.75781 -8.05859,-16.42578 -11.14843,-25.57812c-3.10938,-9.14453 -5.57032,-18.73438 -7.28907,-28.28906c-1.69921,-9.5586 -2.71093,-19.07422 -3.13281,-28.12891c-0.82812,-18.125 0.67188,-34.35156 3.03125,-45.91406c2.35156,-11.57422 5.49219,-18.51563 8.39063,-18.42969c2.98828,0.08594 5.46093,7.15234 8.21093,18.13672c2.73047,10.98437 5.80079,25.91797 10.17969,41.625c2.1875,7.85547 4.6875,15.89453 7.52735,23.73047c2.85156,7.83203 6.07031,15.4375 9.5,22.5c6.85156,14.16406 14.85156,25.84375 21.43359,34.14453c0.82812,1.03125 1.85937,2.43359 3.22656,4.03125c1.3125,1.65625 2.97266,3.50781 4.83985,5.63281c1.90234,2.01953 4.05078,4.29688 6.61328,6.63281c2.51953,2.3711 5.4375,4.82422 8.71875,7.3086c6.53906,4.99609 14.69922,10.01172 24.3789,14.21093c9.67188,4.17579 20.89063,7.53125 33.13282,8.83204c12.19921,1.34375 25.42968,0.66406 38.40625,-3.08204c12.84375,-3.58203 25.51171,-10.6914 36.5,-20.64062c10.99218,-9.92188 20.13281,-22.76563 25.8125,-37.12109c0.75781,-1.77735 1.32812,-3.61719 1.98046,-5.44141c0.53907,-1.84766 1.16016,-3.6875 1.58985,-5.56641c0.51953,-1.86718 0.85937,-3.76172 1.26953,-5.65625c0.28906,-1.90234 0.66797,-3.80859 0.83984,-5.72656c0.48047,-3.83594 0.6211,-7.70312 0.51953,-11.55859c-0.05078,-3.8711 -0.51171,-7.70313 -1.14843,-11.45703c-0.64063,-3.78125 -1.72266,-7.4961 -2.92188,-11.17188c-1.26953,-3.66406 -2.84765,-7.23047 -4.58984,-10.72656c-1.83985,-3.44531 -3.82813,-6.82422 -6.08985,-10.03125c-2.28906,-3.17578 -4.67968,-6.30469 -7.35937,-9.16016c-10.57031,-11.53515 -23.94141,-20.3789 -38.17188,-24.95312c-0.8789,-0.32032 -1.77734,-0.57032 -2.66796,-0.81641c-0.90235,-0.24609 -1.78907,-0.51562 -2.69141,-0.74219c-1.80078,-0.38281 -3.58984,-0.875 -5.39844,-1.13281c-3.60156,-0.69922 -7.23047,-0.94531 -10.8125,-1.125c-7.17969,-0.13672 -14.22656,0.69922 -20.86719,2.56641c-6.62109,1.89453 -12.87109,4.57812 -18.38281,8.05859c-5.50781,3.46094 -10.34765,7.58984 -14.28906,12.16406c-3.94922,4.57032 -6.91797,9.64063 -8.9375,14.75782c-2,5.10546 -2.93359,10.35937 -3.11328,15.32421c-0.20703,4.97657 0.45312,9.66407 1.5,13.86719c0.25,1.0586 0.5,2.09766 0.87109,3.07422c0.33985,0.98047 0.64063,1.96094 1,2.89453c0.82031,1.8125 1.49219,3.60938 2.42969,5.16016c3.46094,6.39453 7.67969,10.49609 10.78906,12.84765c1.49219,1.28125 2.83985,1.97266 3.69141,2.53125c0.87109,0.53516 1.30859,0.8125 1.30859,0.8125" id="svg_3"/>
  </clipPath>
  <clipPath id="clip-3">
   <path clip-rule="nonzero" d="m1248.67186,25.14844l420,0l0,155l-420,0l0,-155zm0,0" id="svg_4"/>
  </clipPath>
  <clipPath id="clip-4">
   <path clip-rule="nonzero" d="m1668.23045,120.09375c0,0 -1.39843,-1.03906 -4.02734,-2.98828c-1.3125,-0.97656 -2.92969,-2.17969 -4.83984,-3.59375c-1.92188,-1.39844 -4.20313,-2.91015 -6.71094,-4.65234c-10.10156,-6.89063 -24.99219,-16.16406 -43.92969,-25.29297c-2.35937,-1.14844 -4.83203,-2.21484 -7.3125,-3.35938c-1.23828,-0.5664 -2.48828,-1.13671 -3.75781,-1.71093c-1.26953,-0.57032 -2.58203,-1.07813 -3.89063,-1.62891c-2.62109,-1.07812 -5.26953,-2.20312 -7.98828,-3.28906c-2.74218,-1.02735 -5.52343,-2.07031 -8.33984,-3.12891c-11.33984,-4.08594 -23.5,-7.86328 -36.28125,-11.04297c-25.58984,-6.28515 -53.67188,-10.07422 -81.96875,-10.37109c-28.29297,-0.39453 -56.74219,2.9375 -82.94141,9.15625c-13.10156,3.11719 -25.66015,6.88672 -37.42187,11.23828c-5.83985,2.25391 -11.57031,4.43359 -17,6.89063c-5.60938,2.34765 -10.47656,4.72656 -14.84766,7.22265c-4.35937,2.48047 -8,5.125 -10.83203,7.70313c-2.85937,2.57812 -4.61719,5.10937 -5.73828,7.33203c-0.58984,1.11328 -0.91016,2.1914 -1.21094,3.23047c-0.16797,1.03515 -0.39062,1.96875 -0.37109,2.9414c-0.03906,1.91797 0.22265,3.83985 0.80078,5.79688c1.28125,3.92969 3.55078,7.65234 5.78906,10.40625c2.26172,2.78125 4.39063,4.625 5.60156,5.8164c0.64844,0.5625 1.32032,1.14844 2.01954,1.75391c0.69921,0.59766 1.46875,1.13672 2.21875,1.76953c0.78125,0.55469 1.58203,1.13281 2.41015,1.72656c0.94141,0.54688 1.85156,1.21485 2.86328,1.76172c0.5,0.28516 1.00782,0.57813 1.51953,0.8711c0.51954,0.29297 1.0586,0.54297 1.59766,0.82812c1.0625,0.58985 2.21094,1.05469 3.35938,1.60938c2.34375,0.96875 4.80078,1.97265 7.45312,2.72656c5.25781,1.58594 11.07031,2.64062 17.05859,2.96875c2.98829,0.17969 6.03125,0.20703 9.05079,0.02734c1.51953,-0.04297 3.00781,-0.22265 4.51953,-0.33593c1.48047,-0.20313 2.98828,-0.32032 4.44922,-0.59375c11.83203,-1.78125 22.39062,-6.11719 30.15234,-10.02735c3.89844,-1.94531 7.12891,-3.7539 9.76953,-4.82422c2.57031,-1.12109 4.58984,-1.48047 5.80859,-0.64062c1.19922,0.82812 1.53907,2.83984 0.96875,5.91797c-0.63671,3.01562 -2.23828,7.08203 -5.11718,11.59375c-2.89063,4.49609 -7.05078,9.42578 -12.49219,14.07422l-2.07813,1.75c-0.72265,0.57031 -1.46093,1.12109 -2.21093,1.6875c-1.48828,1.16015 -3.08985,2.1914 -4.71875,3.28906c-3.3125,2.07812 -6.86328,4.11328 -10.67188,5.83203c-1.8789,0.91797 -3.84765,1.66406 -5.83984,2.47656c-2.01953,0.71875 -4.05078,1.48828 -6.14844,2.08594c-4.17969,1.29297 -8.53125,2.27734 -12.98047,2.96875c-8.87109,1.41016 -18.14062,1.52344 -27.10937,0.30859c-4.48047,-0.5625 -8.8711,-1.58203 -13.11328,-2.76562c-2.09766,-0.66797 -4.1875,-1.28125 -6.19922,-2.08203c-1,-0.39063 -2.00782,-0.75 -2.98047,-1.16797c-0.97656,-0.4375 -1.9375,-0.86328 -2.88672,-1.28516c-1.91016,-0.84375 -3.71094,-1.85937 -5.49219,-2.77734c-1.78906,-1.0625 -3.55859,-2.10156 -5.19922,-3.19141c-1.60156,-1.13672 -3.17968,-2.21875 -4.6289,-3.36328c-1.41016,-1.17187 -2.80078,-2.29297 -4.07032,-3.44531c-2.48046,-2.35938 -6.47265,-6.19922 -10.8125,-12.30078c-1.03906,-1.57422 -2.16015,-3.21875 -3.25781,-5.03516c-0.51953,-0.93359 -1.05078,-1.89844 -1.60156,-2.88281c-0.26953,-0.4961 -0.55078,-1 -0.82031,-1.50781c-0.26953,-0.51563 -0.50782,-1.06641 -0.76953,-1.61329c-0.48829,-1.09765 -1,-2.22265 -1.51954,-3.37109c-0.48828,-1.16797 -0.91796,-2.4375 -1.3789,-3.69531c-0.22266,-0.63281 -0.44141,-1.27344 -0.67188,-1.92188c-0.21093,-0.65625 -0.3789,-1.35547 -0.57031,-2.04297c-0.34766,-1.39062 -0.75,-2.78125 -1.04687,-4.2539c-1.19141,-5.89844 -1.6211,-12.70313 -0.5625,-19.88281c0.48046,-3.59766 1.51171,-7.23438 2.76953,-10.81641c1.35156,-3.50781 3.01953,-7.00781 5.10156,-10.23047c4.12891,-6.49219 9.50781,-12.08203 15.28125,-16.44531c5.77734,-4.39844 11.9375,-7.91797 18.17969,-10.80078c6.21875,-2.88672 12.64843,-5.3086 18.84765,-7.30469c6.25,-2.19922 12.78907,-4.07031 19.44141,-5.97656c13.33984,-3.66016 27.44141,-6.5625 41.94141,-8.67188c29.00781,-4.21094 59.72656,-4.95312 89.5664,-1.79687c29.85156,3.05859 58.76172,9.76172 84.58203,18.72265c12.91016,4.52344 25.03907,9.58203 36.25,14.85547c2.78907,1.35156 5.53125,2.6875 8.23047,4c2.67969,1.3711 5.27735,2.77735 7.83985,4.125c1.28125,0.6875 2.55859,1.33203 3.80078,2.03125c1.23828,0.71094 2.45703,1.41016 3.66797,2.10547c2.42187,1.40234 4.8125,2.71875 7.10156,4.11328c18.34765,11.08594 32.41797,21.83594 41.86719,29.69531c2.35156,1.98829 4.48046,3.71094 6.26171,5.28907c1.76954,1.59765 3.28125,2.95312 4.48829,4.05078c2.43359,2.19531 3.73046,3.35937 3.73046,3.35937zm0,0" id="svg_5"/>
  </clipPath>
  <clipPath id="clip-5">
   <path clip-rule="nonzero" d="m1668.23045,120.09375c0,0 -1.39843,-1.03906 -4.02734,-2.98828c-1.3125,-0.97656 -2.92969,-2.17969 -4.83984,-3.59375c-1.92188,-1.39844 -4.20313,-2.91015 -6.71094,-4.65234c-10.10156,-6.89063 -24.99219,-16.16406 -43.92969,-25.29297c-2.35937,-1.14844 -4.83203,-2.21484 -7.3125,-3.35938c-1.23828,-0.5664 -2.48828,-1.13671 -3.75781,-1.71093c-1.26953,-0.57032 -2.58203,-1.07813 -3.89063,-1.62891c-2.62109,-1.07812 -5.26953,-2.20312 -7.98828,-3.28906c-2.74218,-1.02735 -5.52343,-2.07031 -8.33984,-3.12891c-11.33984,-4.08594 -23.5,-7.86328 -36.28125,-11.04297c-25.58984,-6.28515 -53.67188,-10.07422 -81.96875,-10.37109c-28.29297,-0.39453 -56.74219,2.9375 -82.94141,9.15625c-13.10156,3.11719 -25.66015,6.88672 -37.42187,11.23828c-5.83985,2.25391 -11.57031,4.43359 -17,6.89063c-5.60938,2.34765 -10.47656,4.72656 -14.84766,7.22265c-4.35937,2.48047 -8,5.125 -10.83203,7.70313c-2.85937,2.57812 -4.61719,5.10937 -5.73828,7.33203c-0.58984,1.11328 -0.91016,2.1914 -1.21094,3.23047c-0.16797,1.03515 -0.39062,1.96875 -0.37109,2.9414c-0.03906,1.91797 0.22265,3.83985 0.80078,5.79688c1.28125,3.92969 3.55078,7.65234 5.78906,10.40625c2.26172,2.78125 4.39063,4.625 5.60156,5.8164c0.64844,0.5625 1.32032,1.14844 2.01954,1.75391c0.69921,0.59766 1.46875,1.13672 2.21875,1.76953c0.78125,0.55469 1.58203,1.13281 2.41015,1.72656c0.94141,0.54688 1.85156,1.21485 2.86328,1.76172c0.5,0.28516 1.00782,0.57813 1.51953,0.8711c0.51954,0.29297 1.0586,0.54297 1.59766,0.82812c1.0625,0.58985 2.21094,1.05469 3.35938,1.60938c2.34375,0.96875 4.80078,1.97265 7.45312,2.72656c5.25781,1.58594 11.07031,2.64062 17.05859,2.96875c2.98829,0.17969 6.03125,0.20703 9.05079,0.02734c1.51953,-0.04297 3.00781,-0.22265 4.51953,-0.33593c1.48047,-0.20313 2.98828,-0.32032 4.44922,-0.59375c11.83203,-1.78125 22.39062,-6.11719 30.15234,-10.02735c3.89844,-1.94531 7.12891,-3.7539 9.76953,-4.82422c2.57031,-1.12109 4.58984,-1.48047 5.80859,-0.64062c1.19922,0.82812 1.53907,2.83984 0.96875,5.91797c-0.63671,3.01562 -2.23828,7.08203 -5.11718,11.59375c-2.89063,4.49609 -7.05078,9.42578 -12.49219,14.07422l-2.07813,1.75c-0.72265,0.57031 -1.46093,1.12109 -2.21093,1.6875c-1.48828,1.16015 -3.08985,2.1914 -4.71875,3.28906c-3.3125,2.07812 -6.86328,4.11328 -10.67188,5.83203c-1.8789,0.91797 -3.84765,1.66406 -5.83984,2.47656c-2.01953,0.71875 -4.05078,1.48828 -6.14844,2.08594c-4.17969,1.29297 -8.53125,2.27734 -12.98047,2.96875c-8.87109,1.41016 -18.14062,1.52344 -27.10937,0.30859c-4.48047,-0.5625 -8.8711,-1.58203 -13.11328,-2.76562c-2.09766,-0.66797 -4.1875,-1.28125 -6.19922,-2.08203c-1,-0.39063 -2.00782,-0.75 -2.98047,-1.16797c-0.97656,-0.4375 -1.9375,-0.86328 -2.88672,-1.28516c-1.91016,-0.84375 -3.71094,-1.85937 -5.49219,-2.77734c-1.78906,-1.0625 -3.55859,-2.10156 -5.19922,-3.19141c-1.60156,-1.13672 -3.17968,-2.21875 -4.6289,-3.36328c-1.41016,-1.17187 -2.80078,-2.29297 -4.07032,-3.44531c-2.48046,-2.35938 -6.47265,-6.19922 -10.8125,-12.30078c-1.03906,-1.57422 -2.16015,-3.21875 -3.25781,-5.03516c-0.51953,-0.93359 -1.05078,-1.89844 -1.60156,-2.88281c-0.26953,-0.4961 -0.55078,-1 -0.82031,-1.50781c-0.26953,-0.51563 -0.50782,-1.06641 -0.76953,-1.61329c-0.48829,-1.09765 -1,-2.22265 -1.51954,-3.37109c-0.48828,-1.16797 -0.91796,-2.4375 -1.3789,-3.69531c-0.22266,-0.63281 -0.44141,-1.27344 -0.67188,-1.92188c-0.21093,-0.65625 -0.3789,-1.35547 -0.57031,-2.04297c-0.34766,-1.39062 -0.75,-2.78125 -1.04687,-4.2539c-1.19141,-5.89844 -1.6211,-12.70313 -0.5625,-19.88281c0.48046,-3.59766 1.51171,-7.23438 2.76953,-10.81641c1.35156,-3.50781 3.01953,-7.00781 5.10156,-10.23047c4.12891,-6.49219 9.50781,-12.08203 15.28125,-16.44531c5.77734,-4.39844 11.9375,-7.91797 18.17969,-10.80078c6.21875,-2.88672 12.64843,-5.3086 18.84765,-7.30469c6.25,-2.19922 12.78907,-4.07031 19.44141,-5.97656c13.33984,-3.66016 27.44141,-6.5625 41.94141,-8.67188c29.00781,-4.21094 59.72656,-4.95312 89.5664,-1.79687c29.85156,3.05859 58.76172,9.76172 84.58203,18.72265c12.91016,4.52344 25.03907,9.58203 36.25,14.85547c2.78907,1.35156 5.53125,2.6875 8.23047,4c2.67969,1.3711 5.27735,2.77735 7.83985,4.125c1.28125,0.6875 2.55859,1.33203 3.80078,2.03125c1.23828,0.71094 2.45703,1.41016 3.66797,2.10547c2.42187,1.40234 4.8125,2.71875 7.10156,4.11328c18.34765,11.08594 32.41797,21.83594 41.86719,29.69531c2.35156,1.98829 4.48046,3.71094 6.26171,5.28907c1.76954,1.59765 3.28125,2.95312 4.48829,4.05078c2.43359,2.19531 3.73046,3.35937 3.73046,3.35937" id="svg_6"/>
  </clipPath>
  <clipPath id="clip-6">
   <path clip-rule="nonzero" d="m9.67186,34.14844l1274,0l0,146l-1274,0l0,-146zm0,0" id="svg_7"/>
  </clipPath>
  <clipPath id="clip-7">
   <path clip-rule="nonzero" d="m9.99999,34.24219c0,0 2.80468,2.38672 8.07812,6.88281c5.29297,4.46485 13.24219,10.8125 23.67188,18.5c10.52343,7.55078 23.58984,16.36328 39.24218,25.41797c15.64063,9.06641 33.85547,18.36719 54.36719,27.13672c10.29688,4.28125 21.08984,8.61719 32.48438,12.53906c5.65625,2.0586 11.50781,3.89063 17.42187,5.82422c2.96094,0.96094 5.98438,1.8086 9.00391,2.73438c3.02734,0.90625 6.07422,1.83203 9.17578,2.65234c3.08984,0.85156 6.20312,1.70703 9.33984,2.56641c3.15235,0.79297 6.32813,1.58984 9.52344,2.39062c3.1875,0.83203 6.42578,1.5586 9.67578,2.29297c3.25781,0.71875 6.51172,1.53906 9.82813,2.1875c13.19531,2.84375 26.80859,5.21875 40.71093,7.33984c13.89844,2.12891 28.14063,3.71875 42.59766,5.03907c14.46094,1.3164 29.16406,2.17187 44.02344,2.61718c14.85937,0.44532 29.875,0.54297 44.97265,0.14844c7.5586,-0.24219 15.14063,-0.60156 22.73438,-0.89453l5.69922,-0.23437l5.69922,-0.38282c3.80078,-0.26172 7.60156,-0.51953 11.41015,-0.78125c30.45313,-2.1875 60.98047,-5.6914 91.13281,-10.10156c30.14063,-4.5 59.91016,-9.88281 88.92969,-15.62891c29.01953,-5.72656 57.27735,-11.92578 84.42969,-18.01562c27.14844,-6.08203 53.19922,-12.12109 77.76953,-17.71484c24.55078,-5.62891 47.67188,-10.76172 68.83984,-15.35157c10.6211,-2.22265 20.73829,-4.33593 30.30079,-6.33593c9.59765,-1.90235 18.6289,-3.73829 27.08984,-5.35547c8.46875,-1.57032 16.32812,-3.02735 23.50781,-4.35938c7.23047,-1.23047 13.78125,-2.34765 19.60156,-3.33594c2.92188,-0.48828 5.66016,-0.94531 8.19922,-1.37109c2.55078,-0.41406 4.92969,-0.74609 7.10157,-1.07422c4.35937,-0.625 7.91796,-1.14062 10.64843,-1.53125c10.90235,-1.60937 23.65235,-2.85547 37.49219,-4.25781c13.89844,-1.10938 28.91797,-2.32813 44.54688,-2.85547c31.21093,-1.29297 64.66015,-0.87891 95.1914,1.5625c7.62891,0.73047 15.08203,1.5 22.26172,2.27344c1.78906,0.19531 3.57031,0.39062 5.33984,0.58203c1.75,0.25391 3.48829,0.50391 5.23047,0.75391c3.39844,0.51562 6.77735,1.02343 10.09766,1.52734c13.17187,1.83594 24.92187,4.5625 34.74219,6.80078c4.91797,1.07422 9.30859,2.46094 13.16015,3.66016c3.83985,1.22265 7.12891,2.375 9.79688,3.45703c5.32031,2.15625 8.14062,4.00781 7.90234,5.46094c-0.23047,1.45312 -3.51172,2.4414 -9.17187,3.03906c-2.83985,0.29687 -6.26953,0.5 -10.23047,0.61328c-3.95703,0.13281 -8.41797,0.05469 -13.36719,0.25781c-9.90234,0.32422 -21.55078,0.04688 -34.49219,0.4961c-3.25781,0.05468 -6.55859,0.10937 -9.89843,0.16796c-1.69141,0.01954 -3.39063,0.04297 -5.10157,0.06641c-1.73047,0.07031 -3.46875,0.14453 -5.21093,0.21875c-7,0.28906 -14.22657,0.53906 -21.60938,0.77734c-29.57031,1.4375 -61.67969,4.10547 -91.6875,7.47266c-15.01172,1.5625 -29.5,3.57031 -42.89062,5.19531c-13.39063,1.92578 -25.71094,3.41797 -36.35157,4.98828c-2.66015,0.35157 -6.14062,0.8125 -10.39062,1.375c-2.11719,0.27344 -4.42969,0.57422 -6.9375,0.89844c-2.49219,0.35156 -5.17969,0.73047 -8.03906,1.13672c-5.72266,0.80078 -12.16016,1.70703 -19.26172,2.70313c-7.08203,1.07421 -14.83985,2.24609 -23.19922,3.51562c-8.35156,1.34766 -17.3125,2.79297 -26.82031,4.32422c-9.51172,1.625 -19.57032,3.34375 -30.12891,5.14844c-21.12109,3.7539 -44.23047,7.94922 -68.95313,12.59375c-24.71875,4.60156 -51.02734,9.58984 -78.57031,14.58203c-27.52734,4.99609 -56.26953,10.05859 -85.86719,14.62109c-29.58984,4.57813 -60.01171,8.75781 -90.83984,12.01953c-30.85156,3.17969 -62.10156,5.41407 -93.24219,6.30078c-3.89062,0.09766 -7.77734,0.19141 -11.66797,0.28907l-5.82031,0.14062l-5.83203,-0.01562c-7.76172,-0.03125 -15.5,-0.00391 -23.21875,-0.09375c-15.45312,-0.26953 -30.79687,-1.03516 -45.94531,-2.15625c-15.15235,-1.11719 -30.11719,-2.64453 -44.80469,-4.63672c-14.68359,-1.98828 -29.12109,-4.25 -43.1875,-7.03906c-14.0625,-2.78516 -27.80469,-5.8125 -41.10156,-9.29688c-3.33985,-0.80859 -6.61719,-1.78906 -9.89453,-2.66797c-3.27344,-0.89453 -6.52735,-1.77734 -9.73047,-2.76172c-3.21094,-0.96093 -6.40235,-1.91406 -9.57031,-2.85937c-3.14454,-1.01563 -6.26954,-2.02735 -9.3711,-3.02735c-3.11328,-0.97265 -6.16406,-2.05078 -9.19531,-3.10937c-3.02734,-1.07031 -6.05469,-2.06641 -9.01563,-3.17969c-5.91796,-2.22656 -11.76171,-4.35156 -17.41015,-6.6914c-11.36719,-4.48829 -22.10938,-9.36719 -32.33203,-14.16016c-20.35938,-9.79688 -38.32422,-20.01172 -53.66797,-29.84766c-15.35938,-9.82812 -28.08985,-19.27343 -38.30469,-27.32422c-10.11719,-8.18359 -17.78125,-14.89062 -22.87891,-19.59765c-5.0664,-4.73047 -7.76171,-7.24219 -7.76171,-7.24219zm0,0" id="svg_8"/>
  </clipPath>
  <clipPath id="clip-8">
   <path clip-rule="nonzero" d="m9.99999,34.24219c0,0 2.80468,2.38672 8.07812,6.88281c5.29297,4.46485 13.24219,10.8125 23.67188,18.5c10.52343,7.55078 23.58984,16.36328 39.24218,25.41797c15.64063,9.06641 33.85547,18.36719 54.36719,27.13672c10.29688,4.28125 21.08984,8.61719 32.48438,12.53906c5.65625,2.0586 11.50781,3.89063 17.42187,5.82422c2.96094,0.96094 5.98438,1.8086 9.00391,2.73438c3.02734,0.90625 6.07422,1.83203 9.17578,2.65234c3.08984,0.85156 6.20312,1.70703 9.33984,2.56641c3.15235,0.79297 6.32813,1.58984 9.52344,2.39062c3.1875,0.83203 6.42578,1.5586 9.67578,2.29297c3.25781,0.71875 6.51172,1.53906 9.82813,2.1875c13.19531,2.84375 26.80859,5.21875 40.71093,7.33984c13.89844,2.12891 28.14063,3.71875 42.59766,5.03907c14.46094,1.3164 29.16406,2.17187 44.02344,2.61718c14.85937,0.44532 29.875,0.54297 44.97265,0.14844c7.5586,-0.24219 15.14063,-0.60156 22.73438,-0.89453l5.69922,-0.23437l5.69922,-0.38282c3.80078,-0.26172 7.60156,-0.51953 11.41015,-0.78125c30.45313,-2.1875 60.98047,-5.6914 91.13281,-10.10156c30.14063,-4.5 59.91016,-9.88281 88.92969,-15.62891c29.01953,-5.72656 57.27735,-11.92578 84.42969,-18.01562c27.14844,-6.08203 53.19922,-12.12109 77.76953,-17.71484c24.55078,-5.62891 47.67188,-10.76172 68.83984,-15.35157c10.6211,-2.22265 20.73829,-4.33593 30.30079,-6.33593c9.59765,-1.90235 18.6289,-3.73829 27.08984,-5.35547c8.46875,-1.57032 16.32812,-3.02735 23.50781,-4.35938c7.23047,-1.23047 13.78125,-2.34765 19.60156,-3.33594c2.92188,-0.48828 5.66016,-0.94531 8.19922,-1.37109c2.55078,-0.41406 4.92969,-0.74609 7.10157,-1.07422c4.35937,-0.625 7.91796,-1.14062 10.64843,-1.53125c10.90235,-1.60937 23.65235,-2.85547 37.49219,-4.25781c13.89844,-1.10938 28.91797,-2.32813 44.54688,-2.85547c31.21093,-1.29297 64.66015,-0.87891 95.1914,1.5625c7.62891,0.73047 15.08203,1.5 22.26172,2.27344c1.78906,0.19531 3.57031,0.39062 5.33984,0.58203c1.75,0.25391 3.48829,0.50391 5.23047,0.75391c3.39844,0.51562 6.77735,1.02343 10.09766,1.52734c13.17187,1.83594 24.92187,4.5625 34.74219,6.80078c4.91797,1.07422 9.30859,2.46094 13.16015,3.66016c3.83985,1.22265 7.12891,2.375 9.79688,3.45703c5.32031,2.15625 8.14062,4.00781 7.90234,5.46094c-0.23047,1.45312 -3.51172,2.4414 -9.17187,3.03906c-2.83985,0.29687 -6.26953,0.5 -10.23047,0.61328c-3.95703,0.13281 -8.41797,0.05469 -13.36719,0.25781c-9.90234,0.32422 -21.55078,0.04688 -34.49219,0.4961c-3.25781,0.05468 -6.55859,0.10937 -9.89843,0.16796c-1.69141,0.01954 -3.39063,0.04297 -5.10157,0.06641c-1.73047,0.07031 -3.46875,0.14453 -5.21093,0.21875c-7,0.28906 -14.22657,0.53906 -21.60938,0.77734c-29.57031,1.4375 -61.67969,4.10547 -91.6875,7.47266c-15.01172,1.5625 -29.5,3.57031 -42.89062,5.19531c-13.39063,1.92578 -25.71094,3.41797 -36.35157,4.98828c-2.66015,0.35157 -6.14062,0.8125 -10.39062,1.375c-2.11719,0.27344 -4.42969,0.57422 -6.9375,0.89844c-2.49219,0.35156 -5.17969,0.73047 -8.03906,1.13672c-5.72266,0.80078 -12.16016,1.70703 -19.26172,2.70313c-7.08203,1.07421 -14.83985,2.24609 -23.19922,3.51562c-8.35156,1.34766 -17.3125,2.79297 -26.82031,4.32422c-9.51172,1.625 -19.57032,3.34375 -30.12891,5.14844c-21.12109,3.7539 -44.23047,7.94922 -68.95313,12.59375c-24.71875,4.60156 -51.02734,9.58984 -78.57031,14.58203c-27.52734,4.99609 -56.26953,10.05859 -85.86719,14.62109c-29.58984,4.57813 -60.01171,8.75781 -90.83984,12.01953c-30.85156,3.17969 -62.10156,5.41407 -93.24219,6.30078c-3.89062,0.09766 -7.77734,0.19141 -11.66797,0.28907l-5.82031,0.14062l-5.83203,-0.01562c-7.76172,-0.03125 -15.5,-0.00391 -23.21875,-0.09375c-15.45312,-0.26953 -30.79687,-1.03516 -45.94531,-2.15625c-15.15235,-1.11719 -30.11719,-2.64453 -44.80469,-4.63672c-14.68359,-1.98828 -29.12109,-4.25 -43.1875,-7.03906c-14.0625,-2.78516 -27.80469,-5.8125 -41.10156,-9.29688c-3.33985,-0.80859 -6.61719,-1.78906 -9.89453,-2.66797c-3.27344,-0.89453 -6.52735,-1.77734 -9.73047,-2.76172c-3.21094,-0.96093 -6.40235,-1.91406 -9.57031,-2.85937c-3.14454,-1.01563 -6.26954,-2.02735 -9.3711,-3.02735c-3.11328,-0.97265 -6.16406,-2.05078 -9.19531,-3.10937c-3.02734,-1.07031 -6.05469,-2.06641 -9.01563,-3.17969c-5.91796,-2.22656 -11.76171,-4.35156 -17.41015,-6.6914c-11.36719,-4.48829 -22.10938,-9.36719 -32.33203,-14.16016c-20.35938,-9.79688 -38.32422,-20.01172 -53.66797,-29.84766c-15.35938,-9.82812 -28.08985,-19.27343 -38.30469,-27.32422c-10.11719,-8.18359 -17.78125,-14.89062 -22.87891,-19.59765c-5.0664,-4.73047 -7.76171,-7.24219 -7.76171,-7.24219" id="svg_9"/>
  </clipPath>
  <clipPath id="clip-9">
   <path clip-rule="nonzero" d="m928.67186,107.14844l329,0l0,81l-329,0l0,-81zm0,0" id="svg_10"/>
  </clipPath>
  <clipPath id="clip-10">
   <path clip-rule="nonzero" d="m1256.71092,107.35157c0,0 -3.30078,1.85546 -9.09765,5.12109c-2.92188,1.61328 -6.42969,3.66797 -10.55078,5.87109c-4.16016,2.14453 -8.85938,4.57032 -14,7.21875c-1.28907,0.66016 -2.60157,1.35938 -3.94922,2.02344c-1.3711,0.64453 -2.76172,1.30078 -4.17188,1.96875c-2.83984,1.33594 -5.76953,2.72266 -8.80078,4.14844c-6.00781,2.95703 -12.57031,5.60937 -19.32812,8.54687c-13.55079,5.78125 -28.42188,11.32032 -43.67188,16.4961c-30.48828,10.35937 -62.82031,17.90625 -89.00781,22.375c-6.60156,1.03515 -12.76172,1.99609 -18.35156,2.87109c-5.71094,0.66797 -10.83985,1.26563 -15.26954,1.78516c-2.26171,0.24609 -4.35156,0.47656 -6.23828,0.68359c-1.91015,0.15625 -3.64062,0.26172 -5.1914,0.36719c-3.08985,0.19531 -5.41016,0.30859 -6.85157,0.32812c-2.8789,0.03907 -6.21875,-0.07031 -9.84765,-0.30859c-3.6211,-0.35156 -7.53906,-0.85938 -11.58203,-1.48438c-2.00782,-0.3125 -4.07032,-0.65625 -6.12891,-1.02734c-2.05859,-0.37891 -4.12891,-0.75 -6.17969,-1.28125c-4.12109,-0.99609 -8.1914,-2.10156 -12.05859,-3.28516c-7.76172,-2.25781 -14.65234,-5.3789 -19.53125,-8.33984c-4.87109,-3.00781 -7.71094,-6.08594 -7.39063,-9.01172c0.33204,-2.92578 3.75,-5.42969 8.96875,-7.51562c5.22266,-2.12891 12.21094,-3.61328 19.82032,-5.23438c3.80078,-0.75 7.74218,-1.40234 11.67968,-1.94922c1.97266,-0.24218 3.95313,-0.58593 5.91016,-0.86718c1.95313,-0.28907 3.89063,-0.54688 5.80078,-0.77344c3.8086,-0.46094 7.48047,-0.79688 10.85938,-1.01172c3.39062,-0.32813 6.5,-0.52344 9.17968,-0.55859c1.35157,-0.01563 3.51172,0.03906 6.40235,0.16015c1.42969,0.0625 3.05859,0.13281 4.86719,0.21485c1.77343,0.03515 3.73046,0.07031 5.86328,0.10937c4.17968,0.10547 9.01953,0.23047 14.41797,0.36719c5.32031,-0.01953 11.17968,-0.03906 17.46875,-0.0625c25.04296,-0.35547 56.62109,-2.34766 87.34375,-7.26953c15.34765,-2.45703 30.52734,-5.30469 44.55859,-8.61328c6.98828,-1.69922 13.80859,-3.16797 20.12109,-5.00782c3.16797,-0.87109 6.25782,-1.71875 9.23828,-2.53515c1.48829,-0.41016 2.96094,-0.8125 4.39844,-1.20703c1.4336,-0.41797 2.82031,-0.8711 4.19141,-1.28907c5.46875,-1.70703 10.48047,-3.26953 14.91015,-4.64843c4.41016,-1.44532 8.19141,-2.84375 11.33985,-3.92579c6.28906,-2.19921 9.85937,-3.44921 9.85937,-3.44921zm0,0" id="svg_11"/>
  </clipPath>
  <clipPath id="clip-11">
   <path clip-rule="nonzero" d="m1256.71092,107.35157c0,0 -3.30078,1.85546 -9.09765,5.12109c-2.92188,1.61328 -6.42969,3.66797 -10.55078,5.87109c-4.16016,2.14453 -8.85938,4.57032 -14,7.21875c-1.28907,0.66016 -2.60157,1.35938 -3.94922,2.02344c-1.3711,0.64453 -2.76172,1.30078 -4.17188,1.96875c-2.83984,1.33594 -5.76953,2.72266 -8.80078,4.14844c-6.00781,2.95703 -12.57031,5.60937 -19.32812,8.54687c-13.55079,5.78125 -28.42188,11.32032 -43.67188,16.4961c-30.48828,10.35937 -62.82031,17.90625 -89.00781,22.375c-6.60156,1.03515 -12.76172,1.99609 -18.35156,2.87109c-5.71094,0.66797 -10.83985,1.26563 -15.26954,1.78516c-2.26171,0.24609 -4.35156,0.47656 -6.23828,0.68359c-1.91015,0.15625 -3.64062,0.26172 -5.1914,0.36719c-3.08985,0.19531 -5.41016,0.30859 -6.85157,0.32812c-2.8789,0.03907 -6.21875,-0.07031 -9.84765,-0.30859c-3.6211,-0.35156 -7.53906,-0.85938 -11.58203,-1.48438c-2.00782,-0.3125 -4.07032,-0.65625 -6.12891,-1.02734c-2.05859,-0.37891 -4.12891,-0.75 -6.17969,-1.28125c-4.12109,-0.99609 -8.1914,-2.10156 -12.05859,-3.28516c-7.76172,-2.25781 -14.65234,-5.3789 -19.53125,-8.33984c-4.87109,-3.00781 -7.71094,-6.08594 -7.39063,-9.01172c0.33204,-2.92578 3.75,-5.42969 8.96875,-7.51562c5.22266,-2.12891 12.21094,-3.61328 19.82032,-5.23438c3.80078,-0.75 7.74218,-1.40234 11.67968,-1.94922c1.97266,-0.24218 3.95313,-0.58593 5.91016,-0.86718c1.95313,-0.28907 3.89063,-0.54688 5.80078,-0.77344c3.8086,-0.46094 7.48047,-0.79688 10.85938,-1.01172c3.39062,-0.32813 6.5,-0.52344 9.17968,-0.55859c1.35157,-0.01563 3.51172,0.03906 6.40235,0.16015c1.42969,0.0625 3.05859,0.13281 4.86719,0.21485c1.77343,0.03515 3.73046,0.07031 5.86328,0.10937c4.17968,0.10547 9.01953,0.23047 14.41797,0.36719c5.32031,-0.01953 11.17968,-0.03906 17.46875,-0.0625c25.04296,-0.35547 56.62109,-2.34766 87.34375,-7.26953c15.34765,-2.45703 30.52734,-5.30469 44.55859,-8.61328c6.98828,-1.69922 13.80859,-3.16797 20.12109,-5.00782c3.16797,-0.87109 6.25782,-1.71875 9.23828,-2.53515c1.48829,-0.41016 2.96094,-0.8125 4.39844,-1.20703c1.4336,-0.41797 2.82031,-0.8711 4.19141,-1.28907c5.46875,-1.70703 10.48047,-3.26953 14.91015,-4.64843c4.41016,-1.44532 8.19141,-2.84375 11.33985,-3.92579c6.28906,-2.19921 9.85937,-3.44921 9.85937,-3.44921" id="svg_12"/>
  </clipPath>
  <clipPath id="clip-12">
   <path clip-rule="nonzero" d="m1454.67186,100.14844l173,0l0,163l-173,0l0,-163zm0,0" id="svg_13"/>
  </clipPath>
  <clipPath id="clip-13">
   <path clip-rule="nonzero" d="m1455.03124,104.70313c0,0 4.24218,-0.50391 11.6914,-1.39453c7.46875,-0.83203 18.17969,-2.05078 31.30078,-2.61328c13.09766,-0.54688 28.73828,-0.36329 45.64844,2.99218c16.94922,3.30469 34.96875,10.70703 50.48047,23.0625c15.55078,12.21875 28.30859,30.35938 32.05078,51.87891c1.73828,10.84766 0.76953,21.57031 -1.91016,31.33594c-2.69921,9.78515 -7.14062,18.70703 -12.87109,26.33203c-5.69922,7.64062 -12.85156,13.91406 -20.55078,18.34765c-3.83984,2.23829 -7.84766,3.96094 -11.78906,5.23047c-1.96094,0.66797 -3.92969,1.13672 -5.83985,1.58594c-0.96093,0.22266 -1.92187,0.36328 -2.85937,0.53125c-0.94141,0.15625 -1.8711,0.32422 -2.78125,0.39844c-7.32813,0.85547 -13.85156,0.25 -18.85938,-0.78125c-5.05859,-1.00391 -8.62109,-2.44141 -10.78125,-3.34766c-4.30078,-1.89062 -8.9375,-4.67578 -13.25781,-8.30859c-4.33984,-3.625 -8.35156,-8.06641 -11.69141,-13.01172c-6.73046,-9.88281 -10.66796,-21.74219 -11.39843,-32.66797c-0.38282,-5.46484 -0.01953,-10.67578 0.92968,-15.28125c0.94922,-4.60547 2.48047,-8.58203 4.17969,-11.68359c1.76953,-3.10157 3.6875,-5.32813 5.50781,-6.61719c1.83985,-1.28906 3.47266,-1.67578 4.86329,-1.19922c2.8164,1 4.23828,5.10156 6.05859,10.17969c0.96094,2.5625 1.96094,5.38281 3.21875,8.3125c1.24219,2.92578 2.74219,5.94922 4.48047,8.89453c3.44922,5.89844 8.03906,11.37891 12.58203,15.17578c2.25781,1.91406 4.46875,3.42188 6.45703,4.5625c1.98047,1.14453 3.73047,1.92578 5.17188,2.57422c0.73046,0.28516 1.84765,0.89453 3.3789,1.37891c1.53125,0.51562 3.46094,1.00781 5.96094,1.13281c1.25,0.03125 2.58984,0.01953 4.03906,-0.23438c1.46094,-0.21875 3.03125,-0.57812 4.69922,-1.23828c3.32031,-1.26953 7.12109,-3.51172 10.70313,-7.05078c3.58984,-3.5 6.95703,-8.1875 9.39843,-13.66016c2.44922,-5.46093 3.98828,-11.69531 3.94922,-17.94531c-0.03125,-0.77734 0.01172,-1.57422 -0.07812,-2.34375l-0.08203,-1.17187c-0.01954,-0.39063 -0.1211,-0.83203 -0.17969,-1.2461c-0.30078,-1.67968 -0.41797,-3.42578 -0.92969,-5.10547c-0.19922,-0.85546 -0.41016,-1.71093 -0.62109,-2.57421c-0.23047,-0.85547 -0.5586,-1.6875 -0.82813,-2.54297c-0.3125,-0.84375 -0.53906,-1.72266 -0.89062,-2.5625l-1.08985,-2.51953l-0.53906,-1.27735c-0.17969,-0.42578 -0.42969,-0.82422 -0.64062,-1.23828l-1.3125,-2.49219c-0.39844,-0.85156 -0.95704,-1.6289 -1.44922,-2.4414l-1.50782,-2.4375c-1.15234,-1.55078 -2.24218,-3.15625 -3.46093,-4.6875l-1.87891,-2.25782l-0.95312,-1.13671l-1.01954,-1.07813c-5.36718,-5.8125 -11.66015,-10.98047 -18.41015,-15.30859l-1.25781,-0.82422l-1.28907,-0.75391c-0.87109,-0.50781 -1.73047,-1.01172 -2.58984,-1.51562c-1.72266,-0.9961 -3.52344,-1.83985 -5.27344,-2.77344c-1.77734,-0.85156 -3.57812,-1.62891 -5.35937,-2.44531c-1.84766,-0.72266 -3.67969,-1.44141 -5.5,-2.15235c-14.71875,-5.36328 -29.52735,-7.91015 -42.25782,-9.33593c-12.76953,-1.42188 -23.51171,-1.87891 -31,-2.21485c-7.5,-0.27344 -11.76171,-0.43359 -11.76171,-0.43359zm0,0" id="svg_14"/>
  </clipPath>
  <clipPath id="clip-14">
   <path clip-rule="nonzero" d="m1455.03124,104.70313c0,0 4.24218,-0.50391 11.6914,-1.39453c7.46875,-0.83203 18.17969,-2.05078 31.30078,-2.61328c13.09766,-0.54688 28.73828,-0.36329 45.64844,2.99218c16.94922,3.30469 34.96875,10.70703 50.48047,23.0625c15.55078,12.21875 28.30859,30.35938 32.05078,51.87891c1.73828,10.84766 0.76953,21.57031 -1.91016,31.33594c-2.69921,9.78515 -7.14062,18.70703 -12.87109,26.33203c-5.69922,7.64062 -12.85156,13.91406 -20.55078,18.34765c-3.83984,2.23829 -7.84766,3.96094 -11.78906,5.23047c-1.96094,0.66797 -3.92969,1.13672 -5.83985,1.58594c-0.96093,0.22266 -1.92187,0.36328 -2.85937,0.53125c-0.94141,0.15625 -1.8711,0.32422 -2.78125,0.39844c-7.32813,0.85547 -13.85156,0.25 -18.85938,-0.78125c-5.05859,-1.00391 -8.62109,-2.44141 -10.78125,-3.34766c-4.30078,-1.89062 -8.9375,-4.67578 -13.25781,-8.30859c-4.33984,-3.625 -8.35156,-8.06641 -11.69141,-13.01172c-6.73046,-9.88281 -10.66796,-21.74219 -11.39843,-32.66797c-0.38282,-5.46484 -0.01953,-10.67578 0.92968,-15.28125c0.94922,-4.60547 2.48047,-8.58203 4.17969,-11.68359c1.76953,-3.10157 3.6875,-5.32813 5.50781,-6.61719c1.83985,-1.28906 3.47266,-1.67578 4.86329,-1.19922c2.8164,1 4.23828,5.10156 6.05859,10.17969c0.96094,2.5625 1.96094,5.38281 3.21875,8.3125c1.24219,2.92578 2.74219,5.94922 4.48047,8.89453c3.44922,5.89844 8.03906,11.37891 12.58203,15.17578c2.25781,1.91406 4.46875,3.42188 6.45703,4.5625c1.98047,1.14453 3.73047,1.92578 5.17188,2.57422c0.73046,0.28516 1.84765,0.89453 3.3789,1.37891c1.53125,0.51562 3.46094,1.00781 5.96094,1.13281c1.25,0.03125 2.58984,0.01953 4.03906,-0.23438c1.46094,-0.21875 3.03125,-0.57812 4.69922,-1.23828c3.32031,-1.26953 7.12109,-3.51172 10.70313,-7.05078c3.58984,-3.5 6.95703,-8.1875 9.39843,-13.66016c2.44922,-5.46093 3.98828,-11.69531 3.94922,-17.94531c-0.03125,-0.77734 0.01172,-1.57422 -0.07812,-2.34375l-0.08203,-1.17187c-0.01954,-0.39063 -0.1211,-0.83203 -0.17969,-1.2461c-0.30078,-1.67968 -0.41797,-3.42578 -0.92969,-5.10547c-0.19922,-0.85546 -0.41016,-1.71093 -0.62109,-2.57421c-0.23047,-0.85547 -0.5586,-1.6875 -0.82813,-2.54297c-0.3125,-0.84375 -0.53906,-1.72266 -0.89062,-2.5625l-1.08985,-2.51953l-0.53906,-1.27735c-0.17969,-0.42578 -0.42969,-0.82422 -0.64062,-1.23828l-1.3125,-2.49219c-0.39844,-0.85156 -0.95704,-1.6289 -1.44922,-2.4414l-1.50782,-2.4375c-1.15234,-1.55078 -2.24218,-3.15625 -3.46093,-4.6875l-1.87891,-2.25782l-0.95312,-1.13671l-1.01954,-1.07813c-5.36718,-5.8125 -11.66015,-10.98047 -18.41015,-15.30859l-1.25781,-0.82422l-1.28907,-0.75391c-0.87109,-0.50781 -1.73047,-1.01172 -2.58984,-1.51562c-1.72266,-0.9961 -3.52344,-1.83985 -5.27344,-2.77344c-1.77734,-0.85156 -3.57812,-1.62891 -5.35937,-2.44531c-1.84766,-0.72266 -3.67969,-1.44141 -5.5,-2.15235c-14.71875,-5.36328 -29.52735,-7.91015 -42.25782,-9.33593c-12.76953,-1.42188 -23.51171,-1.87891 -31,-2.21485c-7.5,-0.27344 -11.76171,-0.43359 -11.76171,-0.43359" id="svg_15"/>
  </clipPath>
  <clipPath id="clip-15">
   <path clip-rule="nonzero" d="m1934.67186,9.14844l280,0l0,225l-280,0l0,-225zm0,0" id="svg_16"/>
  </clipPath>
  <clipPath id="clip-16">
   <path clip-rule="nonzero" d="m2083.68358,115.86328c0,0 0.45703,-0.23828 1.36719,-0.70703c0.89062,-0.48828 2.30078,-1.07812 3.91015,-2.24609c3.32032,-2.12891 7.96094,-5.94922 12.08203,-12.30078c1.09766,-1.53906 1.95704,-3.33594 2.95704,-5.17578c0.45312,-0.94532 0.85156,-1.9375 1.29296,-2.94532c0.46875,-0.99609 0.8086,-2.0664 1.16797,-3.15234c1.44922,-4.34375 2.55078,-9.26172 2.74219,-14.63281c0.23047,-5.35938 -0.3125,-11.16797 -2.10156,-17.0586c-1.78125,-5.84375 -4.64063,-11.72656 -8.64063,-17.17187c-3.98828,-5.44141 -9.02734,-10.47656 -14.89062,-14.83594c-5.86719,-4.37109 -12.62891,-7.9414 -19.97656,-10.67578c-7.36329,-2.70703 -15.41016,-4.32812 -23.74219,-4.80859c-4.14844,-0.13282 -8.39844,-0.15235 -12.64063,0.32422c-2.1289,0.14453 -4.23828,0.53515 -6.3789,0.82421c-1.0586,0.1836 -2.1211,0.41407 -3.17969,0.6211c-1.07031,0.20703 -2.12891,0.42187 -3.17969,0.70703c-1.0625,0.26953 -2.10937,0.53906 -3.17187,0.80469c-1.05078,0.32031 -2.09766,0.64062 -3.14844,0.95703l-1.58203,0.48828l-1.54688,0.55859c-1.04297,0.375 -2.08203,0.75391 -3.12109,1.13282c-4.10156,1.67187 -8.19141,3.48828 -12.12109,5.6914c-3.9375,2.17578 -7.82032,4.57422 -11.5,7.28906c-1.87891,1.3086 -3.64844,2.76954 -5.44922,4.20313c-0.89844,0.73047 -1.75,1.50391 -2.62891,2.26172c-0.88281,0.7539 -1.74219,1.52344 -2.57031,2.33594c-3.42969,3.14453 -6.57031,6.6289 -9.60938,10.23828c-3.01172,3.64453 -5.75,7.54297 -8.3125,11.59375c-2.48047,4.11328 -4.77734,8.3789 -6.71875,12.85547c-1.8789,4.49609 -3.60156,9.11718 -4.80859,13.92578c-5,19.20312 -3.88281,39.72656 1.94922,58.40234c5.82031,18.71875 16.05859,35.72656 29.21094,49.55859c3.29687,3.45313 6.73828,6.76172 10.3789,9.79297c3.60938,3.08203 7.41797,5.90235 11.33985,8.52344c0.98828,0.64063 1.98046,1.28125 2.96093,1.92188c1,0.625 2.01953,1.20703 3.02735,1.80859c2,1.23047 4.10156,2.27734 6.16015,3.38672c4.17188,2.0625 8.47266,4.01953 12.76953,5.54687c17.17969,6.35547 34.88282,8.53907 51.21094,7.91016c16.39063,-0.58594 31.49219,-3.96875 44.67969,-8.63672c13.21094,-4.69531 24.5625,-10.6875 33.85937,-16.91406c4.66016,-3.09766 8.85157,-6.22266 12.51954,-9.29297c3.71093,-3.02734 6.88281,-6.02734 9.67187,-8.73828c2.67188,-2.73047 4.98828,-5.14453 6.82813,-7.29297c1.91015,-2.10547 3.33203,-3.93359 4.4414,-5.31641c4.39063,-5.57422 8.96875,-12.39453 13.16016,-20.15625c4.19922,-7.75781 8.07031,-16.42578 11.16015,-25.57812c3.10938,-9.14453 5.57032,-18.73438 7.28907,-28.28906c1.69922,-9.5586 2.71093,-19.07422 3.13281,-28.12891c0.82812,-18.125 -0.67188,-34.35156 -3.03125,-45.91406c-2.35156,-11.57422 -5.49219,-18.51563 -8.39063,-18.42969c-2.98828,0.08594 -5.46093,7.15234 -8.21093,18.13672c-2.73047,10.98437 -5.80078,25.91797 -10.17969,41.625c-2.1875,7.85547 -4.6875,15.89453 -7.52734,23.73047c-2.85157,7.83203 -6.07032,15.4375 -9.5,22.5c-6.85157,14.16406 -14.85157,25.84375 -21.4336,34.14453c-0.82812,1.03125 -1.85937,2.43359 -3.22656,4.03125c-1.3125,1.65625 -2.97266,3.50781 -4.83984,5.63281c-1.90235,2.01953 -4.04297,4.29688 -6.61329,6.63281c-2.51953,2.3711 -5.4375,4.82422 -8.71875,7.3086c-6.53906,4.99609 -14.69921,10.01172 -24.3789,14.21093c-9.67188,4.17579 -20.89063,7.53125 -33.13281,8.83204c-12.19922,1.34375 -25.42969,0.66406 -38.40625,-3.08204c-12.84375,-3.58203 -25.51172,-10.6914 -36.5,-20.64062c-10.99219,-9.92188 -20.13282,-22.76563 -25.8125,-37.12109c-0.75782,-1.77735 -1.32813,-3.61719 -1.98047,-5.44141c-0.55078,-1.84766 -1.16016,-3.6875 -1.58985,-5.56641c-0.51953,-1.86718 -0.85937,-3.76172 -1.26953,-5.65625c-0.28906,-1.90234 -0.66797,-3.80859 -0.83984,-5.72656c-0.48047,-3.83594 -0.6211,-7.70312 -0.51953,-11.55859c0.05078,-3.8711 0.51172,-7.70313 1.14843,-11.45703c0.64063,-3.78125 1.72266,-7.4961 2.92188,-11.17188c1.26953,-3.66406 2.84766,-7.23047 4.58984,-10.72656c1.83985,-3.44531 3.82813,-6.82422 6.08985,-10.03125c2.28906,-3.17578 4.66797,-6.30469 7.35937,-9.16016c10.57031,-11.53515 23.94141,-20.3789 38.17188,-24.95312c0.8789,-0.32032 1.77734,-0.57032 2.66797,-0.81641c0.90234,-0.24609 1.78906,-0.51562 2.6914,-0.74219c1.80078,-0.38281 3.58985,-0.875 5.39844,-1.13281c3.60156,-0.69922 7.23047,-0.94531 10.8125,-1.125c7.17969,-0.13672 14.22656,0.69922 20.86719,2.56641c6.62109,1.89453 12.87109,4.57812 18.38281,8.05859c5.50781,3.46094 10.34766,7.58984 14.28906,12.16406c3.94922,4.57032 6.91797,9.64063 8.9375,14.75782c2,5.10546 2.9336,10.35937 3.11328,15.32421c0.20703,4.97657 -0.45312,9.66407 -1.5,13.86719c-0.25,1.0586 -0.5,2.09766 -0.87109,3.07422c-0.33984,0.98047 -0.64063,1.96094 -1,2.89453c-0.82031,1.8125 -1.49219,3.60938 -2.44141,5.16016c-3.44922,6.39453 -7.66797,10.49609 -10.77734,12.84765c-1.49219,1.28125 -2.83984,1.97266 -3.69141,2.53125c-0.87109,0.53516 -1.30859,0.8125 -1.30859,0.8125zm0,0" id="svg_17"/>
  </clipPath>
  <clipPath id="clip-17">
   <path clip-rule="nonzero" d="m2083.68358,115.86328c0,0 0.45703,-0.23828 1.36719,-0.70703c0.89062,-0.48828 2.30078,-1.07812 3.91015,-2.24609c3.32032,-2.12891 7.96094,-5.94922 12.08203,-12.30078c1.09766,-1.53906 1.95704,-3.33594 2.95704,-5.17578c0.45312,-0.94532 0.85156,-1.9375 1.29296,-2.94532c0.46875,-0.99609 0.8086,-2.0664 1.16797,-3.15234c1.44922,-4.34375 2.55078,-9.26172 2.74219,-14.63281c0.23047,-5.35938 -0.3125,-11.16797 -2.10156,-17.0586c-1.78125,-5.84375 -4.64063,-11.72656 -8.64063,-17.17187c-3.98828,-5.44141 -9.02734,-10.47656 -14.89062,-14.83594c-5.86719,-4.37109 -12.62891,-7.9414 -19.97656,-10.67578c-7.36329,-2.70703 -15.41016,-4.32812 -23.74219,-4.80859c-4.14844,-0.13282 -8.39844,-0.15235 -12.64063,0.32422c-2.1289,0.14453 -4.23828,0.53515 -6.3789,0.82421c-1.0586,0.1836 -2.1211,0.41407 -3.17969,0.6211c-1.07031,0.20703 -2.12891,0.42187 -3.17969,0.70703c-1.0625,0.26953 -2.10937,0.53906 -3.17187,0.80469c-1.05078,0.32031 -2.09766,0.64062 -3.14844,0.95703l-1.58203,0.48828l-1.54688,0.55859c-1.04297,0.375 -2.08203,0.75391 -3.12109,1.13282c-4.10156,1.67187 -8.19141,3.48828 -12.12109,5.6914c-3.9375,2.17578 -7.82032,4.57422 -11.5,7.28906c-1.87891,1.3086 -3.64844,2.76954 -5.44922,4.20313c-0.89844,0.73047 -1.75,1.50391 -2.62891,2.26172c-0.88281,0.7539 -1.74219,1.52344 -2.57031,2.33594c-3.42969,3.14453 -6.57031,6.6289 -9.60938,10.23828c-3.01172,3.64453 -5.75,7.54297 -8.3125,11.59375c-2.48047,4.11328 -4.77734,8.3789 -6.71875,12.85547c-1.8789,4.49609 -3.60156,9.11718 -4.80859,13.92578c-5,19.20312 -3.88281,39.72656 1.94922,58.40234c5.82031,18.71875 16.05859,35.72656 29.21094,49.55859c3.29687,3.45313 6.73828,6.76172 10.3789,9.79297c3.60938,3.08203 7.41797,5.90235 11.33985,8.52344c0.98828,0.64063 1.98046,1.28125 2.96093,1.92188c1,0.625 2.01953,1.20703 3.02735,1.80859c2,1.23047 4.10156,2.27734 6.16015,3.38672c4.17188,2.0625 8.47266,4.01953 12.76953,5.54687c17.17969,6.35547 34.88282,8.53907 51.21094,7.91016c16.39063,-0.58594 31.49219,-3.96875 44.67969,-8.63672c13.21094,-4.69531 24.5625,-10.6875 33.85937,-16.91406c4.66016,-3.09766 8.85157,-6.22266 12.51954,-9.29297c3.71093,-3.02734 6.88281,-6.02734 9.67187,-8.73828c2.67188,-2.73047 4.98828,-5.14453 6.82813,-7.29297c1.91015,-2.10547 3.33203,-3.93359 4.4414,-5.31641c4.39063,-5.57422 8.96875,-12.39453 13.16016,-20.15625c4.19922,-7.75781 8.07031,-16.42578 11.16015,-25.57812c3.10938,-9.14453 5.57032,-18.73438 7.28907,-28.28906c1.69922,-9.5586 2.71093,-19.07422 3.13281,-28.12891c0.82812,-18.125 -0.67188,-34.35156 -3.03125,-45.91406c-2.35156,-11.57422 -5.49219,-18.51563 -8.39063,-18.42969c-2.98828,0.08594 -5.46093,7.15234 -8.21093,18.13672c-2.73047,10.98437 -5.80078,25.91797 -10.17969,41.625c-2.1875,7.85547 -4.6875,15.89453 -7.52734,23.73047c-2.85157,7.83203 -6.07032,15.4375 -9.5,22.5c-6.85157,14.16406 -14.85157,25.84375 -21.4336,34.14453c-0.82812,1.03125 -1.85937,2.43359 -3.22656,4.03125c-1.3125,1.65625 -2.97266,3.50781 -4.83984,5.63281c-1.90235,2.01953 -4.04297,4.29688 -6.61329,6.63281c-2.51953,2.3711 -5.4375,4.82422 -8.71875,7.3086c-6.53906,4.99609 -14.69921,10.01172 -24.3789,14.21093c-9.67188,4.17579 -20.89063,7.53125 -33.13281,8.83204c-12.19922,1.34375 -25.42969,0.66406 -38.40625,-3.08204c-12.84375,-3.58203 -25.51172,-10.6914 -36.5,-20.64062c-10.99219,-9.92188 -20.13282,-22.76563 -25.8125,-37.12109c-0.75782,-1.77735 -1.32813,-3.61719 -1.98047,-5.44141c-0.55078,-1.84766 -1.16016,-3.6875 -1.58985,-5.56641c-0.51953,-1.86718 -0.85937,-3.76172 -1.26953,-5.65625c-0.28906,-1.90234 -0.66797,-3.80859 -0.83984,-5.72656c-0.48047,-3.83594 -0.6211,-7.70312 -0.51953,-11.55859c0.05078,-3.8711 0.51172,-7.70313 1.14843,-11.45703c0.64063,-3.78125 1.72266,-7.4961 2.92188,-11.17188c1.26953,-3.66406 2.84766,-7.23047 4.58984,-10.72656c1.83985,-3.44531 3.82813,-6.82422 6.08985,-10.03125c2.28906,-3.17578 4.66797,-6.30469 7.35937,-9.16016c10.57031,-11.53515 23.94141,-20.3789 38.17188,-24.95312c0.8789,-0.32032 1.77734,-0.57032 2.66797,-0.81641c0.90234,-0.24609 1.78906,-0.51562 2.6914,-0.74219c1.80078,-0.38281 3.58985,-0.875 5.39844,-1.13281c3.60156,-0.69922 7.23047,-0.94531 10.8125,-1.125c7.17969,-0.13672 14.22656,0.69922 20.86719,2.56641c6.62109,1.89453 12.87109,4.57812 18.38281,8.05859c5.50781,3.46094 10.34766,7.58984 14.28906,12.16406c3.94922,4.57032 6.91797,9.64063 8.9375,14.75782c2,5.10546 2.9336,10.35937 3.11328,15.32421c0.20703,4.97657 -0.45312,9.66407 -1.5,13.86719c-0.25,1.0586 -0.5,2.09766 -0.87109,3.07422c-0.33984,0.98047 -0.64063,1.96094 -1,2.89453c-0.82031,1.8125 -1.49219,3.60938 -2.44141,5.16016c-3.44922,6.39453 -7.66797,10.49609 -10.77734,12.84765c-1.49219,1.28125 -2.83984,1.97266 -3.69141,2.53125c-0.87109,0.53516 -1.30859,0.8125 -1.30859,0.8125" id="svg_18"/>
  </clipPath>
  <clipPath id="clip-18">
   <path clip-rule="nonzero" d="m2190.67186,25.14844l420,0l0,155l-420,0l0,-155zm0,0" id="svg_19"/>
  </clipPath>
  <clipPath id="clip-19">
   <path clip-rule="nonzero" d="m2191.11327,120.09375c0,0 1.39843,-1.03906 4.02734,-2.98828c1.3125,-0.97656 2.92969,-2.17969 4.83984,-3.59375c1.92188,-1.39844 4.20313,-2.91015 6.71094,-4.65234c10.10156,-6.89063 24.99219,-16.16406 43.92969,-25.29297c2.35937,-1.14844 4.83203,-2.21484 7.3125,-3.35938c1.23828,-0.5664 2.48828,-1.13671 3.75781,-1.71093c1.26953,-0.57032 2.58203,-1.07813 3.89063,-1.62891c2.62109,-1.07812 5.26953,-2.20312 7.98828,-3.28906c2.74219,-1.02735 5.52344,-2.07031 8.33984,-3.12891c11.33985,-4.08594 23.5,-7.86328 36.28125,-11.04297c25.58985,-6.28515 53.67188,-10.07422 81.96875,-10.37109c28.29297,-0.39453 56.74219,2.9375 82.94141,9.15625c13.10156,3.11719 25.66015,6.88672 37.42187,11.23828c5.83985,2.25391 11.57032,4.43359 17,6.89063c5.60938,2.34765 10.47657,4.72656 14.84766,7.22265c4.35937,2.48047 8,5.125 10.83203,7.70313c2.85938,2.57812 4.61719,5.10937 5.73828,7.33203c0.58985,1.11328 0.91016,2.1914 1.21094,3.23047c0.16797,1.03515 0.39062,1.96875 0.37109,2.9414c0.03907,1.91797 -0.22265,3.83985 -0.80078,5.79688c-1.28125,3.92969 -3.55078,7.65234 -5.78906,10.40625c-2.26172,2.78125 -4.39063,4.625 -5.60156,5.8164c-0.64844,0.5625 -1.32032,1.14844 -2.01953,1.75391c-0.69922,0.59766 -1.46875,1.13672 -2.21875,1.76953c-0.78125,0.55469 -1.58204,1.13281 -2.41016,1.72656c-0.94141,0.54688 -1.85156,1.21485 -2.86328,1.76172c-0.5,0.28516 -1.00781,0.57813 -1.51953,0.8711c-0.51953,0.29297 -1.0586,0.54297 -1.59766,0.82812c-1.0625,0.58985 -2.21094,1.05469 -3.35937,1.60938c-2.34375,0.96875 -4.80079,1.97265 -7.45313,2.72656c-5.25781,1.58594 -11.07031,2.64062 -17.05859,2.96875c-2.98828,0.17969 -6.03125,0.20703 -9.05078,0.02734c-1.51954,-0.04297 -3.00782,-0.22265 -4.51954,-0.33593c-1.48046,-0.20313 -2.98828,-0.32032 -4.44921,-0.59375c-11.83204,-1.78125 -22.39063,-6.11719 -30.15235,-10.02735c-3.89844,-1.94531 -7.1289,-3.7539 -9.76953,-4.82422c-2.57031,-1.12109 -4.58984,-1.48047 -5.79687,-0.64062c-1.21094,0.82812 -1.55079,2.83984 -0.98047,5.91797c0.63672,3.01562 2.23828,7.08203 5.11718,11.59375c2.89063,4.49609 7.05079,9.42578 12.49219,14.07422l2.07813,1.75c0.72265,0.57031 1.46093,1.12109 2.21093,1.6875c1.48829,1.16015 3.08985,2.1914 4.71875,3.28906c3.3125,2.07812 6.86329,4.11328 10.67188,5.83203c1.87891,0.91797 3.84766,1.66406 5.83984,2.47656c2.01953,0.71875 4.05078,1.48828 6.14844,2.08594c4.17969,1.29297 8.53125,2.27734 12.98047,2.96875c8.87109,1.41016 18.14062,1.52344 27.10937,0.30859c4.48047,-0.5625 8.8711,-1.58203 13.11329,-2.76562c2.09765,-0.66797 4.1875,-1.28125 6.19921,-2.08203c1,-0.39063 2.00782,-0.75 2.98047,-1.16797c0.97657,-0.4375 1.9375,-0.86328 2.88672,-1.28516c1.91016,-0.84375 3.71094,-1.85937 5.49219,-2.77734c1.78906,-1.0625 3.55859,-2.10156 5.19922,-3.19141c1.60156,-1.13672 3.17969,-2.21875 4.6289,-3.36328c1.41016,-1.17187 2.80079,-2.29297 4.07032,-3.44531c2.48047,-2.35938 6.47265,-6.19922 10.8125,-12.30078c1.03906,-1.57422 2.16015,-3.21875 3.25781,-5.03516c0.51953,-0.93359 1.05078,-1.89844 1.60156,-2.88281c0.26953,-0.4961 0.55078,-1 0.82031,-1.50781c0.26954,-0.51563 0.50782,-1.06641 0.76954,-1.61329c0.48828,-1.09765 1,-2.22265 1.51953,-3.37109c0.48828,-1.16797 0.91797,-2.4375 1.3789,-3.69531c0.22266,-0.63281 0.44141,-1.27344 0.67188,-1.92188c0.21094,-0.65625 0.3789,-1.35547 0.57031,-2.04297c0.34766,-1.39062 0.75,-2.78125 1.04688,-4.2539c1.1914,-5.89844 1.62109,-12.70313 0.5625,-19.88281c-0.48047,-3.59766 -1.51172,-7.23438 -2.76172,-10.81641c-1.35938,-3.50781 -3.02735,-7.00781 -5.10938,-10.23047c-4.1289,-6.49219 -9.50781,-12.08203 -15.28125,-16.44531c-5.77734,-4.39844 -11.9375,-7.91797 -18.17969,-10.80078c-6.21875,-2.88672 -12.64843,-5.3086 -18.84765,-7.30469c-6.25,-2.19922 -12.78906,-4.07031 -19.44141,-5.97656c-13.33984,-3.66016 -27.4414,-6.5625 -41.9414,-8.67188c-29.00782,-4.21094 -59.72657,-4.95312 -89.56641,-1.79687c-29.85156,3.05859 -58.76172,9.76172 -84.58203,18.72265c-12.91016,4.52344 -25.03906,9.58203 -36.25,14.85547c-2.78906,1.35156 -5.53125,2.6875 -8.23047,4c-2.67969,1.3711 -5.27734,2.77735 -7.83984,4.125c-1.28125,0.6875 -2.5586,1.33203 -3.80079,2.03125c-1.23828,0.71094 -2.45703,1.41016 -3.66796,2.10547c-2.42188,1.40234 -4.8125,2.71875 -7.10157,4.11328c-18.34765,11.08594 -32.41797,21.83594 -41.86718,29.69531c-2.35157,1.98829 -4.48047,3.71094 -6.26172,5.28907c-1.76953,1.59765 -3.28125,2.95312 -4.48828,4.05078c-2.4336,2.19531 -3.73047,3.35937 -3.73047,3.35937zm0,0" id="svg_20"/>
  </clipPath>
  <clipPath id="clip-20">
   <path clip-rule="nonzero" d="m2191.11327,120.09375c0,0 1.39843,-1.03906 4.02734,-2.98828c1.3125,-0.97656 2.92969,-2.17969 4.83984,-3.59375c1.92188,-1.39844 4.20313,-2.91015 6.71094,-4.65234c10.10156,-6.89063 24.99219,-16.16406 43.92969,-25.29297c2.35937,-1.14844 4.83203,-2.21484 7.3125,-3.35938c1.23828,-0.5664 2.48828,-1.13671 3.75781,-1.71093c1.26953,-0.57032 2.58203,-1.07813 3.89063,-1.62891c2.62109,-1.07812 5.26953,-2.20312 7.98828,-3.28906c2.74219,-1.02735 5.52344,-2.07031 8.33984,-3.12891c11.33985,-4.08594 23.5,-7.86328 36.28125,-11.04297c25.58985,-6.28515 53.67188,-10.07422 81.96875,-10.37109c28.29297,-0.39453 56.74219,2.9375 82.94141,9.15625c13.10156,3.11719 25.66015,6.88672 37.42187,11.23828c5.83985,2.25391 11.57032,4.43359 17,6.89063c5.60938,2.34765 10.47657,4.72656 14.84766,7.22265c4.35937,2.48047 8,5.125 10.83203,7.70313c2.85938,2.57812 4.61719,5.10937 5.73828,7.33203c0.58985,1.11328 0.91016,2.1914 1.21094,3.23047c0.16797,1.03515 0.39062,1.96875 0.37109,2.9414c0.03907,1.91797 -0.22265,3.83985 -0.80078,5.79688c-1.28125,3.92969 -3.55078,7.65234 -5.78906,10.40625c-2.26172,2.78125 -4.39063,4.625 -5.60156,5.8164c-0.64844,0.5625 -1.32032,1.14844 -2.01953,1.75391c-0.69922,0.59766 -1.46875,1.13672 -2.21875,1.76953c-0.78125,0.55469 -1.58204,1.13281 -2.41016,1.72656c-0.94141,0.54688 -1.85156,1.21485 -2.86328,1.76172c-0.5,0.28516 -1.00781,0.57813 -1.51953,0.8711c-0.51953,0.29297 -1.0586,0.54297 -1.59766,0.82812c-1.0625,0.58985 -2.21094,1.05469 -3.35937,1.60938c-2.34375,0.96875 -4.80079,1.97265 -7.45313,2.72656c-5.25781,1.58594 -11.07031,2.64062 -17.05859,2.96875c-2.98828,0.17969 -6.03125,0.20703 -9.05078,0.02734c-1.51954,-0.04297 -3.00782,-0.22265 -4.51954,-0.33593c-1.48046,-0.20313 -2.98828,-0.32032 -4.44921,-0.59375c-11.83204,-1.78125 -22.39063,-6.11719 -30.15235,-10.02735c-3.89844,-1.94531 -7.1289,-3.7539 -9.76953,-4.82422c-2.57031,-1.12109 -4.58984,-1.48047 -5.79687,-0.64062c-1.21094,0.82812 -1.55079,2.83984 -0.98047,5.91797c0.63672,3.01562 2.23828,7.08203 5.11718,11.59375c2.89063,4.49609 7.05079,9.42578 12.49219,14.07422l2.07813,1.75c0.72265,0.57031 1.46093,1.12109 2.21093,1.6875c1.48829,1.16015 3.08985,2.1914 4.71875,3.28906c3.3125,2.07812 6.86329,4.11328 10.67188,5.83203c1.87891,0.91797 3.84766,1.66406 5.83984,2.47656c2.01953,0.71875 4.05078,1.48828 6.14844,2.08594c4.17969,1.29297 8.53125,2.27734 12.98047,2.96875c8.87109,1.41016 18.14062,1.52344 27.10937,0.30859c4.48047,-0.5625 8.8711,-1.58203 13.11329,-2.76562c2.09765,-0.66797 4.1875,-1.28125 6.19921,-2.08203c1,-0.39063 2.00782,-0.75 2.98047,-1.16797c0.97657,-0.4375 1.9375,-0.86328 2.88672,-1.28516c1.91016,-0.84375 3.71094,-1.85937 5.49219,-2.77734c1.78906,-1.0625 3.55859,-2.10156 5.19922,-3.19141c1.60156,-1.13672 3.17969,-2.21875 4.6289,-3.36328c1.41016,-1.17187 2.80079,-2.29297 4.07032,-3.44531c2.48047,-2.35938 6.47265,-6.19922 10.8125,-12.30078c1.03906,-1.57422 2.16015,-3.21875 3.25781,-5.03516c0.51953,-0.93359 1.05078,-1.89844 1.60156,-2.88281c0.26953,-0.4961 0.55078,-1 0.82031,-1.50781c0.26954,-0.51563 0.50782,-1.06641 0.76954,-1.61329c0.48828,-1.09765 1,-2.22265 1.51953,-3.37109c0.48828,-1.16797 0.91797,-2.4375 1.3789,-3.69531c0.22266,-0.63281 0.44141,-1.27344 0.67188,-1.92188c0.21094,-0.65625 0.3789,-1.35547 0.57031,-2.04297c0.34766,-1.39062 0.75,-2.78125 1.04688,-4.2539c1.1914,-5.89844 1.62109,-12.70313 0.5625,-19.88281c-0.48047,-3.59766 -1.51172,-7.23438 -2.76172,-10.81641c-1.35938,-3.50781 -3.02735,-7.00781 -5.10938,-10.23047c-4.1289,-6.49219 -9.50781,-12.08203 -15.28125,-16.44531c-5.77734,-4.39844 -11.9375,-7.91797 -18.17969,-10.80078c-6.21875,-2.88672 -12.64843,-5.3086 -18.84765,-7.30469c-6.25,-2.19922 -12.78906,-4.07031 -19.44141,-5.97656c-13.33984,-3.66016 -27.4414,-6.5625 -41.9414,-8.67188c-29.00782,-4.21094 -59.72657,-4.95312 -89.56641,-1.79687c-29.85156,3.05859 -58.76172,9.76172 -84.58203,18.72265c-12.91016,4.52344 -25.03906,9.58203 -36.25,14.85547c-2.78906,1.35156 -5.53125,2.6875 -8.23047,4c-2.67969,1.3711 -5.27734,2.77735 -7.83984,4.125c-1.28125,0.6875 -2.5586,1.33203 -3.80079,2.03125c-1.23828,0.71094 -2.45703,1.41016 -3.66796,2.10547c-2.42188,1.40234 -4.8125,2.71875 -7.10157,4.11328c-18.34765,11.08594 -32.41797,21.83594 -41.86718,29.69531c-2.35157,1.98829 -4.48047,3.71094 -6.26172,5.28907c-1.76953,1.59765 -3.28125,2.95312 -4.48828,4.05078c-2.4336,2.19531 -3.73047,3.35937 -3.73047,3.35937" id="svg_21"/>
  </clipPath>
  <clipPath id="clip-21">
   <path clip-rule="nonzero" d="m2575.67186,34.14844l1274,0l0,146l-1274,0l0,-146zm0,0" id="svg_22"/>
  </clipPath>
  <clipPath id="clip-22">
   <path clip-rule="nonzero" d="m3849.34374,34.24219c0,0 -2.80079,2.38672 -8.08204,6.88281c-5.28906,4.46485 -13.23828,10.8125 -23.66796,18.5c-10.52344,7.55078 -23.59375,16.36328 -39.24219,25.41797c-15.64063,9.06641 -33.85156,18.36719 -54.3711,27.13672c-10.29687,4.28125 -21.08984,8.61719 -32.48046,12.53906c-5.65625,2.0586 -11.50782,3.89063 -17.41797,5.82422c-2.96094,0.96094 -5.98828,1.8086 -9.01172,2.73438c-3.01953,0.90625 -6.07031,1.83203 -9.16797,2.65234c-3.08984,0.85156 -6.21094,1.70703 -9.33984,2.56641c-3.16016,0.79297 -6.33204,1.58984 -9.53125,2.39062c-3.17969,0.83203 -6.41797,1.5586 -9.66797,2.29297c-3.26172,0.71875 -6.51172,1.53906 -9.83203,2.1875c-13.19922,2.84375 -26.8086,5.21875 -40.71094,7.33984c-13.89844,2.12891 -28.13672,3.71875 -42.59766,5.03907c-14.46094,1.3164 -29.16015,2.17187 -44.01953,2.61718c-14.85937,0.44532 -29.88281,0.54297 -44.98047,0.14844c-7.55078,-0.24219 -15.14062,-0.60156 -22.73047,-0.89453l-5.6914,-0.23437l-5.70703,-0.38282c-3.80079,-0.26172 -7.60157,-0.51953 -11.41016,-0.78125c-30.45313,-2.1875 -60.98047,-5.6914 -91.13281,-10.10156c-30.14063,-4.5 -59.91016,-9.88281 -88.92969,-15.62891c-29.01953,-5.72656 -57.27734,-11.92578 -84.42969,-18.01562c-27.14844,-6.08203 -53.19922,-12.12109 -77.76953,-17.71484c-24.55078,-5.62891 -47.67187,-10.76172 -68.83984,-15.35157c-10.6211,-2.22265 -20.73828,-4.33593 -30.30078,-6.33593c-9.59766,-1.90235 -18.62891,-3.73829 -27.08985,-5.35547c-8.46875,-1.57032 -16.32812,-3.02735 -23.50781,-4.35938c-7.23047,-1.23047 -13.78125,-2.34765 -19.60156,-3.33594c-2.92188,-0.48828 -5.66016,-0.94531 -8.19922,-1.37109c-2.55078,-0.41406 -4.92969,-0.74609 -7.10156,-1.07422c-4.35938,-0.625 -7.91797,-1.14062 -10.64844,-1.53125c-10.90235,-1.60937 -23.65235,-2.85547 -37.49219,-4.25781c-13.89844,-1.10938 -28.91797,-2.32813 -44.54687,-2.85547c-31.21094,-1.29297 -64.66016,-0.87891 -95.19141,1.5625c-7.62891,0.73047 -15.08203,1.5 -22.26172,2.27344c-1.78906,0.19531 -3.57031,0.39062 -5.33984,0.58203c-1.75,0.25391 -3.48828,0.50391 -5.23047,0.75391c-3.39844,0.51562 -6.77735,1.02343 -10.10938,1.52734c-13.16015,1.83594 -24.91015,4.5625 -34.73047,6.80078c-4.91796,1.07422 -9.30859,2.46094 -13.16015,3.66016c-3.83985,1.22265 -7.12891,2.375 -9.79688,3.45703c-5.32031,2.15625 -8.14062,4.00781 -7.90234,5.46094c0.23047,1.45312 3.51172,2.4414 9.17187,3.03906c2.83985,0.29687 6.26954,0.5 10.23047,0.61328c3.95703,0.13281 8.41797,0.05469 13.36719,0.25781c9.90234,0.32422 21.55078,0.04688 34.49219,0.4961c3.25781,0.05468 6.55859,0.10937 9.89844,0.16796c1.6914,0.01954 3.39062,0.04297 5.10156,0.06641c1.73047,0.07031 3.46875,0.14453 5.21094,0.21875c7,0.28906 14.22656,0.53906 21.60937,0.77734c29.57031,1.4375 61.67969,4.10547 91.6875,7.47266c15.01172,1.5625 29.5,3.57031 42.89063,5.19531c13.39062,1.92578 25.71093,3.41797 36.35156,4.98828c2.66015,0.35157 6.14062,0.8125 10.39062,1.375c2.11719,0.27344 4.42969,0.57422 6.9375,0.89844c2.49219,0.35156 5.17969,0.73047 8.03907,1.13672c5.72265,0.80078 12.16015,1.70703 19.25,2.70313c7.09375,1.07421 14.85156,2.24609 23.21093,3.51562c8.35157,1.34766 17.3125,2.79297 26.82032,4.32422c9.51171,1.625 19.57031,3.34375 30.1289,5.14844c21.1211,3.7539 44.23047,7.94922 68.95313,12.59375c24.71875,4.60156 51.02734,9.58984 78.57031,14.58203c27.52734,4.99609 56.26953,10.05859 85.86719,14.62109c29.58984,4.57813 60.01172,8.75781 90.83984,12.01953c30.85156,3.17969 62.10156,5.41407 93.24219,6.30078c3.89062,0.09766 7.77734,0.19141 11.66797,0.28907l5.82031,0.14062l5.83203,-0.01562c7.75781,-0.03125 15.5,-0.00391 23.21875,-0.09375c15.46094,-0.26953 30.80078,-1.03516 45.94922,-2.15625c15.15234,-1.11719 30.10937,-2.64453 44.80078,-4.63672c14.69141,-1.98828 29.12109,-4.25 43.19141,-7.03906c14.05859,-2.78516 27.79687,-5.8125 41.09765,-9.29688c3.33985,-0.80859 6.6211,-1.78906 9.89063,-2.66797c3.28125,-0.89453 6.53125,-1.77734 9.74219,-2.76172c3.20703,-0.96093 6.39843,-1.91406 9.55859,-2.85937c3.14844,-1.01563 6.26953,-2.02735 9.37891,-3.02735c3.10937,-0.97265 6.16015,-2.05078 9.1914,-3.10937c3.02735,-1.07031 6.0586,-2.06641 9.01953,-3.17969c5.91016,-2.22656 11.75782,-4.35156 17.41016,-6.6914c11.35937,-4.48829 22.09766,-9.36719 32.32812,-14.16016c20.36329,-9.79688 38.32032,-20.01172 53.67188,-29.84766c15.35937,-9.82812 28.08984,-19.27343 38.30078,-27.32422c10.11719,-8.18359 17.77734,-14.89062 22.87891,-19.59765c5.07031,-4.73047 7.76172,-7.24219 7.76172,-7.24219zm0,0" id="svg_23"/>
  </clipPath>
  <clipPath id="clip-23">
   <path clip-rule="nonzero" d="m3849.34374,34.24219c0,0 -2.80079,2.38672 -8.08204,6.88281c-5.28906,4.46485 -13.23828,10.8125 -23.66796,18.5c-10.52344,7.55078 -23.59375,16.36328 -39.24219,25.41797c-15.64063,9.06641 -33.85156,18.36719 -54.3711,27.13672c-10.29687,4.28125 -21.08984,8.61719 -32.48046,12.53906c-5.65625,2.0586 -11.50782,3.89063 -17.41797,5.82422c-2.96094,0.96094 -5.98828,1.8086 -9.01172,2.73438c-3.01953,0.90625 -6.07031,1.83203 -9.16797,2.65234c-3.08984,0.85156 -6.21094,1.70703 -9.33984,2.56641c-3.16016,0.79297 -6.33204,1.58984 -9.53125,2.39062c-3.17969,0.83203 -6.41797,1.5586 -9.66797,2.29297c-3.26172,0.71875 -6.51172,1.53906 -9.83203,2.1875c-13.19922,2.84375 -26.8086,5.21875 -40.71094,7.33984c-13.89844,2.12891 -28.13672,3.71875 -42.59766,5.03907c-14.46094,1.3164 -29.16015,2.17187 -44.01953,2.61718c-14.85937,0.44532 -29.88281,0.54297 -44.98047,0.14844c-7.55078,-0.24219 -15.14062,-0.60156 -22.73047,-0.89453l-5.6914,-0.23437l-5.70703,-0.38282c-3.80079,-0.26172 -7.60157,-0.51953 -11.41016,-0.78125c-30.45313,-2.1875 -60.98047,-5.6914 -91.13281,-10.10156c-30.14063,-4.5 -59.91016,-9.88281 -88.92969,-15.62891c-29.01953,-5.72656 -57.27734,-11.92578 -84.42969,-18.01562c-27.14844,-6.08203 -53.19922,-12.12109 -77.76953,-17.71484c-24.55078,-5.62891 -47.67187,-10.76172 -68.83984,-15.35157c-10.6211,-2.22265 -20.73828,-4.33593 -30.30078,-6.33593c-9.59766,-1.90235 -18.62891,-3.73829 -27.08985,-5.35547c-8.46875,-1.57032 -16.32812,-3.02735 -23.50781,-4.35938c-7.23047,-1.23047 -13.78125,-2.34765 -19.60156,-3.33594c-2.92188,-0.48828 -5.66016,-0.94531 -8.19922,-1.37109c-2.55078,-0.41406 -4.92969,-0.74609 -7.10156,-1.07422c-4.35938,-0.625 -7.91797,-1.14062 -10.64844,-1.53125c-10.90235,-1.60937 -23.65235,-2.85547 -37.49219,-4.25781c-13.89844,-1.10938 -28.91797,-2.32813 -44.54687,-2.85547c-31.21094,-1.29297 -64.66016,-0.87891 -95.19141,1.5625c-7.62891,0.73047 -15.08203,1.5 -22.26172,2.27344c-1.78906,0.19531 -3.57031,0.39062 -5.33984,0.58203c-1.75,0.25391 -3.48828,0.50391 -5.23047,0.75391c-3.39844,0.51562 -6.77735,1.02343 -10.10938,1.52734c-13.16015,1.83594 -24.91015,4.5625 -34.73047,6.80078c-4.91796,1.07422 -9.30859,2.46094 -13.16015,3.66016c-3.83985,1.22265 -7.12891,2.375 -9.79688,3.45703c-5.32031,2.15625 -8.14062,4.00781 -7.90234,5.46094c0.23047,1.45312 3.51172,2.4414 9.17187,3.03906c2.83985,0.29687 6.26954,0.5 10.23047,0.61328c3.95703,0.13281 8.41797,0.05469 13.36719,0.25781c9.90234,0.32422 21.55078,0.04688 34.49219,0.4961c3.25781,0.05468 6.55859,0.10937 9.89844,0.16796c1.6914,0.01954 3.39062,0.04297 5.10156,0.06641c1.73047,0.07031 3.46875,0.14453 5.21094,0.21875c7,0.28906 14.22656,0.53906 21.60937,0.77734c29.57031,1.4375 61.67969,4.10547 91.6875,7.47266c15.01172,1.5625 29.5,3.57031 42.89063,5.19531c13.39062,1.92578 25.71093,3.41797 36.35156,4.98828c2.66015,0.35157 6.14062,0.8125 10.39062,1.375c2.11719,0.27344 4.42969,0.57422 6.9375,0.89844c2.49219,0.35156 5.17969,0.73047 8.03907,1.13672c5.72265,0.80078 12.16015,1.70703 19.25,2.70313c7.09375,1.07421 14.85156,2.24609 23.21093,3.51562c8.35157,1.34766 17.3125,2.79297 26.82032,4.32422c9.51171,1.625 19.57031,3.34375 30.1289,5.14844c21.1211,3.7539 44.23047,7.94922 68.95313,12.59375c24.71875,4.60156 51.02734,9.58984 78.57031,14.58203c27.52734,4.99609 56.26953,10.05859 85.86719,14.62109c29.58984,4.57813 60.01172,8.75781 90.83984,12.01953c30.85156,3.17969 62.10156,5.41407 93.24219,6.30078c3.89062,0.09766 7.77734,0.19141 11.66797,0.28907l5.82031,0.14062l5.83203,-0.01562c7.75781,-0.03125 15.5,-0.00391 23.21875,-0.09375c15.46094,-0.26953 30.80078,-1.03516 45.94922,-2.15625c15.15234,-1.11719 30.10937,-2.64453 44.80078,-4.63672c14.69141,-1.98828 29.12109,-4.25 43.19141,-7.03906c14.05859,-2.78516 27.79687,-5.8125 41.09765,-9.29688c3.33985,-0.80859 6.6211,-1.78906 9.89063,-2.66797c3.28125,-0.89453 6.53125,-1.77734 9.74219,-2.76172c3.20703,-0.96093 6.39843,-1.91406 9.55859,-2.85937c3.14844,-1.01563 6.26953,-2.02735 9.37891,-3.02735c3.10937,-0.97265 6.16015,-2.05078 9.1914,-3.10937c3.02735,-1.07031 6.0586,-2.06641 9.01953,-3.17969c5.91016,-2.22656 11.75782,-4.35156 17.41016,-6.6914c11.35937,-4.48829 22.09766,-9.36719 32.32812,-14.16016c20.36329,-9.79688 38.32032,-20.01172 53.67188,-29.84766c15.35937,-9.82812 28.08984,-19.27343 38.30078,-27.32422c10.11719,-8.18359 17.77734,-14.89062 22.87891,-19.59765c5.07031,-4.73047 7.76172,-7.24219 7.76172,-7.24219" id="svg_24"/>
  </clipPath>
  <clipPath id="clip-24">
   <path clip-rule="nonzero" d="m2601.67186,107.14844l329,0l0,81l-329,0l0,-81zm0,0" id="svg_25"/>
  </clipPath>
  <clipPath id="clip-25">
   <path clip-rule="nonzero" d="m2602.6328,107.35157c0,0 3.30078,1.85546 9.09765,5.12109c2.92188,1.61328 6.42969,3.66797 10.55079,5.87109c4.16015,2.14453 8.85937,4.57032 14,7.21875c1.28906,0.66016 2.60156,1.35938 3.94921,2.02344c1.3711,0.64453 2.76172,1.30078 4.17188,1.96875c2.83984,1.33594 5.76953,2.72266 8.80078,4.14844c6.00781,2.95703 12.55859,5.60937 19.32813,8.54687c13.55078,5.78125 28.42187,11.32032 43.67187,16.4961c30.48828,10.35937 62.82031,17.90625 89.00781,22.375c6.60157,1.03515 12.76172,1.99609 18.35157,2.87109c5.71093,0.66797 10.83984,1.26563 15.26953,1.78516c2.26172,0.24609 4.35156,0.47656 6.23828,0.68359c1.91015,0.15625 3.64062,0.26172 5.1914,0.36719c3.08985,0.19531 5.41016,0.30859 6.85157,0.32812c2.8789,0.03907 6.21875,-0.07031 9.84765,-0.30859c3.6211,-0.35156 7.53907,-0.85938 11.58203,-1.48438c2.00782,-0.3125 4.07032,-0.65625 6.12891,-1.02734c2.05859,-0.37891 4.12891,-0.75 6.17969,-1.28125c4.12109,-0.99609 8.1914,-2.10156 12.05859,-3.28516c7.76172,-2.25781 14.65235,-5.3789 19.53125,-8.33984c4.8711,-3.00781 7.71094,-6.08594 7.39063,-9.01172c-0.33203,-2.92578 -3.75,-5.42969 -8.96875,-7.51562c-5.22266,-2.12891 -12.21094,-3.61328 -19.82032,-5.23438c-3.80078,-0.75 -7.74218,-1.40234 -11.67968,-1.94922c-1.97266,-0.24218 -3.95313,-0.58593 -5.91016,-0.86718c-1.95312,-0.28907 -3.89062,-0.54688 -5.80078,-0.77344c-3.80859,-0.46094 -7.48047,-0.79688 -10.85938,-1.01172c-3.39062,-0.32813 -6.5,-0.52344 -9.17968,-0.55859c-1.35157,-0.01563 -3.51953,0.03906 -6.40235,0.16015c-1.42968,0.0625 -3.05859,0.13281 -4.86718,0.21485c-1.77344,0.03515 -3.73047,0.07031 -5.86329,0.10937c-4.17968,0.10547 -9.01953,0.23047 -14.41796,0.36719c-5.32032,-0.01953 -11.17969,-0.03906 -17.46875,-0.0625c-25.04297,-0.35547 -56.6211,-2.34766 -87.34375,-7.26953c-15.34766,-2.45703 -30.52735,-5.30469 -44.5586,-8.61328c-6.98828,-1.69922 -13.80859,-3.16797 -20.12109,-5.00782c-3.16797,-0.87109 -6.25781,-1.71875 -9.23828,-2.53515c-1.48828,-0.41016 -2.96094,-0.8125 -4.39844,-1.20703c-1.43359,-0.41797 -2.82031,-0.8711 -4.19141,-1.28907c-5.46875,-1.70703 -10.48047,-3.26953 -14.91015,-4.64843c-4.41016,-1.44532 -8.19141,-2.84375 -11.33985,-3.92579c-6.28906,-2.19921 -9.85937,-3.44921 -9.85937,-3.44921zm0,0" id="svg_26"/>
  </clipPath>
  <clipPath id="clip-26">
   <path clip-rule="nonzero" d="m2602.6328,107.35157c0,0 3.30078,1.85546 9.09765,5.12109c2.92188,1.61328 6.42969,3.66797 10.55079,5.87109c4.16015,2.14453 8.85937,4.57032 14,7.21875c1.28906,0.66016 2.60156,1.35938 3.94921,2.02344c1.3711,0.64453 2.76172,1.30078 4.17188,1.96875c2.83984,1.33594 5.76953,2.72266 8.80078,4.14844c6.00781,2.95703 12.55859,5.60937 19.32813,8.54687c13.55078,5.78125 28.42187,11.32032 43.67187,16.4961c30.48828,10.35937 62.82031,17.90625 89.00781,22.375c6.60157,1.03515 12.76172,1.99609 18.35157,2.87109c5.71093,0.66797 10.83984,1.26563 15.26953,1.78516c2.26172,0.24609 4.35156,0.47656 6.23828,0.68359c1.91015,0.15625 3.64062,0.26172 5.1914,0.36719c3.08985,0.19531 5.41016,0.30859 6.85157,0.32812c2.8789,0.03907 6.21875,-0.07031 9.84765,-0.30859c3.6211,-0.35156 7.53907,-0.85938 11.58203,-1.48438c2.00782,-0.3125 4.07032,-0.65625 6.12891,-1.02734c2.05859,-0.37891 4.12891,-0.75 6.17969,-1.28125c4.12109,-0.99609 8.1914,-2.10156 12.05859,-3.28516c7.76172,-2.25781 14.65235,-5.3789 19.53125,-8.33984c4.8711,-3.00781 7.71094,-6.08594 7.39063,-9.01172c-0.33203,-2.92578 -3.75,-5.42969 -8.96875,-7.51562c-5.22266,-2.12891 -12.21094,-3.61328 -19.82032,-5.23438c-3.80078,-0.75 -7.74218,-1.40234 -11.67968,-1.94922c-1.97266,-0.24218 -3.95313,-0.58593 -5.91016,-0.86718c-1.95312,-0.28907 -3.89062,-0.54688 -5.80078,-0.77344c-3.80859,-0.46094 -7.48047,-0.79688 -10.85938,-1.01172c-3.39062,-0.32813 -6.5,-0.52344 -9.17968,-0.55859c-1.35157,-0.01563 -3.51953,0.03906 -6.40235,0.16015c-1.42968,0.0625 -3.05859,0.13281 -4.86718,0.21485c-1.77344,0.03515 -3.73047,0.07031 -5.86329,0.10937c-4.17968,0.10547 -9.01953,0.23047 -14.41796,0.36719c-5.32032,-0.01953 -11.17969,-0.03906 -17.46875,-0.0625c-25.04297,-0.35547 -56.6211,-2.34766 -87.34375,-7.26953c-15.34766,-2.45703 -30.52735,-5.30469 -44.5586,-8.61328c-6.98828,-1.69922 -13.80859,-3.16797 -20.12109,-5.00782c-3.16797,-0.87109 -6.25781,-1.71875 -9.23828,-2.53515c-1.48828,-0.41016 -2.96094,-0.8125 -4.39844,-1.20703c-1.43359,-0.41797 -2.82031,-0.8711 -4.19141,-1.28907c-5.46875,-1.70703 -10.48047,-3.26953 -14.91015,-4.64843c-4.41016,-1.44532 -8.19141,-2.84375 -11.33985,-3.92579c-6.28906,-2.19921 -9.85937,-3.44921 -9.85937,-3.44921" id="svg_27"/>
  </clipPath>
  <clipPath id="clip-27">
   <path clip-rule="nonzero" d="m2231.67186,100.14844l173,0l0,163l-173,0l0,-163zm0,0" id="svg_28"/>
  </clipPath>
  <clipPath id="clip-28">
   <path clip-rule="nonzero" d="m2404.31249,104.70313c0,0 -4.24219,-0.50391 -11.69141,-1.39453c-7.46875,-0.83203 -18.17969,-2.05078 -31.30078,-2.61328c-13.09766,-0.54688 -28.73828,-0.36329 -45.64844,2.99218c-16.94922,3.30469 -34.96875,10.70703 -50.48047,23.0625c-15.55078,12.21875 -28.30859,30.35938 -32.05078,51.87891c-1.73828,10.84766 -0.75781,21.57031 1.91016,31.33594c2.69922,9.78515 7.14062,18.70703 12.87109,26.33203c5.69922,7.64062 12.83984,13.91406 20.55078,18.34765c3.83985,2.23829 7.84766,3.96094 11.78906,5.23047c1.96094,0.66797 3.92969,1.13672 5.83985,1.58594c0.96094,0.22266 1.92187,0.36328 2.85937,0.53125c0.94141,0.15625 1.8711,0.32422 2.78125,0.39844c7.32813,0.85547 13.85157,0.25 18.85938,-0.78125c5.05859,-1.00391 8.62109,-2.44141 10.78125,-3.34766c4.30078,-1.89062 8.9375,-4.67578 13.25781,-8.30859c4.33984,-3.625 8.35156,-8.06641 11.69141,-13.01172c6.73047,-9.88281 10.66797,-21.74219 11.39843,-32.66797c0.38282,-5.46484 0.01954,-10.67578 -0.92968,-15.28125c-0.94922,-4.60547 -2.48047,-8.58203 -4.17969,-11.68359c-1.76953,-3.10157 -3.6875,-5.32813 -5.50781,-6.61719c-1.83985,-1.28906 -3.47266,-1.67578 -4.86328,-1.19922c-2.81641,1 -4.23829,5.10156 -6.0586,10.17969c-0.96094,2.5625 -1.96094,5.38281 -3.21875,8.3125c-1.24219,2.92578 -2.75,5.94922 -4.48047,8.89453c-3.44922,5.89844 -8.03906,11.37891 -12.58203,15.17578c-2.25781,1.91406 -4.46875,3.42188 -6.45703,4.5625c-1.98047,1.14453 -3.73047,1.92578 -5.17187,2.57422c-0.73047,0.28516 -1.84766,0.89453 -3.37891,1.37891c-1.53125,0.51562 -3.46094,1.00781 -5.96094,1.13281c-1.25,0.03125 -2.58984,0.01953 -4.03906,-0.23438c-1.46094,-0.21875 -3.03125,-0.57812 -4.69922,-1.23828c-3.32031,-1.26953 -7.12109,-3.51172 -10.70312,-7.05078c-3.58985,-3.5 -6.95704,-8.1875 -9.39844,-13.66016c-2.44922,-5.46093 -3.98047,-11.69531 -3.94922,-17.94531c0.01953,-0.77734 -0.01172,-1.57422 0.07812,-2.34375l0.08204,-1.17187c0.01953,-0.39063 0.12109,-0.83203 0.17968,-1.2461c0.30078,-1.67968 0.41797,-3.42578 0.92969,-5.10547c0.19922,-0.85546 0.41016,-1.71093 0.62109,-2.57421c0.23047,-0.85547 0.5586,-1.6875 0.82813,-2.54297c0.3125,-0.84375 0.53906,-1.72266 0.89062,-2.5625l1.08985,-2.51953l0.53906,-1.27735c0.17969,-0.42578 0.42969,-0.82422 0.64063,-1.23828l1.3125,-2.49219c0.39843,-0.85156 0.95703,-1.6289 1.44921,-2.4414l1.50782,-2.4375c1.15234,-1.55078 2.24218,-3.15625 3.46093,-4.6875l1.87891,-2.25782l0.95313,-1.13671l1.01953,-1.07813c5.36718,-5.8125 11.66015,-10.98047 18.41015,-15.30859l1.25782,-0.82422l1.28906,-0.75391c0.87109,-0.50781 1.73047,-1.01172 2.58984,-1.51562c1.72266,-0.9961 3.52344,-1.83985 5.27344,-2.77344c1.77734,-0.85156 3.57812,-1.62891 5.35937,-2.44531c1.84766,-0.72266 3.67969,-1.44141 5.5,-2.15235c14.71875,-5.36328 29.52735,-7.91015 42.25782,-9.33593c12.76953,-1.42188 23.51172,-1.87891 31,-2.21485c7.5,-0.27344 11.76172,-0.43359 11.76172,-0.43359zm0,0" id="svg_29"/>
  </clipPath>
  <clipPath id="clip-29">
   <path clip-rule="nonzero" d="m2404.31249,104.70313c0,0 -4.24219,-0.50391 -11.69141,-1.39453c-7.46875,-0.83203 -18.17969,-2.05078 -31.30078,-2.61328c-13.09766,-0.54688 -28.73828,-0.36329 -45.64844,2.99218c-16.94922,3.30469 -34.96875,10.70703 -50.48047,23.0625c-15.55078,12.21875 -28.30859,30.35938 -32.05078,51.87891c-1.73828,10.84766 -0.75781,21.57031 1.91016,31.33594c2.69922,9.78515 7.14062,18.70703 12.87109,26.33203c5.69922,7.64062 12.83984,13.91406 20.55078,18.34765c3.83985,2.23829 7.84766,3.96094 11.78906,5.23047c1.96094,0.66797 3.92969,1.13672 5.83985,1.58594c0.96094,0.22266 1.92187,0.36328 2.85937,0.53125c0.94141,0.15625 1.8711,0.32422 2.78125,0.39844c7.32813,0.85547 13.85157,0.25 18.85938,-0.78125c5.05859,-1.00391 8.62109,-2.44141 10.78125,-3.34766c4.30078,-1.89062 8.9375,-4.67578 13.25781,-8.30859c4.33984,-3.625 8.35156,-8.06641 11.69141,-13.01172c6.73047,-9.88281 10.66797,-21.74219 11.39843,-32.66797c0.38282,-5.46484 0.01954,-10.67578 -0.92968,-15.28125c-0.94922,-4.60547 -2.48047,-8.58203 -4.17969,-11.68359c-1.76953,-3.10157 -3.6875,-5.32813 -5.50781,-6.61719c-1.83985,-1.28906 -3.47266,-1.67578 -4.86328,-1.19922c-2.81641,1 -4.23829,5.10156 -6.0586,10.17969c-0.96094,2.5625 -1.96094,5.38281 -3.21875,8.3125c-1.24219,2.92578 -2.75,5.94922 -4.48047,8.89453c-3.44922,5.89844 -8.03906,11.37891 -12.58203,15.17578c-2.25781,1.91406 -4.46875,3.42188 -6.45703,4.5625c-1.98047,1.14453 -3.73047,1.92578 -5.17187,2.57422c-0.73047,0.28516 -1.84766,0.89453 -3.37891,1.37891c-1.53125,0.51562 -3.46094,1.00781 -5.96094,1.13281c-1.25,0.03125 -2.58984,0.01953 -4.03906,-0.23438c-1.46094,-0.21875 -3.03125,-0.57812 -4.69922,-1.23828c-3.32031,-1.26953 -7.12109,-3.51172 -10.70312,-7.05078c-3.58985,-3.5 -6.95704,-8.1875 -9.39844,-13.66016c-2.44922,-5.46093 -3.98047,-11.69531 -3.94922,-17.94531c0.01953,-0.77734 -0.01172,-1.57422 0.07812,-2.34375l0.08204,-1.17187c0.01953,-0.39063 0.12109,-0.83203 0.17968,-1.2461c0.30078,-1.67968 0.41797,-3.42578 0.92969,-5.10547c0.19922,-0.85546 0.41016,-1.71093 0.62109,-2.57421c0.23047,-0.85547 0.5586,-1.6875 0.82813,-2.54297c0.3125,-0.84375 0.53906,-1.72266 0.89062,-2.5625l1.08985,-2.51953l0.53906,-1.27735c0.17969,-0.42578 0.42969,-0.82422 0.64063,-1.23828l1.3125,-2.49219c0.39843,-0.85156 0.95703,-1.6289 1.44921,-2.4414l1.50782,-2.4375c1.15234,-1.55078 2.24218,-3.15625 3.46093,-4.6875l1.87891,-2.25782l0.95313,-1.13671l1.01953,-1.07813c5.36718,-5.8125 11.66015,-10.98047 18.41015,-15.30859l1.25782,-0.82422l1.28906,-0.75391c0.87109,-0.50781 1.73047,-1.01172 2.58984,-1.51562c1.72266,-0.9961 3.52344,-1.83985 5.27344,-2.77344c1.77734,-0.85156 3.57812,-1.62891 5.35937,-2.44531c1.84766,-0.72266 3.67969,-1.44141 5.5,-2.15235c14.71875,-5.36328 29.52735,-7.91015 42.25782,-9.33593c12.76953,-1.42188 23.51172,-1.87891 31,-2.21485c7.5,-0.27344 11.76172,-0.43359 11.76172,-0.43359" id="svg_30"/>
  </clipPath>
  <radialGradient id="radial-pattern-0" gradientUnits="userSpaceOnUse" cx="0" cy="0" fx="0" fy="0" r="126.507" gradientTransform="matrix(1,0,0,1,1784.751953125,121.99542236328125)">
   <stop offset="0" stop-color="rgb(9.335327%, 7.797241%, 7.554626%)"/>
   <stop offset="1" stop-color="rgb(9.335327%, 7.797241%, 7.554626%)"/>
  </radialGradient>
  <radialGradient id="radial-pattern-1" gradientUnits="userSpaceOnUse" cx="0" cy="0" fx="0" fy="0" r="157.94" gradientTransform="matrix(1,0,0,1,1458.451904296875,102.50640869140625)">
   <stop offset="0" stop-color="rgb(9.335327%, 7.797241%, 7.554626%)"/>
   <stop offset="1" stop-color="rgb(9.335327%, 7.797241%, 7.554626%)"/>
  </radialGradient>
  <radialGradient id="radial-pattern-2" gradientUnits="userSpaceOnUse" cx="0" cy="0" fx="0" fy="0" r="453.008" gradientTransform="matrix(1,0,0,1,646.49169921875,107.09442138671875)">
   <stop offset="0" stop-color="rgb(9.335327%, 7.797241%, 7.554626%)"/>
   <stop offset="1" stop-color="rgb(9.335327%, 7.797241%, 7.554626%)"/>
  </radialGradient>
  <radialGradient id="radial-pattern-3" gradientUnits="userSpaceOnUse" cx="0" cy="0" fx="0" fy="0" r="119.082" gradientTransform="matrix(1,0,0,1,1093.101806640625,147.2574462890625)">
   <stop offset="0" stop-color="rgb(9.335327%, 7.797241%, 7.554626%)"/>
   <stop offset="1" stop-color="rgb(9.335327%, 7.797241%, 7.554626%)"/>
  </radialGradient>
  <radialGradient id="radial-pattern-4" gradientUnits="userSpaceOnUse" cx="0" cy="0" fx="0" fy="0" r="83.6306" gradientTransform="matrix(1,0,0,1,1541.0517578125,181.62841796875)">
   <stop offset="0" stop-color="rgb(9.335327%, 7.797241%, 7.554626%)"/>
   <stop offset="1" stop-color="rgb(9.335327%, 7.797241%, 7.554626%)"/>
  </radialGradient>
  <radialGradient id="radial-pattern-5" gradientUnits="userSpaceOnUse" cx="0" cy="0" fx="0" fy="0" r="126.507" gradientTransform="matrix(1,0,0,1,2074.591796875,121.99542236328125)">
   <stop offset="0" stop-color="rgb(9.335327%, 7.797241%, 7.554626%)"/>
   <stop offset="1" stop-color="rgb(9.335327%, 7.797241%, 7.554626%)"/>
  </radialGradient>
  <radialGradient id="radial-pattern-6" gradientUnits="userSpaceOnUse" cx="0" cy="0" fx="0" fy="0" r="157.94" gradientTransform="matrix(1,0,0,1,2400.891845703125,102.50640869140625)">
   <stop offset="0" stop-color="rgb(9.335327%, 7.797241%, 7.554626%)"/>
   <stop offset="1" stop-color="rgb(9.335327%, 7.797241%, 7.554626%)"/>
  </radialGradient>
  <radialGradient id="radial-pattern-7" gradientUnits="userSpaceOnUse" cx="0" cy="0" fx="0" fy="0" r="453.008" gradientTransform="matrix(1,0,0,1,3212.851806640625,107.09442138671875)">
   <stop offset="0" stop-color="rgb(9.335327%, 7.797241%, 7.554626%)"/>
   <stop offset="1" stop-color="rgb(9.335327%, 7.797241%, 7.554626%)"/>
  </radialGradient>
  <radialGradient id="radial-pattern-8" gradientUnits="userSpaceOnUse" cx="0" cy="0" fx="0" fy="0" r="119.082" gradientTransform="matrix(1,0,0,1,2766.241943359375,147.2574462890625)">
   <stop offset="0" stop-color="rgb(9.335327%, 7.797241%, 7.554626%)"/>
   <stop offset="1" stop-color="rgb(9.335327%, 7.797241%, 7.554626%)"/>
  </radialGradient>
  <radialGradient id="radial-pattern-9" gradientUnits="userSpaceOnUse" cx="0" cy="0" fx="0" fy="0" r="83.6306" gradientTransform="matrix(1,0,0,1,2318.2919921875,181.62841796875)">
   <stop offset="0" stop-color="rgb(9.335327%, 7.797241%, 7.554626%)"/>
   <stop offset="1" stop-color="rgb(9.335327%, 7.797241%, 7.554626%)"/>
  </radialGradient>
 </defs>
 <g>
  <title>Layer 1</title>
  <g id="svg_31">
   <g clip-path="url(#clip-0)" id="svg_32">
    <g clip-path="url(#clip-1)" id="svg_33">
     <g clip-path="url(#clip-2)" id="svg_34">
      <path fill-rule="nonzero" fill="url(#radial-pattern-0)" d="m1644.58202,10l0,224.44532l281.57812,0l0,-224.44532l-281.57812,0zm0,0" id="svg_35"/>
     </g>
    </g>
   </g>
   <g clip-path="url(#clip-3)" id="svg_36">
    <g clip-path="url(#clip-4)" id="svg_37">
     <g clip-path="url(#clip-5)" id="svg_38">
      <path fill-rule="nonzero" fill="url(#radial-pattern-1)" d="m1248.22264,24.58985l0,155l420.00781,0l0,-155l-420.00781,0zm0,0" id="svg_39"/>
     </g>
    </g>
   </g>
   <g clip-path="url(#clip-6)" id="svg_40">
    <g clip-path="url(#clip-7)" id="svg_41">
     <g clip-path="url(#clip-8)" id="svg_42">
      <path fill-rule="nonzero" fill="url(#radial-pattern-2)" d="m9.99999,34.24219l0,145.70703l1273.21093,0l0,-145.70703l-1273.21093,0zm0,0" id="svg_43"/>
     </g>
    </g>
   </g>
   <g clip-path="url(#clip-9)" id="svg_44">
    <g clip-path="url(#clip-10)" id="svg_45">
     <g clip-path="url(#clip-11)" id="svg_46">
      <path fill-rule="nonzero" fill="url(#radial-pattern-3)" d="m929.19139,107.35157l0,79.84375l327.51953,0l0,-79.84375l-327.51953,0zm0,0" id="svg_47"/>
     </g>
    </g>
   </g>
   <g clip-path="url(#clip-12)" id="svg_48">
    <g clip-path="url(#clip-13)" id="svg_49">
     <g clip-path="url(#clip-14)" id="svg_50">
      <path fill-rule="nonzero" fill="url(#radial-pattern-4)" d="m1455.03124,100.14844l0,163.09766l172.91015,0l0,-163.09766l-172.91015,0zm0,0" id="svg_51"/>
     </g>
    </g>
   </g>
   <g clip-path="url(#clip-15)" id="svg_52">
    <g clip-path="url(#clip-16)" id="svg_53">
     <g clip-path="url(#clip-17)" id="svg_54">
      <path fill-rule="nonzero" fill="url(#radial-pattern-5)" d="m1933.18358,10l0,224.44532l281.57812,0l0,-224.44532l-281.57812,0zm0,0" id="svg_55"/>
     </g>
    </g>
   </g>
   <g clip-path="url(#clip-18)" id="svg_56">
    <g clip-path="url(#clip-19)" id="svg_57">
     <g clip-path="url(#clip-20)" id="svg_58">
      <path fill-rule="nonzero" fill="url(#radial-pattern-6)" d="m2191.11327,24.58985l0,155l420.00781,0l0,-155l-420.00781,0zm0,0" id="svg_59"/>
     </g>
    </g>
   </g>
   <g clip-path="url(#clip-21)" id="svg_60">
    <g clip-path="url(#clip-22)" id="svg_61">
     <g clip-path="url(#clip-23)" id="svg_62">
      <path fill-rule="nonzero" fill="url(#radial-pattern-7)" d="m2576.1328,34.24219l0,145.70703l1273.21094,0l0,-145.70703l-1273.21094,0zm0,0" id="svg_63"/>
     </g>
    </g>
   </g>
   <g clip-path="url(#clip-24)" id="svg_64">
    <g clip-path="url(#clip-25)" id="svg_65">
     <g clip-path="url(#clip-26)" id="svg_66">
      <path fill-rule="nonzero" fill="url(#radial-pattern-8)" d="m2602.6328,107.35157l0,79.84375l327.51953,0l0,-79.84375l-327.51953,0zm0,0" id="svg_67"/>
     </g>
    </g>
   </g>
   <g clip-path="url(#clip-27)" id="svg_68">
    <g clip-path="url(#clip-28)" id="svg_69">
     <g clip-path="url(#clip-29)" id="svg_70">
      <path fill-rule="nonzero" fill="url(#radial-pattern-9)" d="m2231.40233,100.14844l0,163.09766l172.91016,0l0,-163.09766l-172.91016,0zm0,0" id="svg_71"/>
     </g>
    </g>
   </g>
  </g>
 </g>
</svg>